%TF.GenerationSoftware,KiCad,Pcbnew,9.0.2+dfsg-1*%
%TF.CreationDate,2025-06-14T17:41:50+08:00*%
%TF.ProjectId,sd,73642e6b-6963-4616-945f-706362585858,rev?*%
%TF.SameCoordinates,Original*%
%TF.FileFunction,Legend,Top*%
%TF.FilePolarity,Positive*%
%FSLAX46Y46*%
G04 Gerber Fmt 4.6, Leading zero omitted, Abs format (unit mm)*
G04 Created by KiCad (PCBNEW 9.0.2+dfsg-1) date 2025-06-14 17:41:50*
%MOMM*%
%LPD*%
G01*
G04 APERTURE LIST*
%ADD10C,0.100000*%
%ADD11C,0.150000*%
%ADD12C,0.120000*%
G04 APERTURE END LIST*
D10*
X149528884Y-88087419D02*
X149528884Y-87087419D01*
X149528884Y-87087419D02*
X149766979Y-87087419D01*
X149766979Y-87087419D02*
X149909836Y-87135038D01*
X149909836Y-87135038D02*
X150005074Y-87230276D01*
X150005074Y-87230276D02*
X150052693Y-87325514D01*
X150052693Y-87325514D02*
X150100312Y-87515990D01*
X150100312Y-87515990D02*
X150100312Y-87658847D01*
X150100312Y-87658847D02*
X150052693Y-87849323D01*
X150052693Y-87849323D02*
X150005074Y-87944561D01*
X150005074Y-87944561D02*
X149909836Y-88039800D01*
X149909836Y-88039800D02*
X149766979Y-88087419D01*
X149766979Y-88087419D02*
X149528884Y-88087419D01*
X150481265Y-87182657D02*
X150528884Y-87135038D01*
X150528884Y-87135038D02*
X150624122Y-87087419D01*
X150624122Y-87087419D02*
X150862217Y-87087419D01*
X150862217Y-87087419D02*
X150957455Y-87135038D01*
X150957455Y-87135038D02*
X151005074Y-87182657D01*
X151005074Y-87182657D02*
X151052693Y-87277895D01*
X151052693Y-87277895D02*
X151052693Y-87373133D01*
X151052693Y-87373133D02*
X151005074Y-87515990D01*
X151005074Y-87515990D02*
X150433646Y-88087419D01*
X150433646Y-88087419D02*
X151052693Y-88087419D01*
X149528884Y-100787419D02*
X149528884Y-99787419D01*
X149528884Y-99787419D02*
X149766979Y-99787419D01*
X149766979Y-99787419D02*
X149909836Y-99835038D01*
X149909836Y-99835038D02*
X150005074Y-99930276D01*
X150005074Y-99930276D02*
X150052693Y-100025514D01*
X150052693Y-100025514D02*
X150100312Y-100215990D01*
X150100312Y-100215990D02*
X150100312Y-100358847D01*
X150100312Y-100358847D02*
X150052693Y-100549323D01*
X150052693Y-100549323D02*
X150005074Y-100644561D01*
X150005074Y-100644561D02*
X149909836Y-100739800D01*
X149909836Y-100739800D02*
X149766979Y-100787419D01*
X149766979Y-100787419D02*
X149528884Y-100787419D01*
X151052693Y-100787419D02*
X150481265Y-100787419D01*
X150766979Y-100787419D02*
X150766979Y-99787419D01*
X150766979Y-99787419D02*
X150671741Y-99930276D01*
X150671741Y-99930276D02*
X150576503Y-100025514D01*
X150576503Y-100025514D02*
X150481265Y-100073133D01*
X149528884Y-103327419D02*
X149528884Y-102327419D01*
X149528884Y-102327419D02*
X149766979Y-102327419D01*
X149766979Y-102327419D02*
X149909836Y-102375038D01*
X149909836Y-102375038D02*
X150005074Y-102470276D01*
X150005074Y-102470276D02*
X150052693Y-102565514D01*
X150052693Y-102565514D02*
X150100312Y-102755990D01*
X150100312Y-102755990D02*
X150100312Y-102898847D01*
X150100312Y-102898847D02*
X150052693Y-103089323D01*
X150052693Y-103089323D02*
X150005074Y-103184561D01*
X150005074Y-103184561D02*
X149909836Y-103279800D01*
X149909836Y-103279800D02*
X149766979Y-103327419D01*
X149766979Y-103327419D02*
X149528884Y-103327419D01*
X150528884Y-102803609D02*
X150862217Y-102803609D01*
X151005074Y-103327419D02*
X150528884Y-103327419D01*
X150528884Y-103327419D02*
X150528884Y-102327419D01*
X150528884Y-102327419D02*
X151005074Y-102327419D01*
X151290789Y-102327419D02*
X151862217Y-102327419D01*
X151576503Y-103327419D02*
X151576503Y-102327419D01*
X150100312Y-95612180D02*
X150052693Y-95659800D01*
X150052693Y-95659800D02*
X149909836Y-95707419D01*
X149909836Y-95707419D02*
X149814598Y-95707419D01*
X149814598Y-95707419D02*
X149671741Y-95659800D01*
X149671741Y-95659800D02*
X149576503Y-95564561D01*
X149576503Y-95564561D02*
X149528884Y-95469323D01*
X149528884Y-95469323D02*
X149481265Y-95278847D01*
X149481265Y-95278847D02*
X149481265Y-95135990D01*
X149481265Y-95135990D02*
X149528884Y-94945514D01*
X149528884Y-94945514D02*
X149576503Y-94850276D01*
X149576503Y-94850276D02*
X149671741Y-94755038D01*
X149671741Y-94755038D02*
X149814598Y-94707419D01*
X149814598Y-94707419D02*
X149909836Y-94707419D01*
X149909836Y-94707419D02*
X150052693Y-94755038D01*
X150052693Y-94755038D02*
X150100312Y-94802657D01*
X151005074Y-95707419D02*
X150528884Y-95707419D01*
X150528884Y-95707419D02*
X150528884Y-94707419D01*
X151338408Y-95707419D02*
X151338408Y-94707419D01*
X151909836Y-95707419D02*
X151481265Y-95135990D01*
X151909836Y-94707419D02*
X151338408Y-95278847D01*
X149528884Y-90627419D02*
X149528884Y-89627419D01*
X149528884Y-89627419D02*
X149766979Y-89627419D01*
X149766979Y-89627419D02*
X149909836Y-89675038D01*
X149909836Y-89675038D02*
X150005074Y-89770276D01*
X150005074Y-89770276D02*
X150052693Y-89865514D01*
X150052693Y-89865514D02*
X150100312Y-90055990D01*
X150100312Y-90055990D02*
X150100312Y-90198847D01*
X150100312Y-90198847D02*
X150052693Y-90389323D01*
X150052693Y-90389323D02*
X150005074Y-90484561D01*
X150005074Y-90484561D02*
X149909836Y-90579800D01*
X149909836Y-90579800D02*
X149766979Y-90627419D01*
X149766979Y-90627419D02*
X149528884Y-90627419D01*
X150433646Y-89627419D02*
X151052693Y-89627419D01*
X151052693Y-89627419D02*
X150719360Y-90008371D01*
X150719360Y-90008371D02*
X150862217Y-90008371D01*
X150862217Y-90008371D02*
X150957455Y-90055990D01*
X150957455Y-90055990D02*
X151005074Y-90103609D01*
X151005074Y-90103609D02*
X151052693Y-90198847D01*
X151052693Y-90198847D02*
X151052693Y-90436942D01*
X151052693Y-90436942D02*
X151005074Y-90532180D01*
X151005074Y-90532180D02*
X150957455Y-90579800D01*
X150957455Y-90579800D02*
X150862217Y-90627419D01*
X150862217Y-90627419D02*
X150576503Y-90627419D01*
X150576503Y-90627419D02*
X150481265Y-90579800D01*
X150481265Y-90579800D02*
X150433646Y-90532180D01*
X150052693Y-104915038D02*
X149957455Y-104867419D01*
X149957455Y-104867419D02*
X149814598Y-104867419D01*
X149814598Y-104867419D02*
X149671741Y-104915038D01*
X149671741Y-104915038D02*
X149576503Y-105010276D01*
X149576503Y-105010276D02*
X149528884Y-105105514D01*
X149528884Y-105105514D02*
X149481265Y-105295990D01*
X149481265Y-105295990D02*
X149481265Y-105438847D01*
X149481265Y-105438847D02*
X149528884Y-105629323D01*
X149528884Y-105629323D02*
X149576503Y-105724561D01*
X149576503Y-105724561D02*
X149671741Y-105819800D01*
X149671741Y-105819800D02*
X149814598Y-105867419D01*
X149814598Y-105867419D02*
X149909836Y-105867419D01*
X149909836Y-105867419D02*
X150052693Y-105819800D01*
X150052693Y-105819800D02*
X150100312Y-105772180D01*
X150100312Y-105772180D02*
X150100312Y-105438847D01*
X150100312Y-105438847D02*
X149909836Y-105438847D01*
X150528884Y-105867419D02*
X150528884Y-104867419D01*
X150528884Y-104867419D02*
X151100312Y-105867419D01*
X151100312Y-105867419D02*
X151100312Y-104867419D01*
X151576503Y-105867419D02*
X151576503Y-104867419D01*
X151576503Y-104867419D02*
X151814598Y-104867419D01*
X151814598Y-104867419D02*
X151957455Y-104915038D01*
X151957455Y-104915038D02*
X152052693Y-105010276D01*
X152052693Y-105010276D02*
X152100312Y-105105514D01*
X152100312Y-105105514D02*
X152147931Y-105295990D01*
X152147931Y-105295990D02*
X152147931Y-105438847D01*
X152147931Y-105438847D02*
X152100312Y-105629323D01*
X152100312Y-105629323D02*
X152052693Y-105724561D01*
X152052693Y-105724561D02*
X151957455Y-105819800D01*
X151957455Y-105819800D02*
X151814598Y-105867419D01*
X151814598Y-105867419D02*
X151576503Y-105867419D01*
X150100312Y-93072180D02*
X150052693Y-93119800D01*
X150052693Y-93119800D02*
X149909836Y-93167419D01*
X149909836Y-93167419D02*
X149814598Y-93167419D01*
X149814598Y-93167419D02*
X149671741Y-93119800D01*
X149671741Y-93119800D02*
X149576503Y-93024561D01*
X149576503Y-93024561D02*
X149528884Y-92929323D01*
X149528884Y-92929323D02*
X149481265Y-92738847D01*
X149481265Y-92738847D02*
X149481265Y-92595990D01*
X149481265Y-92595990D02*
X149528884Y-92405514D01*
X149528884Y-92405514D02*
X149576503Y-92310276D01*
X149576503Y-92310276D02*
X149671741Y-92215038D01*
X149671741Y-92215038D02*
X149814598Y-92167419D01*
X149814598Y-92167419D02*
X149909836Y-92167419D01*
X149909836Y-92167419D02*
X150052693Y-92215038D01*
X150052693Y-92215038D02*
X150100312Y-92262657D01*
X150528884Y-93167419D02*
X150528884Y-92167419D01*
X150528884Y-92167419D02*
X150862217Y-92881704D01*
X150862217Y-92881704D02*
X151195550Y-92167419D01*
X151195550Y-92167419D02*
X151195550Y-93167419D01*
X151671741Y-93167419D02*
X151671741Y-92167419D01*
X151671741Y-92167419D02*
X151909836Y-92167419D01*
X151909836Y-92167419D02*
X152052693Y-92215038D01*
X152052693Y-92215038D02*
X152147931Y-92310276D01*
X152147931Y-92310276D02*
X152195550Y-92405514D01*
X152195550Y-92405514D02*
X152243169Y-92595990D01*
X152243169Y-92595990D02*
X152243169Y-92738847D01*
X152243169Y-92738847D02*
X152195550Y-92929323D01*
X152195550Y-92929323D02*
X152147931Y-93024561D01*
X152147931Y-93024561D02*
X152052693Y-93119800D01*
X152052693Y-93119800D02*
X151909836Y-93167419D01*
X151909836Y-93167419D02*
X151671741Y-93167419D01*
X149386027Y-84547419D02*
X149719360Y-85547419D01*
X149719360Y-85547419D02*
X150052693Y-84547419D01*
X150957455Y-85452180D02*
X150909836Y-85499800D01*
X150909836Y-85499800D02*
X150766979Y-85547419D01*
X150766979Y-85547419D02*
X150671741Y-85547419D01*
X150671741Y-85547419D02*
X150528884Y-85499800D01*
X150528884Y-85499800D02*
X150433646Y-85404561D01*
X150433646Y-85404561D02*
X150386027Y-85309323D01*
X150386027Y-85309323D02*
X150338408Y-85118847D01*
X150338408Y-85118847D02*
X150338408Y-84975990D01*
X150338408Y-84975990D02*
X150386027Y-84785514D01*
X150386027Y-84785514D02*
X150433646Y-84690276D01*
X150433646Y-84690276D02*
X150528884Y-84595038D01*
X150528884Y-84595038D02*
X150671741Y-84547419D01*
X150671741Y-84547419D02*
X150766979Y-84547419D01*
X150766979Y-84547419D02*
X150909836Y-84595038D01*
X150909836Y-84595038D02*
X150957455Y-84642657D01*
X151957455Y-85452180D02*
X151909836Y-85499800D01*
X151909836Y-85499800D02*
X151766979Y-85547419D01*
X151766979Y-85547419D02*
X151671741Y-85547419D01*
X151671741Y-85547419D02*
X151528884Y-85499800D01*
X151528884Y-85499800D02*
X151433646Y-85404561D01*
X151433646Y-85404561D02*
X151386027Y-85309323D01*
X151386027Y-85309323D02*
X151338408Y-85118847D01*
X151338408Y-85118847D02*
X151338408Y-84975990D01*
X151338408Y-84975990D02*
X151386027Y-84785514D01*
X151386027Y-84785514D02*
X151433646Y-84690276D01*
X151433646Y-84690276D02*
X151528884Y-84595038D01*
X151528884Y-84595038D02*
X151671741Y-84547419D01*
X151671741Y-84547419D02*
X151766979Y-84547419D01*
X151766979Y-84547419D02*
X151909836Y-84595038D01*
X151909836Y-84595038D02*
X151957455Y-84642657D01*
X149528884Y-98247419D02*
X149528884Y-97247419D01*
X149528884Y-97247419D02*
X149766979Y-97247419D01*
X149766979Y-97247419D02*
X149909836Y-97295038D01*
X149909836Y-97295038D02*
X150005074Y-97390276D01*
X150005074Y-97390276D02*
X150052693Y-97485514D01*
X150052693Y-97485514D02*
X150100312Y-97675990D01*
X150100312Y-97675990D02*
X150100312Y-97818847D01*
X150100312Y-97818847D02*
X150052693Y-98009323D01*
X150052693Y-98009323D02*
X150005074Y-98104561D01*
X150005074Y-98104561D02*
X149909836Y-98199800D01*
X149909836Y-98199800D02*
X149766979Y-98247419D01*
X149766979Y-98247419D02*
X149528884Y-98247419D01*
X150719360Y-97247419D02*
X150814598Y-97247419D01*
X150814598Y-97247419D02*
X150909836Y-97295038D01*
X150909836Y-97295038D02*
X150957455Y-97342657D01*
X150957455Y-97342657D02*
X151005074Y-97437895D01*
X151005074Y-97437895D02*
X151052693Y-97628371D01*
X151052693Y-97628371D02*
X151052693Y-97866466D01*
X151052693Y-97866466D02*
X151005074Y-98056942D01*
X151005074Y-98056942D02*
X150957455Y-98152180D01*
X150957455Y-98152180D02*
X150909836Y-98199800D01*
X150909836Y-98199800D02*
X150814598Y-98247419D01*
X150814598Y-98247419D02*
X150719360Y-98247419D01*
X150719360Y-98247419D02*
X150624122Y-98199800D01*
X150624122Y-98199800D02*
X150576503Y-98152180D01*
X150576503Y-98152180D02*
X150528884Y-98056942D01*
X150528884Y-98056942D02*
X150481265Y-97866466D01*
X150481265Y-97866466D02*
X150481265Y-97628371D01*
X150481265Y-97628371D02*
X150528884Y-97437895D01*
X150528884Y-97437895D02*
X150576503Y-97342657D01*
X150576503Y-97342657D02*
X150624122Y-97295038D01*
X150624122Y-97295038D02*
X150719360Y-97247419D01*
X175717419Y-102273809D02*
X174717419Y-102273809D01*
X174717419Y-102273809D02*
X175431704Y-101940476D01*
X175431704Y-101940476D02*
X174717419Y-101607143D01*
X174717419Y-101607143D02*
X175717419Y-101607143D01*
X175717419Y-101130952D02*
X175050752Y-101130952D01*
X174717419Y-101130952D02*
X174765038Y-101178571D01*
X174765038Y-101178571D02*
X174812657Y-101130952D01*
X174812657Y-101130952D02*
X174765038Y-101083333D01*
X174765038Y-101083333D02*
X174717419Y-101130952D01*
X174717419Y-101130952D02*
X174812657Y-101130952D01*
X175669800Y-100226191D02*
X175717419Y-100321429D01*
X175717419Y-100321429D02*
X175717419Y-100511905D01*
X175717419Y-100511905D02*
X175669800Y-100607143D01*
X175669800Y-100607143D02*
X175622180Y-100654762D01*
X175622180Y-100654762D02*
X175526942Y-100702381D01*
X175526942Y-100702381D02*
X175241228Y-100702381D01*
X175241228Y-100702381D02*
X175145990Y-100654762D01*
X175145990Y-100654762D02*
X175098371Y-100607143D01*
X175098371Y-100607143D02*
X175050752Y-100511905D01*
X175050752Y-100511905D02*
X175050752Y-100321429D01*
X175050752Y-100321429D02*
X175098371Y-100226191D01*
X175717419Y-99797619D02*
X175050752Y-99797619D01*
X175241228Y-99797619D02*
X175145990Y-99750000D01*
X175145990Y-99750000D02*
X175098371Y-99702381D01*
X175098371Y-99702381D02*
X175050752Y-99607143D01*
X175050752Y-99607143D02*
X175050752Y-99511905D01*
X175717419Y-99035714D02*
X175669800Y-99130952D01*
X175669800Y-99130952D02*
X175622180Y-99178571D01*
X175622180Y-99178571D02*
X175526942Y-99226190D01*
X175526942Y-99226190D02*
X175241228Y-99226190D01*
X175241228Y-99226190D02*
X175145990Y-99178571D01*
X175145990Y-99178571D02*
X175098371Y-99130952D01*
X175098371Y-99130952D02*
X175050752Y-99035714D01*
X175050752Y-99035714D02*
X175050752Y-98892857D01*
X175050752Y-98892857D02*
X175098371Y-98797619D01*
X175098371Y-98797619D02*
X175145990Y-98750000D01*
X175145990Y-98750000D02*
X175241228Y-98702381D01*
X175241228Y-98702381D02*
X175526942Y-98702381D01*
X175526942Y-98702381D02*
X175622180Y-98750000D01*
X175622180Y-98750000D02*
X175669800Y-98797619D01*
X175669800Y-98797619D02*
X175717419Y-98892857D01*
X175717419Y-98892857D02*
X175717419Y-99035714D01*
X175336466Y-98273809D02*
X175336466Y-97511905D01*
X175669800Y-97083333D02*
X175717419Y-96940476D01*
X175717419Y-96940476D02*
X175717419Y-96702381D01*
X175717419Y-96702381D02*
X175669800Y-96607143D01*
X175669800Y-96607143D02*
X175622180Y-96559524D01*
X175622180Y-96559524D02*
X175526942Y-96511905D01*
X175526942Y-96511905D02*
X175431704Y-96511905D01*
X175431704Y-96511905D02*
X175336466Y-96559524D01*
X175336466Y-96559524D02*
X175288847Y-96607143D01*
X175288847Y-96607143D02*
X175241228Y-96702381D01*
X175241228Y-96702381D02*
X175193609Y-96892857D01*
X175193609Y-96892857D02*
X175145990Y-96988095D01*
X175145990Y-96988095D02*
X175098371Y-97035714D01*
X175098371Y-97035714D02*
X175003133Y-97083333D01*
X175003133Y-97083333D02*
X174907895Y-97083333D01*
X174907895Y-97083333D02*
X174812657Y-97035714D01*
X174812657Y-97035714D02*
X174765038Y-96988095D01*
X174765038Y-96988095D02*
X174717419Y-96892857D01*
X174717419Y-96892857D02*
X174717419Y-96654762D01*
X174717419Y-96654762D02*
X174765038Y-96511905D01*
X175717419Y-96083333D02*
X174717419Y-96083333D01*
X174717419Y-96083333D02*
X174717419Y-95845238D01*
X174717419Y-95845238D02*
X174765038Y-95702381D01*
X174765038Y-95702381D02*
X174860276Y-95607143D01*
X174860276Y-95607143D02*
X174955514Y-95559524D01*
X174955514Y-95559524D02*
X175145990Y-95511905D01*
X175145990Y-95511905D02*
X175288847Y-95511905D01*
X175288847Y-95511905D02*
X175479323Y-95559524D01*
X175479323Y-95559524D02*
X175574561Y-95607143D01*
X175574561Y-95607143D02*
X175669800Y-95702381D01*
X175669800Y-95702381D02*
X175717419Y-95845238D01*
X175717419Y-95845238D02*
X175717419Y-96083333D01*
X175193609Y-93988095D02*
X175241228Y-93845238D01*
X175241228Y-93845238D02*
X175288847Y-93797619D01*
X175288847Y-93797619D02*
X175384085Y-93750000D01*
X175384085Y-93750000D02*
X175526942Y-93750000D01*
X175526942Y-93750000D02*
X175622180Y-93797619D01*
X175622180Y-93797619D02*
X175669800Y-93845238D01*
X175669800Y-93845238D02*
X175717419Y-93940476D01*
X175717419Y-93940476D02*
X175717419Y-94321428D01*
X175717419Y-94321428D02*
X174717419Y-94321428D01*
X174717419Y-94321428D02*
X174717419Y-93988095D01*
X174717419Y-93988095D02*
X174765038Y-93892857D01*
X174765038Y-93892857D02*
X174812657Y-93845238D01*
X174812657Y-93845238D02*
X174907895Y-93797619D01*
X174907895Y-93797619D02*
X175003133Y-93797619D01*
X175003133Y-93797619D02*
X175098371Y-93845238D01*
X175098371Y-93845238D02*
X175145990Y-93892857D01*
X175145990Y-93892857D02*
X175193609Y-93988095D01*
X175193609Y-93988095D02*
X175193609Y-94321428D01*
X175717419Y-93321428D02*
X175050752Y-93321428D01*
X175241228Y-93321428D02*
X175145990Y-93273809D01*
X175145990Y-93273809D02*
X175098371Y-93226190D01*
X175098371Y-93226190D02*
X175050752Y-93130952D01*
X175050752Y-93130952D02*
X175050752Y-93035714D01*
X175669800Y-92321428D02*
X175717419Y-92416666D01*
X175717419Y-92416666D02*
X175717419Y-92607142D01*
X175717419Y-92607142D02*
X175669800Y-92702380D01*
X175669800Y-92702380D02*
X175574561Y-92749999D01*
X175574561Y-92749999D02*
X175193609Y-92749999D01*
X175193609Y-92749999D02*
X175098371Y-92702380D01*
X175098371Y-92702380D02*
X175050752Y-92607142D01*
X175050752Y-92607142D02*
X175050752Y-92416666D01*
X175050752Y-92416666D02*
X175098371Y-92321428D01*
X175098371Y-92321428D02*
X175193609Y-92273809D01*
X175193609Y-92273809D02*
X175288847Y-92273809D01*
X175288847Y-92273809D02*
X175384085Y-92749999D01*
X175717419Y-91416666D02*
X175193609Y-91416666D01*
X175193609Y-91416666D02*
X175098371Y-91464285D01*
X175098371Y-91464285D02*
X175050752Y-91559523D01*
X175050752Y-91559523D02*
X175050752Y-91749999D01*
X175050752Y-91749999D02*
X175098371Y-91845237D01*
X175669800Y-91416666D02*
X175717419Y-91511904D01*
X175717419Y-91511904D02*
X175717419Y-91749999D01*
X175717419Y-91749999D02*
X175669800Y-91845237D01*
X175669800Y-91845237D02*
X175574561Y-91892856D01*
X175574561Y-91892856D02*
X175479323Y-91892856D01*
X175479323Y-91892856D02*
X175384085Y-91845237D01*
X175384085Y-91845237D02*
X175336466Y-91749999D01*
X175336466Y-91749999D02*
X175336466Y-91511904D01*
X175336466Y-91511904D02*
X175288847Y-91416666D01*
X175717419Y-90940475D02*
X174717419Y-90940475D01*
X175336466Y-90845237D02*
X175717419Y-90559523D01*
X175050752Y-90559523D02*
X175431704Y-90940475D01*
X175717419Y-89988094D02*
X175669800Y-90083332D01*
X175669800Y-90083332D02*
X175622180Y-90130951D01*
X175622180Y-90130951D02*
X175526942Y-90178570D01*
X175526942Y-90178570D02*
X175241228Y-90178570D01*
X175241228Y-90178570D02*
X175145990Y-90130951D01*
X175145990Y-90130951D02*
X175098371Y-90083332D01*
X175098371Y-90083332D02*
X175050752Y-89988094D01*
X175050752Y-89988094D02*
X175050752Y-89845237D01*
X175050752Y-89845237D02*
X175098371Y-89749999D01*
X175098371Y-89749999D02*
X175145990Y-89702380D01*
X175145990Y-89702380D02*
X175241228Y-89654761D01*
X175241228Y-89654761D02*
X175526942Y-89654761D01*
X175526942Y-89654761D02*
X175622180Y-89702380D01*
X175622180Y-89702380D02*
X175669800Y-89749999D01*
X175669800Y-89749999D02*
X175717419Y-89845237D01*
X175717419Y-89845237D02*
X175717419Y-89988094D01*
X175050752Y-88797618D02*
X175717419Y-88797618D01*
X175050752Y-89226189D02*
X175574561Y-89226189D01*
X175574561Y-89226189D02*
X175669800Y-89178570D01*
X175669800Y-89178570D02*
X175717419Y-89083332D01*
X175717419Y-89083332D02*
X175717419Y-88940475D01*
X175717419Y-88940475D02*
X175669800Y-88845237D01*
X175669800Y-88845237D02*
X175622180Y-88797618D01*
X175050752Y-88464284D02*
X175050752Y-88083332D01*
X174717419Y-88321427D02*
X175574561Y-88321427D01*
X175574561Y-88321427D02*
X175669800Y-88273808D01*
X175669800Y-88273808D02*
X175717419Y-88178570D01*
X175717419Y-88178570D02*
X175717419Y-88083332D01*
D11*
X156029819Y-99226666D02*
X155553628Y-99559999D01*
X156029819Y-99798094D02*
X155029819Y-99798094D01*
X155029819Y-99798094D02*
X155029819Y-99417142D01*
X155029819Y-99417142D02*
X155077438Y-99321904D01*
X155077438Y-99321904D02*
X155125057Y-99274285D01*
X155125057Y-99274285D02*
X155220295Y-99226666D01*
X155220295Y-99226666D02*
X155363152Y-99226666D01*
X155363152Y-99226666D02*
X155458390Y-99274285D01*
X155458390Y-99274285D02*
X155506009Y-99321904D01*
X155506009Y-99321904D02*
X155553628Y-99417142D01*
X155553628Y-99417142D02*
X155553628Y-99798094D01*
X155029819Y-98321904D02*
X155029819Y-98798094D01*
X155029819Y-98798094D02*
X155506009Y-98845713D01*
X155506009Y-98845713D02*
X155458390Y-98798094D01*
X155458390Y-98798094D02*
X155410771Y-98702856D01*
X155410771Y-98702856D02*
X155410771Y-98464761D01*
X155410771Y-98464761D02*
X155458390Y-98369523D01*
X155458390Y-98369523D02*
X155506009Y-98321904D01*
X155506009Y-98321904D02*
X155601247Y-98274285D01*
X155601247Y-98274285D02*
X155839342Y-98274285D01*
X155839342Y-98274285D02*
X155934580Y-98321904D01*
X155934580Y-98321904D02*
X155982200Y-98369523D01*
X155982200Y-98369523D02*
X156029819Y-98464761D01*
X156029819Y-98464761D02*
X156029819Y-98702856D01*
X156029819Y-98702856D02*
X155982200Y-98798094D01*
X155982200Y-98798094D02*
X155934580Y-98845713D01*
X158839819Y-95583333D02*
X159554104Y-95583333D01*
X159554104Y-95583333D02*
X159696961Y-95630952D01*
X159696961Y-95630952D02*
X159792200Y-95726190D01*
X159792200Y-95726190D02*
X159839819Y-95869047D01*
X159839819Y-95869047D02*
X159839819Y-95964285D01*
X159839819Y-94583333D02*
X159839819Y-95154761D01*
X159839819Y-94869047D02*
X158839819Y-94869047D01*
X158839819Y-94869047D02*
X158982676Y-94964285D01*
X158982676Y-94964285D02*
X159077914Y-95059523D01*
X159077914Y-95059523D02*
X159125533Y-95154761D01*
X154124819Y-92876666D02*
X153648628Y-93209999D01*
X154124819Y-93448094D02*
X153124819Y-93448094D01*
X153124819Y-93448094D02*
X153124819Y-93067142D01*
X153124819Y-93067142D02*
X153172438Y-92971904D01*
X153172438Y-92971904D02*
X153220057Y-92924285D01*
X153220057Y-92924285D02*
X153315295Y-92876666D01*
X153315295Y-92876666D02*
X153458152Y-92876666D01*
X153458152Y-92876666D02*
X153553390Y-92924285D01*
X153553390Y-92924285D02*
X153601009Y-92971904D01*
X153601009Y-92971904D02*
X153648628Y-93067142D01*
X153648628Y-93067142D02*
X153648628Y-93448094D01*
X154124819Y-91924285D02*
X154124819Y-92495713D01*
X154124819Y-92209999D02*
X153124819Y-92209999D01*
X153124819Y-92209999D02*
X153267676Y-92305237D01*
X153267676Y-92305237D02*
X153362914Y-92400475D01*
X153362914Y-92400475D02*
X153410533Y-92495713D01*
X156029819Y-92876666D02*
X155553628Y-93209999D01*
X156029819Y-93448094D02*
X155029819Y-93448094D01*
X155029819Y-93448094D02*
X155029819Y-93067142D01*
X155029819Y-93067142D02*
X155077438Y-92971904D01*
X155077438Y-92971904D02*
X155125057Y-92924285D01*
X155125057Y-92924285D02*
X155220295Y-92876666D01*
X155220295Y-92876666D02*
X155363152Y-92876666D01*
X155363152Y-92876666D02*
X155458390Y-92924285D01*
X155458390Y-92924285D02*
X155506009Y-92971904D01*
X155506009Y-92971904D02*
X155553628Y-93067142D01*
X155553628Y-93067142D02*
X155553628Y-93448094D01*
X155125057Y-92495713D02*
X155077438Y-92448094D01*
X155077438Y-92448094D02*
X155029819Y-92352856D01*
X155029819Y-92352856D02*
X155029819Y-92114761D01*
X155029819Y-92114761D02*
X155077438Y-92019523D01*
X155077438Y-92019523D02*
X155125057Y-91971904D01*
X155125057Y-91971904D02*
X155220295Y-91924285D01*
X155220295Y-91924285D02*
X155315533Y-91924285D01*
X155315533Y-91924285D02*
X155458390Y-91971904D01*
X155458390Y-91971904D02*
X156029819Y-92543332D01*
X156029819Y-92543332D02*
X156029819Y-91924285D01*
X157934819Y-99226666D02*
X157458628Y-99559999D01*
X157934819Y-99798094D02*
X156934819Y-99798094D01*
X156934819Y-99798094D02*
X156934819Y-99417142D01*
X156934819Y-99417142D02*
X156982438Y-99321904D01*
X156982438Y-99321904D02*
X157030057Y-99274285D01*
X157030057Y-99274285D02*
X157125295Y-99226666D01*
X157125295Y-99226666D02*
X157268152Y-99226666D01*
X157268152Y-99226666D02*
X157363390Y-99274285D01*
X157363390Y-99274285D02*
X157411009Y-99321904D01*
X157411009Y-99321904D02*
X157458628Y-99417142D01*
X157458628Y-99417142D02*
X157458628Y-99798094D01*
X156934819Y-98369523D02*
X156934819Y-98559999D01*
X156934819Y-98559999D02*
X156982438Y-98655237D01*
X156982438Y-98655237D02*
X157030057Y-98702856D01*
X157030057Y-98702856D02*
X157172914Y-98798094D01*
X157172914Y-98798094D02*
X157363390Y-98845713D01*
X157363390Y-98845713D02*
X157744342Y-98845713D01*
X157744342Y-98845713D02*
X157839580Y-98798094D01*
X157839580Y-98798094D02*
X157887200Y-98750475D01*
X157887200Y-98750475D02*
X157934819Y-98655237D01*
X157934819Y-98655237D02*
X157934819Y-98464761D01*
X157934819Y-98464761D02*
X157887200Y-98369523D01*
X157887200Y-98369523D02*
X157839580Y-98321904D01*
X157839580Y-98321904D02*
X157744342Y-98274285D01*
X157744342Y-98274285D02*
X157506247Y-98274285D01*
X157506247Y-98274285D02*
X157411009Y-98321904D01*
X157411009Y-98321904D02*
X157363390Y-98369523D01*
X157363390Y-98369523D02*
X157315771Y-98464761D01*
X157315771Y-98464761D02*
X157315771Y-98655237D01*
X157315771Y-98655237D02*
X157363390Y-98750475D01*
X157363390Y-98750475D02*
X157411009Y-98798094D01*
X157411009Y-98798094D02*
X157506247Y-98845713D01*
X154124819Y-99226666D02*
X153648628Y-99559999D01*
X154124819Y-99798094D02*
X153124819Y-99798094D01*
X153124819Y-99798094D02*
X153124819Y-99417142D01*
X153124819Y-99417142D02*
X153172438Y-99321904D01*
X153172438Y-99321904D02*
X153220057Y-99274285D01*
X153220057Y-99274285D02*
X153315295Y-99226666D01*
X153315295Y-99226666D02*
X153458152Y-99226666D01*
X153458152Y-99226666D02*
X153553390Y-99274285D01*
X153553390Y-99274285D02*
X153601009Y-99321904D01*
X153601009Y-99321904D02*
X153648628Y-99417142D01*
X153648628Y-99417142D02*
X153648628Y-99798094D01*
X153458152Y-98369523D02*
X154124819Y-98369523D01*
X153077200Y-98607618D02*
X153791485Y-98845713D01*
X153791485Y-98845713D02*
X153791485Y-98226666D01*
X154029580Y-87601541D02*
X154077200Y-87649160D01*
X154077200Y-87649160D02*
X154124819Y-87792017D01*
X154124819Y-87792017D02*
X154124819Y-87887255D01*
X154124819Y-87887255D02*
X154077200Y-88030112D01*
X154077200Y-88030112D02*
X153981961Y-88125350D01*
X153981961Y-88125350D02*
X153886723Y-88172969D01*
X153886723Y-88172969D02*
X153696247Y-88220588D01*
X153696247Y-88220588D02*
X153553390Y-88220588D01*
X153553390Y-88220588D02*
X153362914Y-88172969D01*
X153362914Y-88172969D02*
X153267676Y-88125350D01*
X153267676Y-88125350D02*
X153172438Y-88030112D01*
X153172438Y-88030112D02*
X153124819Y-87887255D01*
X153124819Y-87887255D02*
X153124819Y-87792017D01*
X153124819Y-87792017D02*
X153172438Y-87649160D01*
X153172438Y-87649160D02*
X153220057Y-87601541D01*
X154124819Y-86649160D02*
X154124819Y-87220588D01*
X154124819Y-86934874D02*
X153124819Y-86934874D01*
X153124819Y-86934874D02*
X153267676Y-87030112D01*
X153267676Y-87030112D02*
X153362914Y-87125350D01*
X153362914Y-87125350D02*
X153410533Y-87220588D01*
X157934819Y-92876666D02*
X157458628Y-93209999D01*
X157934819Y-93448094D02*
X156934819Y-93448094D01*
X156934819Y-93448094D02*
X156934819Y-93067142D01*
X156934819Y-93067142D02*
X156982438Y-92971904D01*
X156982438Y-92971904D02*
X157030057Y-92924285D01*
X157030057Y-92924285D02*
X157125295Y-92876666D01*
X157125295Y-92876666D02*
X157268152Y-92876666D01*
X157268152Y-92876666D02*
X157363390Y-92924285D01*
X157363390Y-92924285D02*
X157411009Y-92971904D01*
X157411009Y-92971904D02*
X157458628Y-93067142D01*
X157458628Y-93067142D02*
X157458628Y-93448094D01*
X156934819Y-92543332D02*
X156934819Y-91924285D01*
X156934819Y-91924285D02*
X157315771Y-92257618D01*
X157315771Y-92257618D02*
X157315771Y-92114761D01*
X157315771Y-92114761D02*
X157363390Y-92019523D01*
X157363390Y-92019523D02*
X157411009Y-91971904D01*
X157411009Y-91971904D02*
X157506247Y-91924285D01*
X157506247Y-91924285D02*
X157744342Y-91924285D01*
X157744342Y-91924285D02*
X157839580Y-91971904D01*
X157839580Y-91971904D02*
X157887200Y-92019523D01*
X157887200Y-92019523D02*
X157934819Y-92114761D01*
X157934819Y-92114761D02*
X157934819Y-92400475D01*
X157934819Y-92400475D02*
X157887200Y-92495713D01*
X157887200Y-92495713D02*
X157839580Y-92543332D01*
X155934580Y-87601541D02*
X155982200Y-87649160D01*
X155982200Y-87649160D02*
X156029819Y-87792017D01*
X156029819Y-87792017D02*
X156029819Y-87887255D01*
X156029819Y-87887255D02*
X155982200Y-88030112D01*
X155982200Y-88030112D02*
X155886961Y-88125350D01*
X155886961Y-88125350D02*
X155791723Y-88172969D01*
X155791723Y-88172969D02*
X155601247Y-88220588D01*
X155601247Y-88220588D02*
X155458390Y-88220588D01*
X155458390Y-88220588D02*
X155267914Y-88172969D01*
X155267914Y-88172969D02*
X155172676Y-88125350D01*
X155172676Y-88125350D02*
X155077438Y-88030112D01*
X155077438Y-88030112D02*
X155029819Y-87887255D01*
X155029819Y-87887255D02*
X155029819Y-87792017D01*
X155029819Y-87792017D02*
X155077438Y-87649160D01*
X155077438Y-87649160D02*
X155125057Y-87601541D01*
X155125057Y-87220588D02*
X155077438Y-87172969D01*
X155077438Y-87172969D02*
X155029819Y-87077731D01*
X155029819Y-87077731D02*
X155029819Y-86839636D01*
X155029819Y-86839636D02*
X155077438Y-86744398D01*
X155077438Y-86744398D02*
X155125057Y-86696779D01*
X155125057Y-86696779D02*
X155220295Y-86649160D01*
X155220295Y-86649160D02*
X155315533Y-86649160D01*
X155315533Y-86649160D02*
X155458390Y-86696779D01*
X155458390Y-86696779D02*
X156029819Y-87268207D01*
X156029819Y-87268207D02*
X156029819Y-86649160D01*
D12*
%TO.C,R5*%
X155052500Y-96282742D02*
X155052500Y-96757258D01*
X156097500Y-96282742D02*
X156097500Y-96757258D01*
%TO.C,J1*%
X160622500Y-88795000D02*
X162432500Y-88795000D01*
X160622500Y-88905000D02*
X160622500Y-88795000D01*
X160622500Y-101665000D02*
X160622500Y-90405000D01*
X161782500Y-101665000D02*
X160622500Y-101665000D01*
X164332500Y-88795000D02*
X170632500Y-88795000D01*
X165032500Y-101665000D02*
X170632500Y-101665000D01*
%TO.C,R1*%
X153147500Y-89932742D02*
X153147500Y-90407258D01*
X154192500Y-89932742D02*
X154192500Y-90407258D01*
%TO.C,R2*%
X155052500Y-89932742D02*
X155052500Y-90407258D01*
X156097500Y-89932742D02*
X156097500Y-90407258D01*
%TO.C,J2*%
X146575000Y-83710000D02*
X147955000Y-83710000D01*
X146575000Y-85090000D02*
X146575000Y-83710000D01*
X146575000Y-86360000D02*
X146575000Y-106790000D01*
X146575000Y-86360000D02*
X149335000Y-86360000D01*
X146575000Y-106790000D02*
X149335000Y-106790000D01*
X149335000Y-86360000D02*
X149335000Y-106790000D01*
%TO.C,R6*%
X156957500Y-96282742D02*
X156957500Y-96757258D01*
X158002500Y-96282742D02*
X158002500Y-96757258D01*
%TO.C,R4*%
X153147500Y-96282742D02*
X153147500Y-96757258D01*
X154192500Y-96282742D02*
X154192500Y-96757258D01*
%TO.C,C1*%
X153160000Y-85230580D02*
X153160000Y-84949420D01*
X154180000Y-85230580D02*
X154180000Y-84949420D01*
%TO.C,R3*%
X156957500Y-89932742D02*
X156957500Y-90407258D01*
X158002500Y-89932742D02*
X158002500Y-90407258D01*
%TO.C,C2*%
X155065000Y-85230580D02*
X155065000Y-84949420D01*
X156085000Y-85230580D02*
X156085000Y-84949420D01*
%TD*%
M02*
