%TF.GenerationSoftware,KiCad,Pcbnew,9.0.2+dfsg-1*%
%TF.CreationDate,2025-06-02T16:04:06+08:00*%
%TF.ProjectId,sd,73642e6b-6963-4616-945f-706362585858,rev?*%
%TF.SameCoordinates,Original*%
%TF.FileFunction,Copper,L1,Top*%
%TF.FilePolarity,Positive*%
%FSLAX46Y46*%
G04 Gerber Fmt 4.6, Leading zero omitted, Abs format (unit mm)*
G04 Created by KiCad (PCBNEW 9.0.2+dfsg-1) date 2025-06-02 16:04:06*
%MOMM*%
%LPD*%
G01*
G04 APERTURE LIST*
G04 Aperture macros list*
%AMRoundRect*
0 Rectangle with rounded corners*
0 $1 Rounding radius*
0 $2 $3 $4 $5 $6 $7 $8 $9 X,Y pos of 4 corners*
0 Add a 4 corners polygon primitive as box body*
4,1,4,$2,$3,$4,$5,$6,$7,$8,$9,$2,$3,0*
0 Add four circle primitives for the rounded corners*
1,1,$1+$1,$2,$3*
1,1,$1+$1,$4,$5*
1,1,$1+$1,$6,$7*
1,1,$1+$1,$8,$9*
0 Add four rect primitives between the rounded corners*
20,1,$1+$1,$2,$3,$4,$5,0*
20,1,$1+$1,$4,$5,$6,$7,0*
20,1,$1+$1,$6,$7,$8,$9,0*
20,1,$1+$1,$8,$9,$2,$3,0*%
G04 Aperture macros list end*
%TA.AperFunction,SMDPad,CuDef*%
%ADD10RoundRect,0.200000X-0.275000X0.200000X-0.275000X-0.200000X0.275000X-0.200000X0.275000X0.200000X0*%
%TD*%
%TA.AperFunction,SMDPad,CuDef*%
%ADD11R,1.750000X0.700000*%
%TD*%
%TA.AperFunction,SMDPad,CuDef*%
%ADD12R,1.000000X1.450000*%
%TD*%
%TA.AperFunction,SMDPad,CuDef*%
%ADD13R,1.550000X1.000000*%
%TD*%
%TA.AperFunction,SMDPad,CuDef*%
%ADD14R,1.500000X0.800000*%
%TD*%
%TA.AperFunction,SMDPad,CuDef*%
%ADD15R,1.500000X1.300000*%
%TD*%
%TA.AperFunction,SMDPad,CuDef*%
%ADD16R,1.500000X1.500000*%
%TD*%
%TA.AperFunction,SMDPad,CuDef*%
%ADD17R,1.400000X0.800000*%
%TD*%
%TA.AperFunction,ComponentPad*%
%ADD18R,1.700000X1.700000*%
%TD*%
%TA.AperFunction,ComponentPad*%
%ADD19C,1.700000*%
%TD*%
%TA.AperFunction,ViaPad*%
%ADD20C,0.700000*%
%TD*%
%TA.AperFunction,Conductor*%
%ADD21C,0.228600*%
%TD*%
%TA.AperFunction,Conductor*%
%ADD22C,0.457200*%
%TD*%
G04 APERTURE END LIST*
D10*
%TO.P,R5,1*%
%TO.N,VCC*%
X155575000Y-95695000D03*
%TO.P,R5,2*%
%TO.N,/D1*%
X155575000Y-97345000D03*
%TD*%
D11*
%TO.P,J1,1,DAT2*%
%TO.N,/D2*%
X171757500Y-92055000D03*
%TO.P,J1,2,DAT3/CD*%
%TO.N,/D3*%
X171757500Y-93155000D03*
%TO.P,J1,3,CMD*%
%TO.N,/CMD*%
X171757500Y-94255000D03*
%TO.P,J1,4,VDD*%
%TO.N,VCC*%
X171757500Y-95355000D03*
%TO.P,J1,5,CLK*%
%TO.N,/CLK*%
X171757500Y-96455000D03*
%TO.P,J1,6,VSS*%
%TO.N,GND*%
X171757500Y-97555000D03*
%TO.P,J1,7,DAT0*%
%TO.N,/D0*%
X171757500Y-98655000D03*
%TO.P,J1,8,DAT1*%
%TO.N,/D1*%
X171757500Y-99755000D03*
D12*
%TO.P,J1,9,DET_B*%
%TO.N,GND*%
X162532500Y-100880000D03*
D13*
%TO.P,J1,10,DET_A*%
%TO.N,/DET*%
X160957500Y-89655000D03*
D14*
%TO.P,J1,11,SHIELD*%
%TO.N,GND*%
X164032500Y-101205000D03*
D15*
X171632500Y-100955000D03*
D16*
X171632500Y-89605000D03*
D17*
X163382500Y-89255000D03*
%TD*%
D10*
%TO.P,R1,1*%
%TO.N,VCC*%
X153670000Y-87440000D03*
%TO.P,R1,2*%
%TO.N,/D2*%
X153670000Y-89090000D03*
%TD*%
%TO.P,R2,1*%
%TO.N,VCC*%
X155575000Y-87440000D03*
%TO.P,R2,2*%
%TO.N,/D3*%
X155575000Y-89090000D03*
%TD*%
D18*
%TO.P,J2,1,Pin_1*%
%TO.N,VCC*%
X147955000Y-85090000D03*
D19*
%TO.P,J2,2,Pin_2*%
%TO.N,/D2*%
X147955000Y-87630000D03*
%TO.P,J2,3,Pin_3*%
%TO.N,/D3*%
X147955000Y-90170000D03*
%TO.P,J2,4,Pin_4*%
%TO.N,/CMD*%
X147955000Y-92710000D03*
%TO.P,J2,5,Pin_5*%
%TO.N,/CLK*%
X147955000Y-95250000D03*
%TO.P,J2,6,Pin_6*%
%TO.N,/D0*%
X147955000Y-97790000D03*
%TO.P,J2,7,Pin_7*%
%TO.N,/D1*%
X147955000Y-100330000D03*
%TO.P,J2,8,Pin_8*%
%TO.N,/DET*%
X147955000Y-102870000D03*
%TO.P,J2,9,Pin_9*%
%TO.N,GND*%
X147955000Y-105410000D03*
%TD*%
D10*
%TO.P,R6,1*%
%TO.N,VCC*%
X157480000Y-95695000D03*
%TO.P,R6,2*%
%TO.N,/DET*%
X157480000Y-97345000D03*
%TD*%
%TO.P,R4,1*%
%TO.N,VCC*%
X153670000Y-95695000D03*
%TO.P,R4,2*%
%TO.N,/D0*%
X153670000Y-97345000D03*
%TD*%
%TO.P,R3,1*%
%TO.N,VCC*%
X157480000Y-87440000D03*
%TO.P,R3,2*%
%TO.N,/CMD*%
X157480000Y-89090000D03*
%TD*%
D20*
%TO.N,GND*%
X150495000Y-86995000D03*
X151765000Y-86995000D03*
X151765000Y-88265000D03*
X150495000Y-88265000D03*
X151765000Y-101600000D03*
X150495000Y-101600000D03*
X151765000Y-93980000D03*
X150495000Y-93980000D03*
X150495000Y-99060000D03*
X151765000Y-96520000D03*
X150495000Y-96520000D03*
X168910000Y-89535000D03*
X158115000Y-99060000D03*
X168910000Y-102235000D03*
X170180000Y-102235000D03*
X173990000Y-98425000D03*
X155575000Y-105410000D03*
X163830000Y-99060000D03*
X154305000Y-85090000D03*
X153670000Y-93980000D03*
X167640000Y-102235000D03*
X168275000Y-99060000D03*
X170180000Y-89535000D03*
X154305000Y-105410000D03*
X150495000Y-91440000D03*
X153035000Y-85090000D03*
X151765000Y-91440000D03*
X163830000Y-95250000D03*
X162560000Y-92075000D03*
X153035000Y-105410000D03*
X167640000Y-89535000D03*
X160020000Y-99060000D03*
X173990000Y-96520000D03*
X168275000Y-95250000D03*
X155575000Y-85090000D03*
X155575000Y-93980000D03*
X151765000Y-99060000D03*
X157480000Y-91440000D03*
%TO.N,/CLK*%
X170180000Y-96520000D03*
%TO.N,/D1*%
X170180000Y-99695000D03*
%TO.N,/D3*%
X168910000Y-92710000D03*
%TO.N,/D0*%
X170180000Y-98425000D03*
%TO.N,/CMD*%
X168275000Y-93980000D03*
%TO.N,/D2*%
X169545000Y-91440000D03*
%TO.N,GND*%
X156845000Y-105410000D03*
%TD*%
D21*
%TO.N,/D2*%
X171757500Y-92055000D02*
X170160000Y-92055000D01*
X170160000Y-92055000D02*
X169545000Y-91440000D01*
%TO.N,/D3*%
X169545000Y-92710000D02*
X168910000Y-92710000D01*
%TO.N,/CMD*%
X168275000Y-93980000D02*
X168550000Y-94255000D01*
X168550000Y-94255000D02*
X171757500Y-94255000D01*
%TO.N,/D0*%
X147955000Y-97790000D02*
X149860000Y-97790000D01*
X149860000Y-97790000D02*
X150305000Y-97345000D01*
X150305000Y-97345000D02*
X153670000Y-97345000D01*
D22*
%TO.N,VCC*%
X172720000Y-88265000D02*
X159385000Y-88265000D01*
X159385000Y-88265000D02*
X159385000Y-93790000D01*
X159385000Y-88265000D02*
X158560000Y-87440000D01*
X158560000Y-87440000D02*
X157480000Y-87440000D01*
X157480000Y-95695000D02*
X155575000Y-95695000D01*
X151320000Y-85090000D02*
X153670000Y-87440000D01*
X159385000Y-93790000D02*
X157480000Y-95695000D01*
X155575000Y-87440000D02*
X153670000Y-87440000D01*
X173355000Y-95089700D02*
X173355000Y-88900000D01*
X155575000Y-95695000D02*
X153670000Y-95695000D01*
X171757500Y-95355000D02*
X173089700Y-95355000D01*
X173089700Y-95355000D02*
X173355000Y-95089700D01*
X147955000Y-85090000D02*
X151320000Y-85090000D01*
X173355000Y-88900000D02*
X172720000Y-88265000D01*
X157480000Y-87440000D02*
X155575000Y-87440000D01*
D21*
%TO.N,/CLK*%
X170245000Y-96455000D02*
X170180000Y-96520000D01*
X171757500Y-96455000D02*
X170245000Y-96455000D01*
%TO.N,/D1*%
X155575000Y-97345000D02*
X152590000Y-100330000D01*
X170240000Y-99755000D02*
X170180000Y-99695000D01*
X171757500Y-99755000D02*
X170240000Y-99755000D01*
X152590000Y-100330000D02*
X147955000Y-100330000D01*
%TO.N,/DET*%
X160957500Y-93867500D02*
X160957500Y-89655000D01*
X157480000Y-97345000D02*
X160957500Y-93867500D01*
X147955000Y-102870000D02*
X151955000Y-102870000D01*
X151955000Y-102870000D02*
X157480000Y-97345000D01*
%TO.N,/D3*%
X154495000Y-90170000D02*
X155575000Y-89090000D01*
X147955000Y-90170000D02*
X154495000Y-90170000D01*
X171757500Y-93155000D02*
X169990000Y-93155000D01*
X169990000Y-93155000D02*
X169545000Y-92710000D01*
%TO.N,/D0*%
X171757500Y-98655000D02*
X170410000Y-98655000D01*
X170410000Y-98655000D02*
X170180000Y-98425000D01*
%TO.N,/CMD*%
X147955000Y-92710000D02*
X153860000Y-92710000D01*
X153860000Y-92710000D02*
X157480000Y-89090000D01*
%TO.N,/D2*%
X153670000Y-89090000D02*
X149415000Y-89090000D01*
X149415000Y-89090000D02*
X147955000Y-87630000D01*
%TD*%
%TA.AperFunction,Conductor*%
%TO.N,GND*%
G36*
X156163856Y-83355493D02*
G01*
X156168692Y-83359926D01*
X159933388Y-87124622D01*
X159933389Y-87124622D01*
X159933390Y-87124623D01*
X159957775Y-87134723D01*
X159957776Y-87134724D01*
X159957777Y-87134724D01*
X159989586Y-87147900D01*
X159989587Y-87147900D01*
X160050414Y-87147900D01*
X175860102Y-87147900D01*
X175890069Y-87147900D01*
X175899884Y-87148543D01*
X176009964Y-87163035D01*
X176028920Y-87168114D01*
X176126907Y-87208702D01*
X176143902Y-87218514D01*
X176185973Y-87250796D01*
X176228041Y-87283077D01*
X176241922Y-87296958D01*
X176306483Y-87381094D01*
X176316299Y-87398095D01*
X176356884Y-87496076D01*
X176361965Y-87515038D01*
X176376457Y-87625114D01*
X176377100Y-87634930D01*
X176377100Y-102865069D01*
X176376457Y-102874885D01*
X176361965Y-102984961D01*
X176356884Y-103003923D01*
X176316299Y-103101904D01*
X176306483Y-103118905D01*
X176241922Y-103203041D01*
X176228041Y-103216922D01*
X176143905Y-103281483D01*
X176126904Y-103291299D01*
X176028923Y-103331884D01*
X176009961Y-103336965D01*
X175948558Y-103345049D01*
X175899883Y-103351457D01*
X175890069Y-103352100D01*
X159989586Y-103352100D01*
X159966309Y-103361741D01*
X159966307Y-103361741D01*
X159933391Y-103375376D01*
X159933388Y-103375378D01*
X156168692Y-107140074D01*
X156122072Y-107161814D01*
X156115518Y-107162100D01*
X146689931Y-107162100D01*
X146680116Y-107161457D01*
X146633046Y-107155260D01*
X146570038Y-107146965D01*
X146551076Y-107141884D01*
X146453095Y-107101299D01*
X146436094Y-107091483D01*
X146351958Y-107026922D01*
X146338077Y-107013041D01*
X146273516Y-106928905D01*
X146263702Y-106911907D01*
X146223114Y-106813920D01*
X146218035Y-106794964D01*
X146203543Y-106684884D01*
X146202900Y-106675069D01*
X146202900Y-105311270D01*
X146952600Y-105311270D01*
X146952600Y-105508729D01*
X146991121Y-105702385D01*
X146991122Y-105702388D01*
X147066684Y-105884812D01*
X147145982Y-106003491D01*
X147510086Y-105639386D01*
X147554901Y-105717007D01*
X147647993Y-105810099D01*
X147725611Y-105854912D01*
X147361507Y-106219016D01*
X147480187Y-106298315D01*
X147662611Y-106373877D01*
X147662614Y-106373878D01*
X147856270Y-106412400D01*
X148053730Y-106412400D01*
X148247385Y-106373878D01*
X148247388Y-106373877D01*
X148429816Y-106298313D01*
X148548490Y-106219017D01*
X148548491Y-106219016D01*
X148184387Y-105854912D01*
X148262007Y-105810099D01*
X148355099Y-105717007D01*
X148399912Y-105639387D01*
X148764016Y-106003491D01*
X148764017Y-106003490D01*
X148843313Y-105884816D01*
X148918877Y-105702388D01*
X148918878Y-105702385D01*
X148957400Y-105508729D01*
X148957400Y-105311270D01*
X148918878Y-105117614D01*
X148918877Y-105117611D01*
X148843315Y-104935187D01*
X148764016Y-104816507D01*
X148399912Y-105180611D01*
X148355099Y-105102993D01*
X148262007Y-105009901D01*
X148184387Y-104965087D01*
X148548491Y-104600982D01*
X148429812Y-104521684D01*
X148247388Y-104446122D01*
X148247385Y-104446121D01*
X148053730Y-104407600D01*
X147856270Y-104407600D01*
X147662614Y-104446121D01*
X147662611Y-104446122D01*
X147480184Y-104521685D01*
X147361507Y-104600981D01*
X147361507Y-104600982D01*
X147725612Y-104965087D01*
X147647993Y-105009901D01*
X147554901Y-105102993D01*
X147510087Y-105180612D01*
X147145982Y-104816507D01*
X147145981Y-104816507D01*
X147066685Y-104935184D01*
X146991122Y-105117611D01*
X146991121Y-105117614D01*
X146952600Y-105311270D01*
X146202900Y-105311270D01*
X146202900Y-102771222D01*
X146952100Y-102771222D01*
X146952100Y-102968777D01*
X146990641Y-103162537D01*
X146990642Y-103162538D01*
X147062892Y-103336965D01*
X147066241Y-103345051D01*
X147175996Y-103509312D01*
X147175997Y-103509313D01*
X147176000Y-103509317D01*
X147315682Y-103648999D01*
X147315685Y-103649001D01*
X147315688Y-103649004D01*
X147479949Y-103758759D01*
X147662461Y-103834357D01*
X147662462Y-103834358D01*
X147662463Y-103834358D01*
X147662465Y-103834359D01*
X147792218Y-103860168D01*
X147856222Y-103872900D01*
X147856223Y-103872900D01*
X148053778Y-103872900D01*
X148101889Y-103863329D01*
X148247535Y-103834359D01*
X148430051Y-103758759D01*
X148594312Y-103649004D01*
X148734004Y-103509312D01*
X148843759Y-103345051D01*
X148910625Y-103183620D01*
X148945376Y-103145697D01*
X148980100Y-103137200D01*
X152008147Y-103137200D01*
X152008149Y-103137200D01*
X152106357Y-103096521D01*
X153582866Y-101620012D01*
X161880100Y-101620012D01*
X161888941Y-101664462D01*
X161888942Y-101664464D01*
X161922626Y-101714873D01*
X161973035Y-101748557D01*
X161973037Y-101748558D01*
X162017487Y-101757400D01*
X162380100Y-101757400D01*
X162684900Y-101757400D01*
X163047513Y-101757400D01*
X163091962Y-101748558D01*
X163091964Y-101748557D01*
X163115719Y-101732684D01*
X163165684Y-101720456D01*
X163199281Y-101732684D01*
X163223035Y-101748557D01*
X163223037Y-101748558D01*
X163267487Y-101757400D01*
X163880100Y-101757400D01*
X164184900Y-101757400D01*
X164797513Y-101757400D01*
X164841962Y-101748558D01*
X164841964Y-101748557D01*
X164892373Y-101714873D01*
X164926057Y-101664464D01*
X164926058Y-101664462D01*
X164934900Y-101620012D01*
X170730100Y-101620012D01*
X170738941Y-101664462D01*
X170738942Y-101664464D01*
X170772626Y-101714873D01*
X170823035Y-101748557D01*
X170823037Y-101748558D01*
X170867487Y-101757400D01*
X171480100Y-101757400D01*
X171784900Y-101757400D01*
X172397513Y-101757400D01*
X172441962Y-101748558D01*
X172441964Y-101748557D01*
X172492373Y-101714873D01*
X172526057Y-101664464D01*
X172526058Y-101664462D01*
X172534900Y-101620012D01*
X172534900Y-101107400D01*
X171784900Y-101107400D01*
X171784900Y-101757400D01*
X171480100Y-101757400D01*
X171480100Y-101107400D01*
X170730100Y-101107400D01*
X170730100Y-101620012D01*
X164934900Y-101620012D01*
X164934900Y-101357400D01*
X164184900Y-101357400D01*
X164184900Y-101757400D01*
X163880100Y-101757400D01*
X163880100Y-101052600D01*
X164184900Y-101052600D01*
X164934900Y-101052600D01*
X164934900Y-100789987D01*
X164926058Y-100745537D01*
X164926057Y-100745535D01*
X164892373Y-100695126D01*
X164841964Y-100661442D01*
X164841962Y-100661441D01*
X164797513Y-100652600D01*
X164184900Y-100652600D01*
X164184900Y-101052600D01*
X163880100Y-101052600D01*
X163880100Y-100652600D01*
X163267485Y-100652600D01*
X163267454Y-100652603D01*
X163267442Y-100652600D01*
X163263794Y-100652600D01*
X163263794Y-100651664D01*
X163217628Y-100639821D01*
X163187675Y-100598001D01*
X163184900Y-100577763D01*
X163184900Y-100155000D01*
X164882500Y-100155000D01*
X166882500Y-100155000D01*
X166882500Y-98358792D01*
X169677100Y-98358792D01*
X169677100Y-98491208D01*
X169697662Y-98567950D01*
X169711371Y-98619114D01*
X169777578Y-98733786D01*
X169777582Y-98733792D01*
X169871207Y-98827417D01*
X169871210Y-98827419D01*
X169871212Y-98827421D01*
X169921775Y-98856613D01*
X169985885Y-98893628D01*
X169985887Y-98893628D01*
X169985888Y-98893629D01*
X170113792Y-98927900D01*
X170113794Y-98927900D01*
X170246209Y-98927900D01*
X170274311Y-98920369D01*
X170297089Y-98914266D01*
X170345332Y-98917428D01*
X170356851Y-98922200D01*
X170463149Y-98922200D01*
X170654401Y-98922200D01*
X170702739Y-98939793D01*
X170728459Y-98984342D01*
X170729601Y-98997400D01*
X170729601Y-99020057D01*
X170738472Y-99064659D01*
X170772265Y-99115233D01*
X170772266Y-99115234D01*
X170813031Y-99142472D01*
X170843449Y-99183955D01*
X170840085Y-99235285D01*
X170813033Y-99267525D01*
X170772266Y-99294765D01*
X170738472Y-99345342D01*
X170738472Y-99345343D01*
X170731417Y-99380806D01*
X170704730Y-99424782D01*
X170656019Y-99441315D01*
X170608078Y-99422670D01*
X170592536Y-99403732D01*
X170582420Y-99386210D01*
X170488792Y-99292582D01*
X170488786Y-99292578D01*
X170374114Y-99226371D01*
X170310160Y-99209235D01*
X170246208Y-99192100D01*
X170113792Y-99192100D01*
X170062630Y-99205808D01*
X169985885Y-99226371D01*
X169871213Y-99292578D01*
X169871207Y-99292582D01*
X169777582Y-99386207D01*
X169777578Y-99386213D01*
X169711371Y-99500885D01*
X169697945Y-99550996D01*
X169677100Y-99628792D01*
X169677100Y-99761208D01*
X169697662Y-99837950D01*
X169711371Y-99889114D01*
X169777578Y-100003786D01*
X169777582Y-100003792D01*
X169871207Y-100097417D01*
X169871210Y-100097419D01*
X169871212Y-100097421D01*
X169910417Y-100120056D01*
X169985885Y-100163628D01*
X169985887Y-100163628D01*
X169985888Y-100163629D01*
X170113792Y-100197900D01*
X170113794Y-100197900D01*
X170246206Y-100197900D01*
X170246208Y-100197900D01*
X170374112Y-100163629D01*
X170488788Y-100097421D01*
X170541983Y-100044225D01*
X170556861Y-100037287D01*
X170569437Y-100026735D01*
X170585602Y-100023884D01*
X170588602Y-100022486D01*
X170595157Y-100022200D01*
X170654401Y-100022200D01*
X170702739Y-100039793D01*
X170728459Y-100084342D01*
X170729601Y-100097400D01*
X170729601Y-100120057D01*
X170738472Y-100164659D01*
X170741307Y-100171504D01*
X170739873Y-100172097D01*
X170750037Y-100213640D01*
X170741032Y-100238383D01*
X170741777Y-100238692D01*
X170738941Y-100245537D01*
X170730100Y-100289987D01*
X170730100Y-100802600D01*
X172534900Y-100802600D01*
X172534900Y-100333099D01*
X172552493Y-100284761D01*
X172597042Y-100259041D01*
X172610099Y-100257899D01*
X172647556Y-100257899D01*
X172692158Y-100249028D01*
X172742734Y-100215234D01*
X172776528Y-100164658D01*
X172785400Y-100120057D01*
X172785399Y-99389944D01*
X172776528Y-99345342D01*
X172742734Y-99294766D01*
X172701965Y-99267525D01*
X172671550Y-99226043D01*
X172674914Y-99174714D01*
X172701965Y-99142474D01*
X172742734Y-99115234D01*
X172776528Y-99064658D01*
X172785400Y-99020057D01*
X172785399Y-98289944D01*
X172776528Y-98245342D01*
X172772951Y-98239989D01*
X172742735Y-98194767D01*
X172742734Y-98194766D01*
X172701516Y-98167225D01*
X172671101Y-98125743D01*
X172674465Y-98074414D01*
X172701518Y-98042174D01*
X172742373Y-98014874D01*
X172776057Y-97964464D01*
X172776058Y-97964462D01*
X172784900Y-97920012D01*
X172784900Y-97707400D01*
X170730100Y-97707400D01*
X170730100Y-97920012D01*
X170738941Y-97964462D01*
X170738942Y-97964464D01*
X170772626Y-98014874D01*
X170813481Y-98042173D01*
X170815452Y-98044861D01*
X170818613Y-98045925D01*
X170830456Y-98065324D01*
X170843898Y-98083656D01*
X170843679Y-98086983D01*
X170845417Y-98089829D01*
X170842020Y-98112301D01*
X170840533Y-98134986D01*
X170838085Y-98138333D01*
X170837729Y-98140691D01*
X170830887Y-98148177D01*
X170821437Y-98161103D01*
X170817654Y-98164437D01*
X170772266Y-98194766D01*
X170756498Y-98218364D01*
X170749145Y-98224848D01*
X170733771Y-98230874D01*
X170720450Y-98240641D01*
X170710518Y-98239989D01*
X170701254Y-98243621D01*
X170685602Y-98238355D01*
X170669121Y-98237274D01*
X170661150Y-98230128D01*
X170652499Y-98227218D01*
X170645964Y-98216514D01*
X170634285Y-98206044D01*
X170582421Y-98116212D01*
X170582419Y-98116210D01*
X170582417Y-98116207D01*
X170488792Y-98022582D01*
X170488786Y-98022578D01*
X170374114Y-97956371D01*
X170310160Y-97939235D01*
X170246208Y-97922100D01*
X170113792Y-97922100D01*
X170062630Y-97935808D01*
X169985885Y-97956371D01*
X169871213Y-98022578D01*
X169871207Y-98022582D01*
X169777582Y-98116207D01*
X169777578Y-98116213D01*
X169711371Y-98230885D01*
X169695547Y-98289944D01*
X169677100Y-98358792D01*
X166882500Y-98358792D01*
X166882500Y-91655000D01*
X164882500Y-91655000D01*
X164882500Y-100155000D01*
X163184900Y-100155000D01*
X163184900Y-100139987D01*
X163176058Y-100095537D01*
X163176057Y-100095535D01*
X163142373Y-100045126D01*
X163091964Y-100011442D01*
X163091962Y-100011441D01*
X163047513Y-100002600D01*
X162684900Y-100002600D01*
X162684900Y-101757400D01*
X162380100Y-101757400D01*
X162380100Y-101032400D01*
X161880100Y-101032400D01*
X161880100Y-101620012D01*
X153582866Y-101620012D01*
X155062891Y-100139987D01*
X161880100Y-100139987D01*
X161880100Y-100727600D01*
X162380100Y-100727600D01*
X162380100Y-100002600D01*
X162017487Y-100002600D01*
X161973037Y-100011441D01*
X161973035Y-100011442D01*
X161922626Y-100045126D01*
X161888942Y-100095535D01*
X161888941Y-100095537D01*
X161880100Y-100139987D01*
X155062891Y-100139987D01*
X157282952Y-97919926D01*
X157329572Y-97898186D01*
X157336126Y-97897900D01*
X157788492Y-97897900D01*
X157788494Y-97897900D01*
X157788498Y-97897899D01*
X157788502Y-97897899D01*
X157798245Y-97896479D01*
X157857088Y-97887906D01*
X157962898Y-97836179D01*
X158046179Y-97752898D01*
X158097906Y-97647088D01*
X158107900Y-97578494D01*
X158107900Y-97205000D01*
X160682500Y-97205000D01*
X162532500Y-97205000D01*
X162532500Y-94705000D01*
X160682500Y-94705000D01*
X160682500Y-97205000D01*
X158107900Y-97205000D01*
X158107900Y-97126125D01*
X158125493Y-97077787D01*
X158129926Y-97072951D01*
X160554126Y-94648752D01*
X160554126Y-94648751D01*
X161184021Y-94018857D01*
X161224700Y-93920649D01*
X161224700Y-93814351D01*
X161224700Y-90383099D01*
X161229463Y-90370012D01*
X170730100Y-90370012D01*
X170738941Y-90414462D01*
X170738942Y-90414464D01*
X170772626Y-90464873D01*
X170823035Y-90498557D01*
X170823037Y-90498558D01*
X170867487Y-90507400D01*
X171480100Y-90507400D01*
X171784900Y-90507400D01*
X172397513Y-90507400D01*
X172441962Y-90498558D01*
X172441964Y-90498557D01*
X172492373Y-90464873D01*
X172526057Y-90414464D01*
X172526058Y-90414462D01*
X172534900Y-90370012D01*
X172534900Y-89757400D01*
X171784900Y-89757400D01*
X171784900Y-90507400D01*
X171480100Y-90507400D01*
X171480100Y-89757400D01*
X170730100Y-89757400D01*
X170730100Y-90370012D01*
X161229463Y-90370012D01*
X161242293Y-90334761D01*
X161286842Y-90309041D01*
X161299900Y-90307899D01*
X161747556Y-90307899D01*
X161792158Y-90299028D01*
X161842734Y-90265234D01*
X161876528Y-90214658D01*
X161885400Y-90170057D01*
X161885400Y-89670012D01*
X162530100Y-89670012D01*
X162538941Y-89714462D01*
X162538942Y-89714464D01*
X162572626Y-89764873D01*
X162623035Y-89798557D01*
X162623037Y-89798558D01*
X162667487Y-89807400D01*
X163230100Y-89807400D01*
X163534900Y-89807400D01*
X164097513Y-89807400D01*
X164141962Y-89798558D01*
X164141964Y-89798557D01*
X164192373Y-89764873D01*
X164226057Y-89714464D01*
X164226059Y-89714458D01*
X164226633Y-89711577D01*
X164234899Y-89670014D01*
X164234900Y-89670013D01*
X164234900Y-89407400D01*
X163534900Y-89407400D01*
X163534900Y-89807400D01*
X163230100Y-89807400D01*
X163230100Y-89407400D01*
X162530100Y-89407400D01*
X162530100Y-89670012D01*
X161885400Y-89670012D01*
X161885399Y-89139944D01*
X161876528Y-89095342D01*
X161868025Y-89082617D01*
X161842735Y-89044767D01*
X161829610Y-89035997D01*
X161792158Y-89010972D01*
X161792156Y-89010971D01*
X161747557Y-89002100D01*
X160167444Y-89002100D01*
X160167442Y-89002101D01*
X160122840Y-89010972D01*
X160072267Y-89044764D01*
X160038472Y-89095342D01*
X160038471Y-89095343D01*
X160029600Y-89139942D01*
X160029600Y-90170055D01*
X160029601Y-90170057D01*
X160038472Y-90214659D01*
X160072264Y-90265232D01*
X160072265Y-90265232D01*
X160072266Y-90265234D01*
X160122842Y-90299028D01*
X160167443Y-90307900D01*
X160615100Y-90307899D01*
X160663438Y-90325492D01*
X160689158Y-90370040D01*
X160690300Y-90383099D01*
X160690300Y-93725674D01*
X160672707Y-93774012D01*
X160668274Y-93778848D01*
X157677048Y-96770074D01*
X157630428Y-96791814D01*
X157623874Y-96792100D01*
X157171497Y-96792100D01*
X157102911Y-96802094D01*
X156997099Y-96853822D01*
X156913822Y-96937099D01*
X156862094Y-97042911D01*
X156852100Y-97111497D01*
X156852100Y-97563873D01*
X156834507Y-97612211D01*
X156830074Y-97617047D01*
X151866348Y-102580774D01*
X151819728Y-102602514D01*
X151813174Y-102602800D01*
X148980100Y-102602800D01*
X148931762Y-102585207D01*
X148910625Y-102556379D01*
X148843759Y-102394949D01*
X148734004Y-102230688D01*
X148734001Y-102230685D01*
X148733999Y-102230682D01*
X148594317Y-102091000D01*
X148594313Y-102090997D01*
X148594312Y-102090996D01*
X148430051Y-101981241D01*
X148430049Y-101981240D01*
X148247538Y-101905642D01*
X148247537Y-101905641D01*
X148053778Y-101867100D01*
X148053777Y-101867100D01*
X147856223Y-101867100D01*
X147856222Y-101867100D01*
X147662462Y-101905641D01*
X147662461Y-101905642D01*
X147479950Y-101981240D01*
X147315682Y-102091000D01*
X147176000Y-102230682D01*
X147066240Y-102394950D01*
X146990642Y-102577461D01*
X146990641Y-102577462D01*
X146952100Y-102771222D01*
X146202900Y-102771222D01*
X146202900Y-100231222D01*
X146952100Y-100231222D01*
X146952100Y-100428777D01*
X146990641Y-100622537D01*
X146990642Y-100622538D01*
X147060001Y-100789987D01*
X147066241Y-100805051D01*
X147175996Y-100969312D01*
X147175997Y-100969313D01*
X147176000Y-100969317D01*
X147315682Y-101108999D01*
X147315685Y-101109001D01*
X147315688Y-101109004D01*
X147479949Y-101218759D01*
X147662461Y-101294357D01*
X147662462Y-101294358D01*
X147662463Y-101294358D01*
X147662465Y-101294359D01*
X147792218Y-101320168D01*
X147856222Y-101332900D01*
X147856223Y-101332900D01*
X148053778Y-101332900D01*
X148101889Y-101323329D01*
X148247535Y-101294359D01*
X148430051Y-101218759D01*
X148594312Y-101109004D01*
X148734004Y-100969312D01*
X148843759Y-100805051D01*
X148910625Y-100643620D01*
X148945376Y-100605697D01*
X148980100Y-100597200D01*
X152643147Y-100597200D01*
X152643149Y-100597200D01*
X152741357Y-100556521D01*
X155377952Y-97919926D01*
X155424572Y-97898186D01*
X155431126Y-97897900D01*
X155883492Y-97897900D01*
X155883494Y-97897900D01*
X155883498Y-97897899D01*
X155883502Y-97897899D01*
X155893245Y-97896479D01*
X155952088Y-97887906D01*
X156057898Y-97836179D01*
X156141179Y-97752898D01*
X156192906Y-97647088D01*
X156202900Y-97578494D01*
X156202900Y-97111506D01*
X156192906Y-97042912D01*
X156141179Y-96937102D01*
X156141177Y-96937100D01*
X156141177Y-96937099D01*
X156057900Y-96853822D01*
X156057898Y-96853821D01*
X155952088Y-96802094D01*
X155883502Y-96792100D01*
X155883494Y-96792100D01*
X155266506Y-96792100D01*
X155266497Y-96792100D01*
X155197911Y-96802094D01*
X155092099Y-96853822D01*
X155008822Y-96937099D01*
X154957094Y-97042911D01*
X154947100Y-97111497D01*
X154947100Y-97563873D01*
X154929507Y-97612211D01*
X154925074Y-97617047D01*
X152501348Y-100040774D01*
X152454728Y-100062514D01*
X152448174Y-100062800D01*
X148980100Y-100062800D01*
X148931762Y-100045207D01*
X148910625Y-100016379D01*
X148843759Y-99854949D01*
X148734004Y-99690688D01*
X148734001Y-99690685D01*
X148733999Y-99690682D01*
X148594317Y-99551000D01*
X148594313Y-99550997D01*
X148594312Y-99550996D01*
X148430051Y-99441241D01*
X148430049Y-99441240D01*
X148247538Y-99365642D01*
X148247537Y-99365641D01*
X148053778Y-99327100D01*
X148053777Y-99327100D01*
X147856223Y-99327100D01*
X147856222Y-99327100D01*
X147662462Y-99365641D01*
X147662461Y-99365642D01*
X147479950Y-99441240D01*
X147315682Y-99551000D01*
X147176000Y-99690682D01*
X147066240Y-99854950D01*
X146990642Y-100037461D01*
X146990641Y-100037462D01*
X146952100Y-100231222D01*
X146202900Y-100231222D01*
X146202900Y-97691222D01*
X146952100Y-97691222D01*
X146952100Y-97888777D01*
X146990641Y-98082537D01*
X146990642Y-98082538D01*
X147058077Y-98245342D01*
X147066241Y-98265051D01*
X147175996Y-98429312D01*
X147175997Y-98429313D01*
X147176000Y-98429317D01*
X147315682Y-98568999D01*
X147315685Y-98569001D01*
X147315688Y-98569004D01*
X147479949Y-98678759D01*
X147662461Y-98754357D01*
X147662462Y-98754358D01*
X147662463Y-98754358D01*
X147662465Y-98754359D01*
X147792218Y-98780168D01*
X147856222Y-98792900D01*
X147856223Y-98792900D01*
X148053778Y-98792900D01*
X148101889Y-98783329D01*
X148247535Y-98754359D01*
X148430051Y-98678759D01*
X148594312Y-98569004D01*
X148734004Y-98429312D01*
X148843759Y-98265051D01*
X148910625Y-98103620D01*
X148945376Y-98065697D01*
X148980100Y-98057200D01*
X149913147Y-98057200D01*
X149913149Y-98057200D01*
X150011357Y-98016521D01*
X150393652Y-97634226D01*
X150440272Y-97612486D01*
X150446826Y-97612200D01*
X152988096Y-97612200D01*
X153036434Y-97629793D01*
X153055655Y-97654372D01*
X153103822Y-97752900D01*
X153187099Y-97836177D01*
X153187100Y-97836177D01*
X153187102Y-97836179D01*
X153292912Y-97887906D01*
X153343180Y-97895230D01*
X153361497Y-97897899D01*
X153361502Y-97897899D01*
X153361506Y-97897900D01*
X153361508Y-97897900D01*
X153978492Y-97897900D01*
X153978494Y-97897900D01*
X153978498Y-97897899D01*
X153978502Y-97897899D01*
X153988245Y-97896479D01*
X154047088Y-97887906D01*
X154152898Y-97836179D01*
X154236179Y-97752898D01*
X154287906Y-97647088D01*
X154297900Y-97578494D01*
X154297900Y-97111506D01*
X154287906Y-97042912D01*
X154236179Y-96937102D01*
X154236177Y-96937100D01*
X154236177Y-96937099D01*
X154152900Y-96853822D01*
X154152898Y-96853821D01*
X154047088Y-96802094D01*
X153978502Y-96792100D01*
X153978494Y-96792100D01*
X153361506Y-96792100D01*
X153361497Y-96792100D01*
X153292911Y-96802094D01*
X153187099Y-96853822D01*
X153103822Y-96937099D01*
X153055655Y-97035628D01*
X153018620Y-97071327D01*
X152988096Y-97077800D01*
X150358149Y-97077800D01*
X150251851Y-97077800D01*
X150189919Y-97103452D01*
X150153640Y-97118480D01*
X149771348Y-97500774D01*
X149724728Y-97522514D01*
X149718174Y-97522800D01*
X148980100Y-97522800D01*
X148931762Y-97505207D01*
X148910625Y-97476379D01*
X148843759Y-97314949D01*
X148734004Y-97150688D01*
X148734001Y-97150685D01*
X148733999Y-97150682D01*
X148594317Y-97011000D01*
X148594313Y-97010997D01*
X148594312Y-97010996D01*
X148430051Y-96901241D01*
X148341734Y-96864659D01*
X148247538Y-96825642D01*
X148247537Y-96825641D01*
X148053778Y-96787100D01*
X148053777Y-96787100D01*
X147856223Y-96787100D01*
X147856222Y-96787100D01*
X147662462Y-96825641D01*
X147662461Y-96825642D01*
X147479950Y-96901240D01*
X147315682Y-97011000D01*
X147176000Y-97150682D01*
X147066240Y-97314950D01*
X146990642Y-97497461D01*
X146990641Y-97497462D01*
X146952100Y-97691222D01*
X146202900Y-97691222D01*
X146202900Y-95151222D01*
X146952100Y-95151222D01*
X146952100Y-95348777D01*
X146990641Y-95542537D01*
X146990642Y-95542538D01*
X147064172Y-95720056D01*
X147066241Y-95725051D01*
X147175996Y-95889312D01*
X147175997Y-95889313D01*
X147176000Y-95889317D01*
X147315682Y-96028999D01*
X147315685Y-96029001D01*
X147315688Y-96029004D01*
X147479949Y-96138759D01*
X147662461Y-96214357D01*
X147662462Y-96214358D01*
X147662463Y-96214358D01*
X147662465Y-96214359D01*
X147792218Y-96240168D01*
X147856222Y-96252900D01*
X147856223Y-96252900D01*
X148053778Y-96252900D01*
X148101889Y-96243329D01*
X148247535Y-96214359D01*
X148430051Y-96138759D01*
X148594312Y-96029004D01*
X148734004Y-95889312D01*
X148843759Y-95725051D01*
X148919359Y-95542535D01*
X148957900Y-95348777D01*
X148957900Y-95151223D01*
X148956028Y-95141814D01*
X148925819Y-94989942D01*
X148919359Y-94957465D01*
X148843759Y-94774949D01*
X148734004Y-94610688D01*
X148734001Y-94610685D01*
X148733999Y-94610682D01*
X148594317Y-94471000D01*
X148594313Y-94470997D01*
X148594312Y-94470996D01*
X148430051Y-94361241D01*
X148430049Y-94361240D01*
X148247538Y-94285642D01*
X148247537Y-94285641D01*
X148053778Y-94247100D01*
X148053777Y-94247100D01*
X147856223Y-94247100D01*
X147856222Y-94247100D01*
X147662462Y-94285641D01*
X147662461Y-94285642D01*
X147479950Y-94361240D01*
X147315682Y-94471000D01*
X147176000Y-94610682D01*
X147066240Y-94774950D01*
X146990642Y-94957461D01*
X146990641Y-94957462D01*
X146952100Y-95151222D01*
X146202900Y-95151222D01*
X146202900Y-92611222D01*
X146952100Y-92611222D01*
X146952100Y-92808777D01*
X146990641Y-93002537D01*
X146990642Y-93002538D01*
X147063581Y-93178629D01*
X147066241Y-93185051D01*
X147175996Y-93349312D01*
X147175997Y-93349313D01*
X147176000Y-93349317D01*
X147315682Y-93488999D01*
X147315685Y-93489001D01*
X147315688Y-93489004D01*
X147479949Y-93598759D01*
X147662461Y-93674357D01*
X147662462Y-93674358D01*
X147662463Y-93674358D01*
X147662465Y-93674359D01*
X147792218Y-93700168D01*
X147856222Y-93712900D01*
X147856223Y-93712900D01*
X148053778Y-93712900D01*
X148101889Y-93703329D01*
X148247535Y-93674359D01*
X148430051Y-93598759D01*
X148594312Y-93489004D01*
X148734004Y-93349312D01*
X148843759Y-93185051D01*
X148910625Y-93023620D01*
X148945376Y-92985697D01*
X148980100Y-92977200D01*
X153913147Y-92977200D01*
X153913149Y-92977200D01*
X154011357Y-92936521D01*
X157282952Y-89664926D01*
X157329572Y-89643186D01*
X157336126Y-89642900D01*
X157788492Y-89642900D01*
X157788494Y-89642900D01*
X157788498Y-89642899D01*
X157788502Y-89642899D01*
X157798245Y-89641479D01*
X157857088Y-89632906D01*
X157962898Y-89581179D01*
X158046179Y-89497898D01*
X158097906Y-89392088D01*
X158107900Y-89323494D01*
X158107900Y-88856506D01*
X158106919Y-88849775D01*
X158102046Y-88816327D01*
X158097906Y-88787912D01*
X158046179Y-88682102D01*
X158046177Y-88682100D01*
X158046177Y-88682099D01*
X157962900Y-88598822D01*
X157953767Y-88594357D01*
X157857088Y-88547094D01*
X157788502Y-88537100D01*
X157788494Y-88537100D01*
X157171506Y-88537100D01*
X157171497Y-88537100D01*
X157102911Y-88547094D01*
X156997099Y-88598822D01*
X156913822Y-88682099D01*
X156862094Y-88787911D01*
X156852100Y-88856497D01*
X156852100Y-89308873D01*
X156834507Y-89357211D01*
X156830074Y-89362047D01*
X153771348Y-92420774D01*
X153724728Y-92442514D01*
X153718174Y-92442800D01*
X148980100Y-92442800D01*
X148931762Y-92425207D01*
X148910625Y-92396379D01*
X148843759Y-92234949D01*
X148734004Y-92070688D01*
X148734001Y-92070685D01*
X148733999Y-92070682D01*
X148594317Y-91931000D01*
X148594313Y-91930997D01*
X148594312Y-91930996D01*
X148430051Y-91821241D01*
X148346560Y-91786658D01*
X148247538Y-91745642D01*
X148247537Y-91745641D01*
X148053778Y-91707100D01*
X148053777Y-91707100D01*
X147856223Y-91707100D01*
X147856222Y-91707100D01*
X147662462Y-91745641D01*
X147662461Y-91745642D01*
X147479950Y-91821240D01*
X147315682Y-91931000D01*
X147176000Y-92070682D01*
X147066240Y-92234950D01*
X146990642Y-92417461D01*
X146990641Y-92417462D01*
X146952100Y-92611222D01*
X146202900Y-92611222D01*
X146202900Y-90071222D01*
X146952100Y-90071222D01*
X146952100Y-90268777D01*
X146990641Y-90462537D01*
X146990642Y-90462538D01*
X147066240Y-90645049D01*
X147066241Y-90645051D01*
X147175996Y-90809312D01*
X147175997Y-90809313D01*
X147176000Y-90809317D01*
X147315682Y-90948999D01*
X147315685Y-90949001D01*
X147315688Y-90949004D01*
X147479949Y-91058759D01*
X147662461Y-91134357D01*
X147662462Y-91134358D01*
X147662463Y-91134358D01*
X147662465Y-91134359D01*
X147792218Y-91160168D01*
X147856222Y-91172900D01*
X147856223Y-91172900D01*
X148053778Y-91172900D01*
X148101889Y-91163329D01*
X148247535Y-91134359D01*
X148430051Y-91058759D01*
X148594312Y-90949004D01*
X148734004Y-90809312D01*
X148843759Y-90645051D01*
X148910625Y-90483620D01*
X148945376Y-90445697D01*
X148980100Y-90437200D01*
X154548147Y-90437200D01*
X154548149Y-90437200D01*
X154646357Y-90396521D01*
X155377952Y-89664926D01*
X155424572Y-89643186D01*
X155431126Y-89642900D01*
X155883492Y-89642900D01*
X155883494Y-89642900D01*
X155883498Y-89642899D01*
X155883502Y-89642899D01*
X155893245Y-89641479D01*
X155952088Y-89632906D01*
X156057898Y-89581179D01*
X156141179Y-89497898D01*
X156192906Y-89392088D01*
X156202900Y-89323494D01*
X156202900Y-88856506D01*
X156201919Y-88849775D01*
X156197046Y-88816327D01*
X156192906Y-88787912D01*
X156141179Y-88682102D01*
X156141177Y-88682100D01*
X156141177Y-88682099D01*
X156057900Y-88598822D01*
X156048767Y-88594357D01*
X155952088Y-88547094D01*
X155883502Y-88537100D01*
X155883494Y-88537100D01*
X155266506Y-88537100D01*
X155266497Y-88537100D01*
X155197911Y-88547094D01*
X155092099Y-88598822D01*
X155008822Y-88682099D01*
X154957094Y-88787911D01*
X154947100Y-88856497D01*
X154947100Y-89308873D01*
X154929507Y-89357211D01*
X154925074Y-89362047D01*
X154406348Y-89880774D01*
X154359728Y-89902514D01*
X154353174Y-89902800D01*
X148980100Y-89902800D01*
X148931762Y-89885207D01*
X148910625Y-89856379D01*
X148843759Y-89694949D01*
X148734004Y-89530688D01*
X148734001Y-89530685D01*
X148733999Y-89530682D01*
X148594317Y-89391000D01*
X148594313Y-89390997D01*
X148594312Y-89390996D01*
X148430051Y-89281241D01*
X148430049Y-89281240D01*
X148247538Y-89205642D01*
X148247537Y-89205641D01*
X148053778Y-89167100D01*
X148053777Y-89167100D01*
X147856223Y-89167100D01*
X147856222Y-89167100D01*
X147662462Y-89205641D01*
X147662461Y-89205642D01*
X147479950Y-89281240D01*
X147315682Y-89391000D01*
X147176000Y-89530682D01*
X147066240Y-89694950D01*
X146990642Y-89877461D01*
X146990641Y-89877462D01*
X146952100Y-90071222D01*
X146202900Y-90071222D01*
X146202900Y-87531222D01*
X146952100Y-87531222D01*
X146952100Y-87728777D01*
X146990641Y-87922537D01*
X146990642Y-87922538D01*
X147066240Y-88105049D01*
X147066241Y-88105051D01*
X147175996Y-88269312D01*
X147175997Y-88269313D01*
X147176000Y-88269317D01*
X147315682Y-88408999D01*
X147315685Y-88409001D01*
X147315688Y-88409004D01*
X147479949Y-88518759D01*
X147662461Y-88594357D01*
X147662462Y-88594358D01*
X147662463Y-88594358D01*
X147662465Y-88594359D01*
X147792218Y-88620168D01*
X147856222Y-88632900D01*
X147856223Y-88632900D01*
X148053778Y-88632900D01*
X148101889Y-88623329D01*
X148247535Y-88594359D01*
X148408967Y-88527491D01*
X148460355Y-88525248D01*
X148490916Y-88543794D01*
X149263640Y-89316519D01*
X149263641Y-89316519D01*
X149263643Y-89316521D01*
X149361851Y-89357200D01*
X149468149Y-89357200D01*
X152988096Y-89357200D01*
X153036434Y-89374793D01*
X153055655Y-89399372D01*
X153103822Y-89497900D01*
X153187099Y-89581177D01*
X153187100Y-89581177D01*
X153187102Y-89581179D01*
X153292912Y-89632906D01*
X153343180Y-89640230D01*
X153361497Y-89642899D01*
X153361502Y-89642899D01*
X153361506Y-89642900D01*
X153361508Y-89642900D01*
X153978492Y-89642900D01*
X153978494Y-89642900D01*
X153978498Y-89642899D01*
X153978502Y-89642899D01*
X153988245Y-89641479D01*
X154047088Y-89632906D01*
X154152898Y-89581179D01*
X154236179Y-89497898D01*
X154287906Y-89392088D01*
X154297900Y-89323494D01*
X154297900Y-88856506D01*
X154296919Y-88849775D01*
X154292046Y-88816327D01*
X154287906Y-88787912D01*
X154236179Y-88682102D01*
X154236177Y-88682100D01*
X154236177Y-88682099D01*
X154152900Y-88598822D01*
X154143767Y-88594357D01*
X154047088Y-88547094D01*
X153978502Y-88537100D01*
X153978494Y-88537100D01*
X153361506Y-88537100D01*
X153361497Y-88537100D01*
X153292911Y-88547094D01*
X153187099Y-88598822D01*
X153103822Y-88682099D01*
X153055655Y-88780628D01*
X153018620Y-88816327D01*
X152988096Y-88822800D01*
X149556826Y-88822800D01*
X149508488Y-88805207D01*
X149503652Y-88800774D01*
X148868794Y-88165916D01*
X148847054Y-88119296D01*
X148852491Y-88083969D01*
X148919359Y-87922535D01*
X148957900Y-87728777D01*
X148957900Y-87531223D01*
X148919359Y-87337465D01*
X148843759Y-87154949D01*
X148734004Y-86990688D01*
X148734001Y-86990685D01*
X148733999Y-86990682D01*
X148594317Y-86851000D01*
X148594313Y-86850997D01*
X148594312Y-86850996D01*
X148430051Y-86741241D01*
X148430049Y-86741240D01*
X148247538Y-86665642D01*
X148247537Y-86665641D01*
X148053778Y-86627100D01*
X148053777Y-86627100D01*
X147856223Y-86627100D01*
X147856222Y-86627100D01*
X147662462Y-86665641D01*
X147662461Y-86665642D01*
X147479950Y-86741240D01*
X147315682Y-86851000D01*
X147176000Y-86990682D01*
X147066240Y-87154950D01*
X146990642Y-87337461D01*
X146990641Y-87337462D01*
X146952100Y-87531222D01*
X146202900Y-87531222D01*
X146202900Y-84224942D01*
X146952100Y-84224942D01*
X146952100Y-85955055D01*
X146952101Y-85955057D01*
X146960972Y-85999659D01*
X146994764Y-86050232D01*
X146994765Y-86050232D01*
X146994766Y-86050234D01*
X147045342Y-86084028D01*
X147089943Y-86092900D01*
X148820056Y-86092899D01*
X148864658Y-86084028D01*
X148915234Y-86050234D01*
X148949028Y-85999658D01*
X148957900Y-85955057D01*
X148957900Y-85546700D01*
X148975493Y-85498362D01*
X149020042Y-85472642D01*
X149033100Y-85471500D01*
X151130829Y-85471500D01*
X151179167Y-85489093D01*
X151184003Y-85493526D01*
X153020074Y-87329597D01*
X153041814Y-87376217D01*
X153042100Y-87382771D01*
X153042100Y-87673502D01*
X153052094Y-87742088D01*
X153103822Y-87847900D01*
X153187099Y-87931177D01*
X153187100Y-87931177D01*
X153187102Y-87931179D01*
X153292912Y-87982906D01*
X153343180Y-87990230D01*
X153361497Y-87992899D01*
X153361502Y-87992899D01*
X153361506Y-87992900D01*
X153361508Y-87992900D01*
X153978492Y-87992900D01*
X153978494Y-87992900D01*
X153978498Y-87992899D01*
X153978502Y-87992899D01*
X153988245Y-87991479D01*
X154047088Y-87982906D01*
X154152898Y-87931179D01*
X154174578Y-87909499D01*
X154240552Y-87843526D01*
X154287172Y-87821786D01*
X154293726Y-87821500D01*
X154951274Y-87821500D01*
X154999612Y-87839093D01*
X155004448Y-87843526D01*
X155092099Y-87931177D01*
X155092100Y-87931177D01*
X155092102Y-87931179D01*
X155197912Y-87982906D01*
X155248180Y-87990230D01*
X155266497Y-87992899D01*
X155266502Y-87992899D01*
X155266506Y-87992900D01*
X155266508Y-87992900D01*
X155883492Y-87992900D01*
X155883494Y-87992900D01*
X155883498Y-87992899D01*
X155883502Y-87992899D01*
X155893245Y-87991479D01*
X155952088Y-87982906D01*
X156057898Y-87931179D01*
X156079578Y-87909499D01*
X156145552Y-87843526D01*
X156192172Y-87821786D01*
X156198726Y-87821500D01*
X156856274Y-87821500D01*
X156904612Y-87839093D01*
X156909448Y-87843526D01*
X156997099Y-87931177D01*
X156997100Y-87931177D01*
X156997102Y-87931179D01*
X157102912Y-87982906D01*
X157153180Y-87990230D01*
X157171497Y-87992899D01*
X157171502Y-87992899D01*
X157171506Y-87992900D01*
X157171508Y-87992900D01*
X157788492Y-87992900D01*
X157788494Y-87992900D01*
X157788498Y-87992899D01*
X157788502Y-87992899D01*
X157798245Y-87991479D01*
X157857088Y-87982906D01*
X157962898Y-87931179D01*
X157984578Y-87909499D01*
X158050552Y-87843526D01*
X158097172Y-87821786D01*
X158103726Y-87821500D01*
X158370829Y-87821500D01*
X158419167Y-87839093D01*
X158424003Y-87843526D01*
X158981474Y-88400997D01*
X159003214Y-88447617D01*
X159003500Y-88454171D01*
X159003500Y-93600829D01*
X158985907Y-93649167D01*
X158981474Y-93654003D01*
X157515403Y-95120074D01*
X157468783Y-95141814D01*
X157462229Y-95142100D01*
X157171497Y-95142100D01*
X157102911Y-95152094D01*
X156997099Y-95203822D01*
X156909448Y-95291474D01*
X156862828Y-95313214D01*
X156856274Y-95313500D01*
X156198726Y-95313500D01*
X156150388Y-95295907D01*
X156145552Y-95291474D01*
X156057900Y-95203822D01*
X156057898Y-95203821D01*
X155952088Y-95152094D01*
X155883502Y-95142100D01*
X155883494Y-95142100D01*
X155266506Y-95142100D01*
X155266497Y-95142100D01*
X155197911Y-95152094D01*
X155092099Y-95203822D01*
X155004448Y-95291474D01*
X154957828Y-95313214D01*
X154951274Y-95313500D01*
X154293726Y-95313500D01*
X154245388Y-95295907D01*
X154240552Y-95291474D01*
X154152900Y-95203822D01*
X154152898Y-95203821D01*
X154047088Y-95152094D01*
X153978502Y-95142100D01*
X153978494Y-95142100D01*
X153361506Y-95142100D01*
X153361497Y-95142100D01*
X153292911Y-95152094D01*
X153187099Y-95203822D01*
X153103822Y-95287099D01*
X153052094Y-95392911D01*
X153042100Y-95461497D01*
X153042100Y-95928502D01*
X153052094Y-95997088D01*
X153103822Y-96102900D01*
X153187099Y-96186177D01*
X153187100Y-96186177D01*
X153187102Y-96186179D01*
X153292912Y-96237906D01*
X153343180Y-96245230D01*
X153361497Y-96247899D01*
X153361502Y-96247899D01*
X153361506Y-96247900D01*
X153361508Y-96247900D01*
X153978492Y-96247900D01*
X153978494Y-96247900D01*
X153978498Y-96247899D01*
X153978502Y-96247899D01*
X153988245Y-96246479D01*
X154047088Y-96237906D01*
X154152898Y-96186179D01*
X154188877Y-96150200D01*
X154240552Y-96098526D01*
X154287172Y-96076786D01*
X154293726Y-96076500D01*
X154951274Y-96076500D01*
X154999612Y-96094093D01*
X155004448Y-96098526D01*
X155092099Y-96186177D01*
X155092100Y-96186177D01*
X155092102Y-96186179D01*
X155197912Y-96237906D01*
X155248180Y-96245230D01*
X155266497Y-96247899D01*
X155266502Y-96247899D01*
X155266506Y-96247900D01*
X155266508Y-96247900D01*
X155883492Y-96247900D01*
X155883494Y-96247900D01*
X155883498Y-96247899D01*
X155883502Y-96247899D01*
X155893245Y-96246479D01*
X155952088Y-96237906D01*
X156057898Y-96186179D01*
X156093877Y-96150200D01*
X156145552Y-96098526D01*
X156192172Y-96076786D01*
X156198726Y-96076500D01*
X156856274Y-96076500D01*
X156904612Y-96094093D01*
X156909448Y-96098526D01*
X156997099Y-96186177D01*
X156997100Y-96186177D01*
X156997102Y-96186179D01*
X157102912Y-96237906D01*
X157153180Y-96245230D01*
X157171497Y-96247899D01*
X157171502Y-96247899D01*
X157171506Y-96247900D01*
X157171508Y-96247900D01*
X157788492Y-96247900D01*
X157788494Y-96247900D01*
X157788498Y-96247899D01*
X157788502Y-96247899D01*
X157798245Y-96246479D01*
X157857088Y-96237906D01*
X157962898Y-96186179D01*
X158046179Y-96102898D01*
X158097906Y-95997088D01*
X158107900Y-95928494D01*
X158107900Y-95637771D01*
X158125493Y-95589433D01*
X158129926Y-95584597D01*
X159690276Y-94024247D01*
X159740501Y-93937255D01*
X159740502Y-93937253D01*
X159766500Y-93840225D01*
X159766500Y-93739775D01*
X159766500Y-88721700D01*
X159784093Y-88673362D01*
X159828642Y-88647642D01*
X159841700Y-88646500D01*
X162497836Y-88646500D01*
X162546174Y-88664093D01*
X162571894Y-88708642D01*
X162562961Y-88759300D01*
X162560362Y-88763480D01*
X162538942Y-88795535D01*
X162538941Y-88795537D01*
X162530100Y-88839987D01*
X162530100Y-89102600D01*
X164234900Y-89102600D01*
X164234900Y-88839987D01*
X164226058Y-88795537D01*
X164226057Y-88795535D01*
X164204638Y-88763480D01*
X164192411Y-88713514D01*
X164215162Y-88667379D01*
X164262245Y-88646661D01*
X164267164Y-88646500D01*
X170697836Y-88646500D01*
X170746174Y-88664093D01*
X170771894Y-88708642D01*
X170762961Y-88759300D01*
X170760362Y-88763480D01*
X170738942Y-88795535D01*
X170738941Y-88795537D01*
X170730100Y-88839987D01*
X170730100Y-89452600D01*
X172534900Y-89452600D01*
X172534900Y-88839987D01*
X172528496Y-88807793D01*
X172536321Y-88756952D01*
X172574995Y-88723035D01*
X172626423Y-88721913D01*
X172655425Y-88739948D01*
X172951474Y-89035997D01*
X172973214Y-89082617D01*
X172973500Y-89089171D01*
X172973500Y-94898300D01*
X172955907Y-94946638D01*
X172911358Y-94972358D01*
X172898300Y-94973500D01*
X172835538Y-94973500D01*
X172787200Y-94955907D01*
X172781932Y-94951039D01*
X172776578Y-94945597D01*
X172776528Y-94945342D01*
X172742734Y-94894766D01*
X172695551Y-94863239D01*
X172690140Y-94857739D01*
X172682471Y-94840938D01*
X172671550Y-94826043D01*
X172672067Y-94818144D01*
X172668781Y-94810944D01*
X172673706Y-94793144D01*
X172674914Y-94774714D01*
X172680720Y-94767793D01*
X172682499Y-94761367D01*
X172691051Y-94755481D01*
X172701965Y-94742474D01*
X172742734Y-94715234D01*
X172776528Y-94664658D01*
X172785400Y-94620057D01*
X172785399Y-93889944D01*
X172776528Y-93845342D01*
X172755820Y-93814351D01*
X172742735Y-93794767D01*
X172742734Y-93794766D01*
X172701965Y-93767525D01*
X172671550Y-93726043D01*
X172674914Y-93674714D01*
X172701965Y-93642474D01*
X172742734Y-93615234D01*
X172776528Y-93564658D01*
X172785400Y-93520057D01*
X172785399Y-92789944D01*
X172776528Y-92745342D01*
X172742734Y-92694766D01*
X172701965Y-92667525D01*
X172671550Y-92626043D01*
X172674914Y-92574714D01*
X172701965Y-92542474D01*
X172742734Y-92515234D01*
X172776528Y-92464658D01*
X172785400Y-92420057D01*
X172785399Y-91689944D01*
X172776528Y-91645342D01*
X172769024Y-91634112D01*
X172742735Y-91594767D01*
X172742731Y-91594764D01*
X172692158Y-91560972D01*
X172692156Y-91560971D01*
X172647557Y-91552100D01*
X170867444Y-91552100D01*
X170867442Y-91552101D01*
X170822840Y-91560972D01*
X170772267Y-91594764D01*
X170738472Y-91645342D01*
X170738471Y-91645343D01*
X170729600Y-91689942D01*
X170729600Y-91712600D01*
X170712007Y-91760938D01*
X170667458Y-91786658D01*
X170654400Y-91787800D01*
X170301826Y-91787800D01*
X170253488Y-91770207D01*
X170248652Y-91765774D01*
X170066171Y-91583293D01*
X170044431Y-91536673D01*
X170046707Y-91510658D01*
X170047900Y-91506208D01*
X170047900Y-91373792D01*
X170013629Y-91245888D01*
X170013628Y-91245887D01*
X170013628Y-91245885D01*
X169971489Y-91172900D01*
X169947421Y-91131212D01*
X169947419Y-91131210D01*
X169947417Y-91131207D01*
X169853792Y-91037582D01*
X169853786Y-91037578D01*
X169739114Y-90971371D01*
X169655635Y-90949004D01*
X169611208Y-90937100D01*
X169478792Y-90937100D01*
X169434365Y-90949004D01*
X169350885Y-90971371D01*
X169236213Y-91037578D01*
X169236207Y-91037582D01*
X169142582Y-91131207D01*
X169142578Y-91131213D01*
X169076371Y-91245885D01*
X169055808Y-91322630D01*
X169042100Y-91373792D01*
X169042100Y-91506208D01*
X169056774Y-91560972D01*
X169076371Y-91634114D01*
X169142578Y-91748786D01*
X169142582Y-91748792D01*
X169236207Y-91842417D01*
X169236210Y-91842419D01*
X169236212Y-91842421D01*
X169286775Y-91871613D01*
X169350885Y-91908628D01*
X169350887Y-91908628D01*
X169350888Y-91908629D01*
X169478792Y-91942900D01*
X169478794Y-91942900D01*
X169611204Y-91942900D01*
X169611208Y-91942900D01*
X169615655Y-91941708D01*
X169666897Y-91946189D01*
X169688290Y-91961168D01*
X170008643Y-92281521D01*
X170106851Y-92322200D01*
X170213149Y-92322200D01*
X170654401Y-92322200D01*
X170702739Y-92339793D01*
X170728459Y-92384342D01*
X170729601Y-92397400D01*
X170729601Y-92420057D01*
X170738472Y-92464659D01*
X170772265Y-92515233D01*
X170772266Y-92515234D01*
X170813031Y-92542472D01*
X170843449Y-92583955D01*
X170840085Y-92635285D01*
X170813033Y-92667525D01*
X170772266Y-92694765D01*
X170738472Y-92745342D01*
X170738471Y-92745343D01*
X170729600Y-92789942D01*
X170729600Y-92812600D01*
X170712007Y-92860938D01*
X170667458Y-92886658D01*
X170654400Y-92887800D01*
X170131826Y-92887800D01*
X170083488Y-92870207D01*
X170078652Y-92865774D01*
X169696359Y-92483480D01*
X169650921Y-92464659D01*
X169598149Y-92442800D01*
X169598148Y-92442800D01*
X169379849Y-92442800D01*
X169331511Y-92425207D01*
X169314723Y-92405199D01*
X169312420Y-92401210D01*
X169218792Y-92307582D01*
X169218786Y-92307578D01*
X169104114Y-92241371D01*
X169040160Y-92224235D01*
X168976208Y-92207100D01*
X168843792Y-92207100D01*
X168792630Y-92220808D01*
X168715885Y-92241371D01*
X168601213Y-92307578D01*
X168601207Y-92307582D01*
X168507582Y-92401207D01*
X168507578Y-92401213D01*
X168441371Y-92515885D01*
X168432491Y-92549028D01*
X168407100Y-92643792D01*
X168407100Y-92776208D01*
X168415827Y-92808777D01*
X168441371Y-92904114D01*
X168507578Y-93018786D01*
X168507582Y-93018792D01*
X168601207Y-93112417D01*
X168601210Y-93112419D01*
X168601212Y-93112421D01*
X168651775Y-93141613D01*
X168715885Y-93178628D01*
X168715887Y-93178628D01*
X168715888Y-93178629D01*
X168843792Y-93212900D01*
X168843794Y-93212900D01*
X168976206Y-93212900D01*
X168976208Y-93212900D01*
X169104112Y-93178629D01*
X169218788Y-93112421D01*
X169312421Y-93018788D01*
X169314723Y-93014801D01*
X169338401Y-92994933D01*
X169354129Y-92981735D01*
X169379849Y-92977200D01*
X169403174Y-92977200D01*
X169451512Y-92994793D01*
X169456348Y-92999226D01*
X169838640Y-93381519D01*
X169838641Y-93381519D01*
X169838643Y-93381521D01*
X169936851Y-93422200D01*
X170043149Y-93422200D01*
X170654401Y-93422200D01*
X170702739Y-93439793D01*
X170728459Y-93484342D01*
X170729601Y-93497400D01*
X170729601Y-93520057D01*
X170738472Y-93564659D01*
X170772265Y-93615233D01*
X170772266Y-93615234D01*
X170813031Y-93642472D01*
X170843449Y-93683955D01*
X170840085Y-93735285D01*
X170813033Y-93767525D01*
X170772266Y-93794765D01*
X170738472Y-93845342D01*
X170738471Y-93845343D01*
X170729600Y-93889942D01*
X170729600Y-93912600D01*
X170712007Y-93960938D01*
X170667458Y-93986658D01*
X170654400Y-93987800D01*
X168853100Y-93987800D01*
X168804762Y-93970207D01*
X168779042Y-93925658D01*
X168778210Y-93916144D01*
X168777900Y-93913798D01*
X168777900Y-93913792D01*
X168743629Y-93785888D01*
X168743628Y-93785887D01*
X168743628Y-93785885D01*
X168684778Y-93683955D01*
X168677421Y-93671212D01*
X168677419Y-93671210D01*
X168677417Y-93671207D01*
X168583792Y-93577582D01*
X168583786Y-93577578D01*
X168469114Y-93511371D01*
X168385635Y-93489004D01*
X168341208Y-93477100D01*
X168208792Y-93477100D01*
X168164365Y-93489004D01*
X168080885Y-93511371D01*
X167966213Y-93577578D01*
X167966207Y-93577582D01*
X167872582Y-93671207D01*
X167872578Y-93671213D01*
X167806371Y-93785885D01*
X167791812Y-93840225D01*
X167772100Y-93913792D01*
X167772100Y-94046208D01*
X167792662Y-94122950D01*
X167806371Y-94174114D01*
X167872578Y-94288786D01*
X167872582Y-94288792D01*
X167966207Y-94382417D01*
X167966210Y-94382419D01*
X167966212Y-94382421D01*
X168016775Y-94411613D01*
X168080885Y-94448628D01*
X168080887Y-94448628D01*
X168080888Y-94448629D01*
X168208792Y-94482900D01*
X168208794Y-94482900D01*
X168341204Y-94482900D01*
X168341208Y-94482900D01*
X168353447Y-94479620D01*
X168401684Y-94482780D01*
X168496851Y-94522200D01*
X170654401Y-94522200D01*
X170702739Y-94539793D01*
X170728459Y-94584342D01*
X170729601Y-94597400D01*
X170729601Y-94620057D01*
X170738472Y-94664659D01*
X170772265Y-94715233D01*
X170772266Y-94715234D01*
X170813031Y-94742472D01*
X170843449Y-94783955D01*
X170840085Y-94835285D01*
X170813033Y-94867525D01*
X170772266Y-94894765D01*
X170738472Y-94945342D01*
X170738471Y-94945343D01*
X170729600Y-94989942D01*
X170729600Y-95720055D01*
X170729601Y-95720057D01*
X170738472Y-95764659D01*
X170772265Y-95815233D01*
X170772266Y-95815234D01*
X170813031Y-95842472D01*
X170843449Y-95883955D01*
X170840085Y-95935285D01*
X170813033Y-95967525D01*
X170772266Y-95994765D01*
X170738472Y-96045342D01*
X170738471Y-96045343D01*
X170729600Y-96089942D01*
X170729600Y-96112600D01*
X170722917Y-96130959D01*
X170719525Y-96150200D01*
X170714328Y-96154560D01*
X170712007Y-96160938D01*
X170695084Y-96170707D01*
X170680120Y-96183265D01*
X170670351Y-96184987D01*
X170667458Y-96186658D01*
X170654400Y-96187800D01*
X170590157Y-96187800D01*
X170541819Y-96170207D01*
X170536993Y-96165784D01*
X170488788Y-96117579D01*
X170463360Y-96102898D01*
X170374114Y-96051371D01*
X170290635Y-96029004D01*
X170246208Y-96017100D01*
X170113792Y-96017100D01*
X170069365Y-96029004D01*
X169985885Y-96051371D01*
X169871213Y-96117578D01*
X169871207Y-96117582D01*
X169777582Y-96211207D01*
X169777578Y-96211213D01*
X169711371Y-96325885D01*
X169690808Y-96402630D01*
X169677100Y-96453792D01*
X169677100Y-96586208D01*
X169697662Y-96662950D01*
X169711371Y-96714114D01*
X169777578Y-96828786D01*
X169777582Y-96828792D01*
X169871207Y-96922417D01*
X169871210Y-96922419D01*
X169871212Y-96922421D01*
X169906461Y-96942772D01*
X169985885Y-96988628D01*
X169985887Y-96988628D01*
X169985888Y-96988629D01*
X170113792Y-97022900D01*
X170113794Y-97022900D01*
X170246206Y-97022900D01*
X170246208Y-97022900D01*
X170374112Y-96988629D01*
X170488788Y-96922421D01*
X170582421Y-96828788D01*
X170593277Y-96809983D01*
X170632681Y-96776918D01*
X170684121Y-96776916D01*
X170723527Y-96809980D01*
X170732158Y-96832912D01*
X170738472Y-96864659D01*
X170762915Y-96901240D01*
X170772266Y-96915234D01*
X170813480Y-96942772D01*
X170843898Y-96984255D01*
X170840534Y-97035585D01*
X170813483Y-97067824D01*
X170772626Y-97095125D01*
X170738942Y-97145535D01*
X170738941Y-97145537D01*
X170730100Y-97189987D01*
X170730100Y-97402600D01*
X172784900Y-97402600D01*
X172784900Y-97189987D01*
X172776058Y-97145537D01*
X172776057Y-97145535D01*
X172742373Y-97095125D01*
X172701518Y-97067826D01*
X172671101Y-97026343D01*
X172674466Y-96975013D01*
X172701516Y-96942774D01*
X172742734Y-96915234D01*
X172776528Y-96864658D01*
X172785400Y-96820057D01*
X172785399Y-96089944D01*
X172776528Y-96045342D01*
X172765611Y-96029004D01*
X172742735Y-95994767D01*
X172742734Y-95994766D01*
X172701965Y-95967525D01*
X172671550Y-95926043D01*
X172674914Y-95874714D01*
X172690140Y-95852261D01*
X172695551Y-95846760D01*
X172742734Y-95815234D01*
X172776528Y-95764658D01*
X172776578Y-95764402D01*
X172781932Y-95758961D01*
X172799130Y-95750769D01*
X172814495Y-95739504D01*
X172826333Y-95737814D01*
X172828374Y-95736842D01*
X172830067Y-95737280D01*
X172835538Y-95736500D01*
X173139922Y-95736500D01*
X173139925Y-95736500D01*
X173236954Y-95710501D01*
X173323947Y-95660276D01*
X173394976Y-95589247D01*
X173660276Y-95323947D01*
X173710502Y-95236953D01*
X173736500Y-95139925D01*
X173736500Y-95039475D01*
X173736500Y-88956293D01*
X173736501Y-88956280D01*
X173736501Y-88849777D01*
X173736501Y-88849775D01*
X173710502Y-88752747D01*
X173710499Y-88752742D01*
X173710498Y-88752739D01*
X173660276Y-88665752D01*
X172954251Y-87959727D01*
X172954245Y-87959723D01*
X172904805Y-87931179D01*
X172867255Y-87909499D01*
X172842996Y-87902999D01*
X172770225Y-87883500D01*
X172770222Y-87883500D01*
X159574171Y-87883500D01*
X159525833Y-87865907D01*
X159520997Y-87861474D01*
X158794251Y-87134727D01*
X158794244Y-87134722D01*
X158776750Y-87124622D01*
X158776749Y-87124622D01*
X158707255Y-87084499D01*
X158682996Y-87077999D01*
X158610225Y-87058500D01*
X158610222Y-87058500D01*
X158103726Y-87058500D01*
X158055388Y-87040907D01*
X158050552Y-87036474D01*
X157962900Y-86948822D01*
X157928023Y-86931772D01*
X157857088Y-86897094D01*
X157788502Y-86887100D01*
X157788494Y-86887100D01*
X157171506Y-86887100D01*
X157171497Y-86887100D01*
X157102911Y-86897094D01*
X156997099Y-86948822D01*
X156909448Y-87036474D01*
X156862828Y-87058214D01*
X156856274Y-87058500D01*
X156198726Y-87058500D01*
X156150388Y-87040907D01*
X156145552Y-87036474D01*
X156057900Y-86948822D01*
X156023023Y-86931772D01*
X155952088Y-86897094D01*
X155883502Y-86887100D01*
X155883494Y-86887100D01*
X155266506Y-86887100D01*
X155266497Y-86887100D01*
X155197911Y-86897094D01*
X155092099Y-86948822D01*
X155004448Y-87036474D01*
X154957828Y-87058214D01*
X154951274Y-87058500D01*
X154293726Y-87058500D01*
X154245388Y-87040907D01*
X154240552Y-87036474D01*
X154152900Y-86948822D01*
X154118023Y-86931772D01*
X154047088Y-86897094D01*
X153978502Y-86887100D01*
X153978494Y-86887100D01*
X153687771Y-86887100D01*
X153639433Y-86869507D01*
X153634597Y-86865074D01*
X151554251Y-84784727D01*
X151554245Y-84784723D01*
X151467255Y-84734499D01*
X151442996Y-84727999D01*
X151370225Y-84708500D01*
X151370222Y-84708500D01*
X149033099Y-84708500D01*
X148984761Y-84690907D01*
X148959041Y-84646358D01*
X148957899Y-84633300D01*
X148957899Y-84224944D01*
X148957899Y-84224943D01*
X148949028Y-84180342D01*
X148915234Y-84129766D01*
X148864658Y-84095972D01*
X148864656Y-84095971D01*
X148820057Y-84087100D01*
X147089944Y-84087100D01*
X147089942Y-84087101D01*
X147045340Y-84095972D01*
X146994767Y-84129764D01*
X146960972Y-84180342D01*
X146960971Y-84180343D01*
X146952100Y-84224942D01*
X146202900Y-84224942D01*
X146202900Y-83824930D01*
X146203543Y-83815115D01*
X146213116Y-83742399D01*
X146218035Y-83705033D01*
X146223113Y-83686081D01*
X146263703Y-83588088D01*
X146273512Y-83571100D01*
X146338078Y-83486956D01*
X146351958Y-83473077D01*
X146436100Y-83408512D01*
X146453088Y-83398703D01*
X146551081Y-83358113D01*
X146570033Y-83353035D01*
X146680116Y-83338543D01*
X146689931Y-83337900D01*
X146719898Y-83337900D01*
X156115518Y-83337900D01*
X156163856Y-83355493D01*
G37*
%TD.AperFunction*%
%TD*%
M02*
