M48
; DRILL file {KiCad 9.0.2+dfsg-1} date 2025-06-02T16:04:26+0800
; FORMAT={-:-/ absolute / metric / decimal}
; #@! TF.CreationDate,2025-06-02T16:04:26+08:00
; #@! TF.GenerationSoftware,Kicad,Pcbnew,9.0.2+dfsg-1
; #@! TF.FileFunction,Plated,1,2,PTH
FMAT,2
METRIC
; #@! TA.AperFunction,Plated,PTH,ViaDrill
T1C0.350
; #@! TA.AperFunction,Plated,PTH,ComponentDrill
T2C1.000
%
G90
G05
T1
X150.495Y-86.995
X150.495Y-88.265
X150.495Y-91.44
X150.495Y-93.98
X150.495Y-96.52
X150.495Y-99.06
X150.495Y-101.6
X151.765Y-86.995
X151.765Y-88.265
X151.765Y-91.44
X151.765Y-93.98
X151.765Y-96.52
X151.765Y-99.06
X151.765Y-101.6
X153.035Y-85.09
X153.035Y-105.41
X153.67Y-93.98
X154.305Y-85.09
X154.305Y-105.41
X155.575Y-85.09
X155.575Y-93.98
X155.575Y-105.41
X156.845Y-105.41
X157.48Y-91.44
X158.115Y-99.06
X160.02Y-99.06
X162.56Y-92.075
X163.83Y-95.25
X163.83Y-99.06
X167.64Y-89.535
X167.64Y-102.235
X168.275Y-93.98
X168.275Y-95.25
X168.275Y-99.06
X168.91Y-89.535
X168.91Y-92.71
X168.91Y-102.235
X169.545Y-91.44
X170.18Y-89.535
X170.18Y-96.52
X170.18Y-98.425
X170.18Y-99.695
X170.18Y-102.235
X173.99Y-96.52
X173.99Y-98.425
T2
X147.955Y-85.09
X147.955Y-87.63
X147.955Y-90.17
X147.955Y-92.71
X147.955Y-95.25
X147.955Y-97.79
X147.955Y-100.33
X147.955Y-102.87
X147.955Y-105.41
M30
