%TF.GenerationSoftware,KiCad,Pcbnew,9.0.2+dfsg-1*%
%TF.CreationDate,2025-06-16T15:36:48+08:00*%
%TF.ProjectId,sd,73642e6b-6963-4616-945f-706362585858,d*%
%TF.SameCoordinates,Original*%
%TF.FileFunction,Legend,Bot*%
%TF.FilePolarity,Positive*%
%FSLAX46Y46*%
G04 Gerber Fmt 4.6, Leading zero omitted, Abs format (unit mm)*
G04 Created by KiCad (PCBNEW 9.0.2+dfsg-1) date 2025-06-16 15:36:48*
%MOMM*%
%LPD*%
G01*
G04 APERTURE LIST*
%ADD10C,0.100000*%
G04 APERTURE END LIST*
D10*
X161925000Y-99060000D02*
X153035000Y-99060000D01*
X161925000Y-88900000D02*
X161925000Y-99060000D01*
X160020000Y-88900000D02*
X161925000Y-88900000D01*
X153035000Y-88900000D02*
X160020000Y-88900000D01*
X151290789Y-95612180D02*
X151338408Y-95659800D01*
X151338408Y-95659800D02*
X151481265Y-95707419D01*
X151481265Y-95707419D02*
X151576503Y-95707419D01*
X151576503Y-95707419D02*
X151719360Y-95659800D01*
X151719360Y-95659800D02*
X151814598Y-95564561D01*
X151814598Y-95564561D02*
X151862217Y-95469323D01*
X151862217Y-95469323D02*
X151909836Y-95278847D01*
X151909836Y-95278847D02*
X151909836Y-95135990D01*
X151909836Y-95135990D02*
X151862217Y-94945514D01*
X151862217Y-94945514D02*
X151814598Y-94850276D01*
X151814598Y-94850276D02*
X151719360Y-94755038D01*
X151719360Y-94755038D02*
X151576503Y-94707419D01*
X151576503Y-94707419D02*
X151481265Y-94707419D01*
X151481265Y-94707419D02*
X151338408Y-94755038D01*
X151338408Y-94755038D02*
X151290789Y-94802657D01*
X150386027Y-95707419D02*
X150862217Y-95707419D01*
X150862217Y-95707419D02*
X150862217Y-94707419D01*
X150052693Y-95707419D02*
X150052693Y-94707419D01*
X149481265Y-95707419D02*
X149909836Y-95135990D01*
X149481265Y-94707419D02*
X150052693Y-95278847D01*
X151624122Y-93072180D02*
X151671741Y-93119800D01*
X151671741Y-93119800D02*
X151814598Y-93167419D01*
X151814598Y-93167419D02*
X151909836Y-93167419D01*
X151909836Y-93167419D02*
X152052693Y-93119800D01*
X152052693Y-93119800D02*
X152147931Y-93024561D01*
X152147931Y-93024561D02*
X152195550Y-92929323D01*
X152195550Y-92929323D02*
X152243169Y-92738847D01*
X152243169Y-92738847D02*
X152243169Y-92595990D01*
X152243169Y-92595990D02*
X152195550Y-92405514D01*
X152195550Y-92405514D02*
X152147931Y-92310276D01*
X152147931Y-92310276D02*
X152052693Y-92215038D01*
X152052693Y-92215038D02*
X151909836Y-92167419D01*
X151909836Y-92167419D02*
X151814598Y-92167419D01*
X151814598Y-92167419D02*
X151671741Y-92215038D01*
X151671741Y-92215038D02*
X151624122Y-92262657D01*
X151195550Y-93167419D02*
X151195550Y-92167419D01*
X151195550Y-92167419D02*
X150862217Y-92881704D01*
X150862217Y-92881704D02*
X150528884Y-92167419D01*
X150528884Y-92167419D02*
X150528884Y-93167419D01*
X150052693Y-93167419D02*
X150052693Y-92167419D01*
X150052693Y-92167419D02*
X149814598Y-92167419D01*
X149814598Y-92167419D02*
X149671741Y-92215038D01*
X149671741Y-92215038D02*
X149576503Y-92310276D01*
X149576503Y-92310276D02*
X149528884Y-92405514D01*
X149528884Y-92405514D02*
X149481265Y-92595990D01*
X149481265Y-92595990D02*
X149481265Y-92738847D01*
X149481265Y-92738847D02*
X149528884Y-92929323D01*
X149528884Y-92929323D02*
X149576503Y-93024561D01*
X149576503Y-93024561D02*
X149671741Y-93119800D01*
X149671741Y-93119800D02*
X149814598Y-93167419D01*
X149814598Y-93167419D02*
X150052693Y-93167419D01*
X160402455Y-93548371D02*
X160450074Y-93500752D01*
X160450074Y-93500752D02*
X160545312Y-93357895D01*
X160545312Y-93357895D02*
X160592931Y-93262657D01*
X160592931Y-93262657D02*
X160640550Y-93119800D01*
X160640550Y-93119800D02*
X160688169Y-92881704D01*
X160688169Y-92881704D02*
X160688169Y-92691228D01*
X160688169Y-92691228D02*
X160640550Y-92453133D01*
X160640550Y-92453133D02*
X160592931Y-92310276D01*
X160592931Y-92310276D02*
X160545312Y-92215038D01*
X160545312Y-92215038D02*
X160450074Y-92072180D01*
X160450074Y-92072180D02*
X160402455Y-92024561D01*
X160021502Y-93167419D02*
X160021502Y-92167419D01*
X160021502Y-92167419D02*
X159688169Y-92881704D01*
X159688169Y-92881704D02*
X159354836Y-92167419D01*
X159354836Y-92167419D02*
X159354836Y-93167419D01*
X158688169Y-92167419D02*
X158497693Y-92167419D01*
X158497693Y-92167419D02*
X158402455Y-92215038D01*
X158402455Y-92215038D02*
X158307217Y-92310276D01*
X158307217Y-92310276D02*
X158259598Y-92500752D01*
X158259598Y-92500752D02*
X158259598Y-92834085D01*
X158259598Y-92834085D02*
X158307217Y-93024561D01*
X158307217Y-93024561D02*
X158402455Y-93119800D01*
X158402455Y-93119800D02*
X158497693Y-93167419D01*
X158497693Y-93167419D02*
X158688169Y-93167419D01*
X158688169Y-93167419D02*
X158783407Y-93119800D01*
X158783407Y-93119800D02*
X158878645Y-93024561D01*
X158878645Y-93024561D02*
X158926264Y-92834085D01*
X158926264Y-92834085D02*
X158926264Y-92500752D01*
X158926264Y-92500752D02*
X158878645Y-92310276D01*
X158878645Y-92310276D02*
X158783407Y-92215038D01*
X158783407Y-92215038D02*
X158688169Y-92167419D01*
X157878645Y-93119800D02*
X157735788Y-93167419D01*
X157735788Y-93167419D02*
X157497693Y-93167419D01*
X157497693Y-93167419D02*
X157402455Y-93119800D01*
X157402455Y-93119800D02*
X157354836Y-93072180D01*
X157354836Y-93072180D02*
X157307217Y-92976942D01*
X157307217Y-92976942D02*
X157307217Y-92881704D01*
X157307217Y-92881704D02*
X157354836Y-92786466D01*
X157354836Y-92786466D02*
X157402455Y-92738847D01*
X157402455Y-92738847D02*
X157497693Y-92691228D01*
X157497693Y-92691228D02*
X157688169Y-92643609D01*
X157688169Y-92643609D02*
X157783407Y-92595990D01*
X157783407Y-92595990D02*
X157831026Y-92548371D01*
X157831026Y-92548371D02*
X157878645Y-92453133D01*
X157878645Y-92453133D02*
X157878645Y-92357895D01*
X157878645Y-92357895D02*
X157831026Y-92262657D01*
X157831026Y-92262657D02*
X157783407Y-92215038D01*
X157783407Y-92215038D02*
X157688169Y-92167419D01*
X157688169Y-92167419D02*
X157450074Y-92167419D01*
X157450074Y-92167419D02*
X157307217Y-92215038D01*
X156878645Y-93167419D02*
X156878645Y-92167419D01*
X156497693Y-93548371D02*
X156450074Y-93500752D01*
X156450074Y-93500752D02*
X156354836Y-93357895D01*
X156354836Y-93357895D02*
X156307217Y-93262657D01*
X156307217Y-93262657D02*
X156259598Y-93119800D01*
X156259598Y-93119800D02*
X156211979Y-92881704D01*
X156211979Y-92881704D02*
X156211979Y-92691228D01*
X156211979Y-92691228D02*
X156259598Y-92453133D01*
X156259598Y-92453133D02*
X156307217Y-92310276D01*
X156307217Y-92310276D02*
X156354836Y-92215038D01*
X156354836Y-92215038D02*
X156450074Y-92072180D01*
X156450074Y-92072180D02*
X156497693Y-92024561D01*
X154973883Y-93167419D02*
X154973883Y-92167419D01*
X154973883Y-92167419D02*
X154735788Y-92167419D01*
X154735788Y-92167419D02*
X154592931Y-92215038D01*
X154592931Y-92215038D02*
X154497693Y-92310276D01*
X154497693Y-92310276D02*
X154450074Y-92405514D01*
X154450074Y-92405514D02*
X154402455Y-92595990D01*
X154402455Y-92595990D02*
X154402455Y-92738847D01*
X154402455Y-92738847D02*
X154450074Y-92929323D01*
X154450074Y-92929323D02*
X154497693Y-93024561D01*
X154497693Y-93024561D02*
X154592931Y-93119800D01*
X154592931Y-93119800D02*
X154735788Y-93167419D01*
X154735788Y-93167419D02*
X154973883Y-93167419D01*
X153973883Y-93167419D02*
X153973883Y-92167419D01*
X151005074Y-90627419D02*
X151005074Y-89627419D01*
X151005074Y-89627419D02*
X150766979Y-89627419D01*
X150766979Y-89627419D02*
X150624122Y-89675038D01*
X150624122Y-89675038D02*
X150528884Y-89770276D01*
X150528884Y-89770276D02*
X150481265Y-89865514D01*
X150481265Y-89865514D02*
X150433646Y-90055990D01*
X150433646Y-90055990D02*
X150433646Y-90198847D01*
X150433646Y-90198847D02*
X150481265Y-90389323D01*
X150481265Y-90389323D02*
X150528884Y-90484561D01*
X150528884Y-90484561D02*
X150624122Y-90579800D01*
X150624122Y-90579800D02*
X150766979Y-90627419D01*
X150766979Y-90627419D02*
X151005074Y-90627419D01*
X150100312Y-89627419D02*
X149481265Y-89627419D01*
X149481265Y-89627419D02*
X149814598Y-90008371D01*
X149814598Y-90008371D02*
X149671741Y-90008371D01*
X149671741Y-90008371D02*
X149576503Y-90055990D01*
X149576503Y-90055990D02*
X149528884Y-90103609D01*
X149528884Y-90103609D02*
X149481265Y-90198847D01*
X149481265Y-90198847D02*
X149481265Y-90436942D01*
X149481265Y-90436942D02*
X149528884Y-90532180D01*
X149528884Y-90532180D02*
X149576503Y-90579800D01*
X149576503Y-90579800D02*
X149671741Y-90627419D01*
X149671741Y-90627419D02*
X149957455Y-90627419D01*
X149957455Y-90627419D02*
X150052693Y-90579800D01*
X150052693Y-90579800D02*
X150100312Y-90532180D01*
X174670401Y-101742419D02*
X174670401Y-102456704D01*
X174670401Y-102456704D02*
X174718020Y-102599561D01*
X174718020Y-102599561D02*
X174813258Y-102694800D01*
X174813258Y-102694800D02*
X174956115Y-102742419D01*
X174956115Y-102742419D02*
X175051353Y-102742419D01*
X173718020Y-102742419D02*
X174194210Y-102742419D01*
X174194210Y-102742419D02*
X174194210Y-101742419D01*
X172813258Y-102647180D02*
X172860877Y-102694800D01*
X172860877Y-102694800D02*
X173003734Y-102742419D01*
X173003734Y-102742419D02*
X173098972Y-102742419D01*
X173098972Y-102742419D02*
X173241829Y-102694800D01*
X173241829Y-102694800D02*
X173337067Y-102599561D01*
X173337067Y-102599561D02*
X173384686Y-102504323D01*
X173384686Y-102504323D02*
X173432305Y-102313847D01*
X173432305Y-102313847D02*
X173432305Y-102170990D01*
X173432305Y-102170990D02*
X173384686Y-101980514D01*
X173384686Y-101980514D02*
X173337067Y-101885276D01*
X173337067Y-101885276D02*
X173241829Y-101790038D01*
X173241829Y-101790038D02*
X173098972Y-101742419D01*
X173098972Y-101742419D02*
X173003734Y-101742419D01*
X173003734Y-101742419D02*
X172860877Y-101790038D01*
X172860877Y-101790038D02*
X172813258Y-101837657D01*
X172098972Y-101742419D02*
X172098972Y-102456704D01*
X172098972Y-102456704D02*
X172146591Y-102599561D01*
X172146591Y-102599561D02*
X172241829Y-102694800D01*
X172241829Y-102694800D02*
X172384686Y-102742419D01*
X172384686Y-102742419D02*
X172479924Y-102742419D01*
X171146591Y-102742419D02*
X171622781Y-102742419D01*
X171622781Y-102742419D02*
X171622781Y-101742419D01*
X170241829Y-102647180D02*
X170289448Y-102694800D01*
X170289448Y-102694800D02*
X170432305Y-102742419D01*
X170432305Y-102742419D02*
X170527543Y-102742419D01*
X170527543Y-102742419D02*
X170670400Y-102694800D01*
X170670400Y-102694800D02*
X170765638Y-102599561D01*
X170765638Y-102599561D02*
X170813257Y-102504323D01*
X170813257Y-102504323D02*
X170860876Y-102313847D01*
X170860876Y-102313847D02*
X170860876Y-102170990D01*
X170860876Y-102170990D02*
X170813257Y-101980514D01*
X170813257Y-101980514D02*
X170765638Y-101885276D01*
X170765638Y-101885276D02*
X170670400Y-101790038D01*
X170670400Y-101790038D02*
X170527543Y-101742419D01*
X170527543Y-101742419D02*
X170432305Y-101742419D01*
X170432305Y-101742419D02*
X170289448Y-101790038D01*
X170289448Y-101790038D02*
X170241829Y-101837657D01*
X169527543Y-101742419D02*
X169527543Y-102456704D01*
X169527543Y-102456704D02*
X169575162Y-102599561D01*
X169575162Y-102599561D02*
X169670400Y-102694800D01*
X169670400Y-102694800D02*
X169813257Y-102742419D01*
X169813257Y-102742419D02*
X169908495Y-102742419D01*
X168575162Y-102742419D02*
X169051352Y-102742419D01*
X169051352Y-102742419D02*
X169051352Y-101742419D01*
X167670400Y-102647180D02*
X167718019Y-102694800D01*
X167718019Y-102694800D02*
X167860876Y-102742419D01*
X167860876Y-102742419D02*
X167956114Y-102742419D01*
X167956114Y-102742419D02*
X168098971Y-102694800D01*
X168098971Y-102694800D02*
X168194209Y-102599561D01*
X168194209Y-102599561D02*
X168241828Y-102504323D01*
X168241828Y-102504323D02*
X168289447Y-102313847D01*
X168289447Y-102313847D02*
X168289447Y-102170990D01*
X168289447Y-102170990D02*
X168241828Y-101980514D01*
X168241828Y-101980514D02*
X168194209Y-101885276D01*
X168194209Y-101885276D02*
X168098971Y-101790038D01*
X168098971Y-101790038D02*
X167956114Y-101742419D01*
X167956114Y-101742419D02*
X167860876Y-101742419D01*
X167860876Y-101742419D02*
X167718019Y-101790038D01*
X167718019Y-101790038D02*
X167670400Y-101837657D01*
X166956114Y-101742419D02*
X166956114Y-102456704D01*
X166956114Y-102456704D02*
X167003733Y-102599561D01*
X167003733Y-102599561D02*
X167098971Y-102694800D01*
X167098971Y-102694800D02*
X167241828Y-102742419D01*
X167241828Y-102742419D02*
X167337066Y-102742419D01*
X166003733Y-102742419D02*
X166479923Y-102742419D01*
X166479923Y-102742419D02*
X166479923Y-101742419D01*
X165098971Y-102647180D02*
X165146590Y-102694800D01*
X165146590Y-102694800D02*
X165289447Y-102742419D01*
X165289447Y-102742419D02*
X165384685Y-102742419D01*
X165384685Y-102742419D02*
X165527542Y-102694800D01*
X165527542Y-102694800D02*
X165622780Y-102599561D01*
X165622780Y-102599561D02*
X165670399Y-102504323D01*
X165670399Y-102504323D02*
X165718018Y-102313847D01*
X165718018Y-102313847D02*
X165718018Y-102170990D01*
X165718018Y-102170990D02*
X165670399Y-101980514D01*
X165670399Y-101980514D02*
X165622780Y-101885276D01*
X165622780Y-101885276D02*
X165527542Y-101790038D01*
X165527542Y-101790038D02*
X165384685Y-101742419D01*
X165384685Y-101742419D02*
X165289447Y-101742419D01*
X165289447Y-101742419D02*
X165146590Y-101790038D01*
X165146590Y-101790038D02*
X165098971Y-101837657D01*
X157307217Y-95659800D02*
X157164360Y-95707419D01*
X157164360Y-95707419D02*
X156926265Y-95707419D01*
X156926265Y-95707419D02*
X156831027Y-95659800D01*
X156831027Y-95659800D02*
X156783408Y-95612180D01*
X156783408Y-95612180D02*
X156735789Y-95516942D01*
X156735789Y-95516942D02*
X156735789Y-95421704D01*
X156735789Y-95421704D02*
X156783408Y-95326466D01*
X156783408Y-95326466D02*
X156831027Y-95278847D01*
X156831027Y-95278847D02*
X156926265Y-95231228D01*
X156926265Y-95231228D02*
X157116741Y-95183609D01*
X157116741Y-95183609D02*
X157211979Y-95135990D01*
X157211979Y-95135990D02*
X157259598Y-95088371D01*
X157259598Y-95088371D02*
X157307217Y-94993133D01*
X157307217Y-94993133D02*
X157307217Y-94897895D01*
X157307217Y-94897895D02*
X157259598Y-94802657D01*
X157259598Y-94802657D02*
X157211979Y-94755038D01*
X157211979Y-94755038D02*
X157116741Y-94707419D01*
X157116741Y-94707419D02*
X156878646Y-94707419D01*
X156878646Y-94707419D02*
X156735789Y-94755038D01*
X155735789Y-95612180D02*
X155783408Y-95659800D01*
X155783408Y-95659800D02*
X155926265Y-95707419D01*
X155926265Y-95707419D02*
X156021503Y-95707419D01*
X156021503Y-95707419D02*
X156164360Y-95659800D01*
X156164360Y-95659800D02*
X156259598Y-95564561D01*
X156259598Y-95564561D02*
X156307217Y-95469323D01*
X156307217Y-95469323D02*
X156354836Y-95278847D01*
X156354836Y-95278847D02*
X156354836Y-95135990D01*
X156354836Y-95135990D02*
X156307217Y-94945514D01*
X156307217Y-94945514D02*
X156259598Y-94850276D01*
X156259598Y-94850276D02*
X156164360Y-94755038D01*
X156164360Y-94755038D02*
X156021503Y-94707419D01*
X156021503Y-94707419D02*
X155926265Y-94707419D01*
X155926265Y-94707419D02*
X155783408Y-94755038D01*
X155783408Y-94755038D02*
X155735789Y-94802657D01*
X154831027Y-95707419D02*
X155307217Y-95707419D01*
X155307217Y-95707419D02*
X155307217Y-94707419D01*
X154497693Y-95707419D02*
X154497693Y-94707419D01*
X153926265Y-95707419D02*
X154354836Y-95135990D01*
X153926265Y-94707419D02*
X154497693Y-95278847D01*
X151005074Y-100787419D02*
X151005074Y-99787419D01*
X151005074Y-99787419D02*
X150766979Y-99787419D01*
X150766979Y-99787419D02*
X150624122Y-99835038D01*
X150624122Y-99835038D02*
X150528884Y-99930276D01*
X150528884Y-99930276D02*
X150481265Y-100025514D01*
X150481265Y-100025514D02*
X150433646Y-100215990D01*
X150433646Y-100215990D02*
X150433646Y-100358847D01*
X150433646Y-100358847D02*
X150481265Y-100549323D01*
X150481265Y-100549323D02*
X150528884Y-100644561D01*
X150528884Y-100644561D02*
X150624122Y-100739800D01*
X150624122Y-100739800D02*
X150766979Y-100787419D01*
X150766979Y-100787419D02*
X151005074Y-100787419D01*
X149481265Y-100787419D02*
X150052693Y-100787419D01*
X149766979Y-100787419D02*
X149766979Y-99787419D01*
X149766979Y-99787419D02*
X149862217Y-99930276D01*
X149862217Y-99930276D02*
X149957455Y-100025514D01*
X149957455Y-100025514D02*
X150052693Y-100073133D01*
X160973884Y-98628371D02*
X161021503Y-98580752D01*
X161021503Y-98580752D02*
X161116741Y-98437895D01*
X161116741Y-98437895D02*
X161164360Y-98342657D01*
X161164360Y-98342657D02*
X161211979Y-98199800D01*
X161211979Y-98199800D02*
X161259598Y-97961704D01*
X161259598Y-97961704D02*
X161259598Y-97771228D01*
X161259598Y-97771228D02*
X161211979Y-97533133D01*
X161211979Y-97533133D02*
X161164360Y-97390276D01*
X161164360Y-97390276D02*
X161116741Y-97295038D01*
X161116741Y-97295038D02*
X161021503Y-97152180D01*
X161021503Y-97152180D02*
X160973884Y-97104561D01*
X160592931Y-98247419D02*
X160592931Y-97247419D01*
X160592931Y-97247419D02*
X160259598Y-97961704D01*
X160259598Y-97961704D02*
X159926265Y-97247419D01*
X159926265Y-97247419D02*
X159926265Y-98247419D01*
X159450074Y-98247419D02*
X159450074Y-97247419D01*
X159021503Y-98199800D02*
X158878646Y-98247419D01*
X158878646Y-98247419D02*
X158640551Y-98247419D01*
X158640551Y-98247419D02*
X158545313Y-98199800D01*
X158545313Y-98199800D02*
X158497694Y-98152180D01*
X158497694Y-98152180D02*
X158450075Y-98056942D01*
X158450075Y-98056942D02*
X158450075Y-97961704D01*
X158450075Y-97961704D02*
X158497694Y-97866466D01*
X158497694Y-97866466D02*
X158545313Y-97818847D01*
X158545313Y-97818847D02*
X158640551Y-97771228D01*
X158640551Y-97771228D02*
X158831027Y-97723609D01*
X158831027Y-97723609D02*
X158926265Y-97675990D01*
X158926265Y-97675990D02*
X158973884Y-97628371D01*
X158973884Y-97628371D02*
X159021503Y-97533133D01*
X159021503Y-97533133D02*
X159021503Y-97437895D01*
X159021503Y-97437895D02*
X158973884Y-97342657D01*
X158973884Y-97342657D02*
X158926265Y-97295038D01*
X158926265Y-97295038D02*
X158831027Y-97247419D01*
X158831027Y-97247419D02*
X158592932Y-97247419D01*
X158592932Y-97247419D02*
X158450075Y-97295038D01*
X157831027Y-97247419D02*
X157640551Y-97247419D01*
X157640551Y-97247419D02*
X157545313Y-97295038D01*
X157545313Y-97295038D02*
X157450075Y-97390276D01*
X157450075Y-97390276D02*
X157402456Y-97580752D01*
X157402456Y-97580752D02*
X157402456Y-97914085D01*
X157402456Y-97914085D02*
X157450075Y-98104561D01*
X157450075Y-98104561D02*
X157545313Y-98199800D01*
X157545313Y-98199800D02*
X157640551Y-98247419D01*
X157640551Y-98247419D02*
X157831027Y-98247419D01*
X157831027Y-98247419D02*
X157926265Y-98199800D01*
X157926265Y-98199800D02*
X158021503Y-98104561D01*
X158021503Y-98104561D02*
X158069122Y-97914085D01*
X158069122Y-97914085D02*
X158069122Y-97580752D01*
X158069122Y-97580752D02*
X158021503Y-97390276D01*
X158021503Y-97390276D02*
X157926265Y-97295038D01*
X157926265Y-97295038D02*
X157831027Y-97247419D01*
X157069122Y-98628371D02*
X157021503Y-98580752D01*
X157021503Y-98580752D02*
X156926265Y-98437895D01*
X156926265Y-98437895D02*
X156878646Y-98342657D01*
X156878646Y-98342657D02*
X156831027Y-98199800D01*
X156831027Y-98199800D02*
X156783408Y-97961704D01*
X156783408Y-97961704D02*
X156783408Y-97771228D01*
X156783408Y-97771228D02*
X156831027Y-97533133D01*
X156831027Y-97533133D02*
X156878646Y-97390276D01*
X156878646Y-97390276D02*
X156926265Y-97295038D01*
X156926265Y-97295038D02*
X157021503Y-97152180D01*
X157021503Y-97152180D02*
X157069122Y-97104561D01*
X155545312Y-98247419D02*
X155545312Y-97247419D01*
X155545312Y-97247419D02*
X155307217Y-97247419D01*
X155307217Y-97247419D02*
X155164360Y-97295038D01*
X155164360Y-97295038D02*
X155069122Y-97390276D01*
X155069122Y-97390276D02*
X155021503Y-97485514D01*
X155021503Y-97485514D02*
X154973884Y-97675990D01*
X154973884Y-97675990D02*
X154973884Y-97818847D01*
X154973884Y-97818847D02*
X155021503Y-98009323D01*
X155021503Y-98009323D02*
X155069122Y-98104561D01*
X155069122Y-98104561D02*
X155164360Y-98199800D01*
X155164360Y-98199800D02*
X155307217Y-98247419D01*
X155307217Y-98247419D02*
X155545312Y-98247419D01*
X154354836Y-97247419D02*
X154164360Y-97247419D01*
X154164360Y-97247419D02*
X154069122Y-97295038D01*
X154069122Y-97295038D02*
X153973884Y-97390276D01*
X153973884Y-97390276D02*
X153926265Y-97580752D01*
X153926265Y-97580752D02*
X153926265Y-97914085D01*
X153926265Y-97914085D02*
X153973884Y-98104561D01*
X153973884Y-98104561D02*
X154069122Y-98199800D01*
X154069122Y-98199800D02*
X154164360Y-98247419D01*
X154164360Y-98247419D02*
X154354836Y-98247419D01*
X154354836Y-98247419D02*
X154450074Y-98199800D01*
X154450074Y-98199800D02*
X154545312Y-98104561D01*
X154545312Y-98104561D02*
X154592931Y-97914085D01*
X154592931Y-97914085D02*
X154592931Y-97580752D01*
X154592931Y-97580752D02*
X154545312Y-97390276D01*
X154545312Y-97390276D02*
X154450074Y-97295038D01*
X154450074Y-97295038D02*
X154354836Y-97247419D01*
X154878646Y-90532180D02*
X154926265Y-90579800D01*
X154926265Y-90579800D02*
X155069122Y-90627419D01*
X155069122Y-90627419D02*
X155164360Y-90627419D01*
X155164360Y-90627419D02*
X155307217Y-90579800D01*
X155307217Y-90579800D02*
X155402455Y-90484561D01*
X155402455Y-90484561D02*
X155450074Y-90389323D01*
X155450074Y-90389323D02*
X155497693Y-90198847D01*
X155497693Y-90198847D02*
X155497693Y-90055990D01*
X155497693Y-90055990D02*
X155450074Y-89865514D01*
X155450074Y-89865514D02*
X155402455Y-89770276D01*
X155402455Y-89770276D02*
X155307217Y-89675038D01*
X155307217Y-89675038D02*
X155164360Y-89627419D01*
X155164360Y-89627419D02*
X155069122Y-89627419D01*
X155069122Y-89627419D02*
X154926265Y-89675038D01*
X154926265Y-89675038D02*
X154878646Y-89722657D01*
X154497693Y-90579800D02*
X154354836Y-90627419D01*
X154354836Y-90627419D02*
X154116741Y-90627419D01*
X154116741Y-90627419D02*
X154021503Y-90579800D01*
X154021503Y-90579800D02*
X153973884Y-90532180D01*
X153973884Y-90532180D02*
X153926265Y-90436942D01*
X153926265Y-90436942D02*
X153926265Y-90341704D01*
X153926265Y-90341704D02*
X153973884Y-90246466D01*
X153973884Y-90246466D02*
X154021503Y-90198847D01*
X154021503Y-90198847D02*
X154116741Y-90151228D01*
X154116741Y-90151228D02*
X154307217Y-90103609D01*
X154307217Y-90103609D02*
X154402455Y-90055990D01*
X154402455Y-90055990D02*
X154450074Y-90008371D01*
X154450074Y-90008371D02*
X154497693Y-89913133D01*
X154497693Y-89913133D02*
X154497693Y-89817895D01*
X154497693Y-89817895D02*
X154450074Y-89722657D01*
X154450074Y-89722657D02*
X154402455Y-89675038D01*
X154402455Y-89675038D02*
X154307217Y-89627419D01*
X154307217Y-89627419D02*
X154069122Y-89627419D01*
X154069122Y-89627419D02*
X153926265Y-89675038D01*
X151719360Y-103327419D02*
X151719360Y-102327419D01*
X151719360Y-102327419D02*
X151481265Y-102327419D01*
X151481265Y-102327419D02*
X151338408Y-102375038D01*
X151338408Y-102375038D02*
X151243170Y-102470276D01*
X151243170Y-102470276D02*
X151195551Y-102565514D01*
X151195551Y-102565514D02*
X151147932Y-102755990D01*
X151147932Y-102755990D02*
X151147932Y-102898847D01*
X151147932Y-102898847D02*
X151195551Y-103089323D01*
X151195551Y-103089323D02*
X151243170Y-103184561D01*
X151243170Y-103184561D02*
X151338408Y-103279800D01*
X151338408Y-103279800D02*
X151481265Y-103327419D01*
X151481265Y-103327419D02*
X151719360Y-103327419D01*
X150719360Y-102803609D02*
X150386027Y-102803609D01*
X150243170Y-103327419D02*
X150719360Y-103327419D01*
X150719360Y-103327419D02*
X150719360Y-102327419D01*
X150719360Y-102327419D02*
X150243170Y-102327419D01*
X149957455Y-102327419D02*
X149386027Y-102327419D01*
X149671741Y-103327419D02*
X149671741Y-102327419D01*
X164228883Y-94389800D02*
X164086026Y-94437419D01*
X164086026Y-94437419D02*
X163847931Y-94437419D01*
X163847931Y-94437419D02*
X163752693Y-94389800D01*
X163752693Y-94389800D02*
X163705074Y-94342180D01*
X163705074Y-94342180D02*
X163657455Y-94246942D01*
X163657455Y-94246942D02*
X163657455Y-94151704D01*
X163657455Y-94151704D02*
X163705074Y-94056466D01*
X163705074Y-94056466D02*
X163752693Y-94008847D01*
X163752693Y-94008847D02*
X163847931Y-93961228D01*
X163847931Y-93961228D02*
X164038407Y-93913609D01*
X164038407Y-93913609D02*
X164133645Y-93865990D01*
X164133645Y-93865990D02*
X164181264Y-93818371D01*
X164181264Y-93818371D02*
X164228883Y-93723133D01*
X164228883Y-93723133D02*
X164228883Y-93627895D01*
X164228883Y-93627895D02*
X164181264Y-93532657D01*
X164181264Y-93532657D02*
X164133645Y-93485038D01*
X164133645Y-93485038D02*
X164038407Y-93437419D01*
X164038407Y-93437419D02*
X163800312Y-93437419D01*
X163800312Y-93437419D02*
X163657455Y-93485038D01*
X163228883Y-94437419D02*
X163228883Y-93437419D01*
X163228883Y-93437419D02*
X162847931Y-93437419D01*
X162847931Y-93437419D02*
X162752693Y-93485038D01*
X162752693Y-93485038D02*
X162705074Y-93532657D01*
X162705074Y-93532657D02*
X162657455Y-93627895D01*
X162657455Y-93627895D02*
X162657455Y-93770752D01*
X162657455Y-93770752D02*
X162705074Y-93865990D01*
X162705074Y-93865990D02*
X162752693Y-93913609D01*
X162752693Y-93913609D02*
X162847931Y-93961228D01*
X162847931Y-93961228D02*
X163228883Y-93961228D01*
X162228883Y-94437419D02*
X162228883Y-93437419D01*
X152052693Y-84547419D02*
X151719360Y-85547419D01*
X151719360Y-85547419D02*
X151386027Y-84547419D01*
X150481265Y-85452180D02*
X150528884Y-85499800D01*
X150528884Y-85499800D02*
X150671741Y-85547419D01*
X150671741Y-85547419D02*
X150766979Y-85547419D01*
X150766979Y-85547419D02*
X150909836Y-85499800D01*
X150909836Y-85499800D02*
X151005074Y-85404561D01*
X151005074Y-85404561D02*
X151052693Y-85309323D01*
X151052693Y-85309323D02*
X151100312Y-85118847D01*
X151100312Y-85118847D02*
X151100312Y-84975990D01*
X151100312Y-84975990D02*
X151052693Y-84785514D01*
X151052693Y-84785514D02*
X151005074Y-84690276D01*
X151005074Y-84690276D02*
X150909836Y-84595038D01*
X150909836Y-84595038D02*
X150766979Y-84547419D01*
X150766979Y-84547419D02*
X150671741Y-84547419D01*
X150671741Y-84547419D02*
X150528884Y-84595038D01*
X150528884Y-84595038D02*
X150481265Y-84642657D01*
X149481265Y-85452180D02*
X149528884Y-85499800D01*
X149528884Y-85499800D02*
X149671741Y-85547419D01*
X149671741Y-85547419D02*
X149766979Y-85547419D01*
X149766979Y-85547419D02*
X149909836Y-85499800D01*
X149909836Y-85499800D02*
X150005074Y-85404561D01*
X150005074Y-85404561D02*
X150052693Y-85309323D01*
X150052693Y-85309323D02*
X150100312Y-85118847D01*
X150100312Y-85118847D02*
X150100312Y-84975990D01*
X150100312Y-84975990D02*
X150052693Y-84785514D01*
X150052693Y-84785514D02*
X150005074Y-84690276D01*
X150005074Y-84690276D02*
X149909836Y-84595038D01*
X149909836Y-84595038D02*
X149766979Y-84547419D01*
X149766979Y-84547419D02*
X149671741Y-84547419D01*
X149671741Y-84547419D02*
X149528884Y-84595038D01*
X149528884Y-84595038D02*
X149481265Y-84642657D01*
X151576503Y-104915038D02*
X151671741Y-104867419D01*
X151671741Y-104867419D02*
X151814598Y-104867419D01*
X151814598Y-104867419D02*
X151957455Y-104915038D01*
X151957455Y-104915038D02*
X152052693Y-105010276D01*
X152052693Y-105010276D02*
X152100312Y-105105514D01*
X152100312Y-105105514D02*
X152147931Y-105295990D01*
X152147931Y-105295990D02*
X152147931Y-105438847D01*
X152147931Y-105438847D02*
X152100312Y-105629323D01*
X152100312Y-105629323D02*
X152052693Y-105724561D01*
X152052693Y-105724561D02*
X151957455Y-105819800D01*
X151957455Y-105819800D02*
X151814598Y-105867419D01*
X151814598Y-105867419D02*
X151719360Y-105867419D01*
X151719360Y-105867419D02*
X151576503Y-105819800D01*
X151576503Y-105819800D02*
X151528884Y-105772180D01*
X151528884Y-105772180D02*
X151528884Y-105438847D01*
X151528884Y-105438847D02*
X151719360Y-105438847D01*
X151100312Y-105867419D02*
X151100312Y-104867419D01*
X151100312Y-104867419D02*
X150528884Y-105867419D01*
X150528884Y-105867419D02*
X150528884Y-104867419D01*
X150052693Y-105867419D02*
X150052693Y-104867419D01*
X150052693Y-104867419D02*
X149814598Y-104867419D01*
X149814598Y-104867419D02*
X149671741Y-104915038D01*
X149671741Y-104915038D02*
X149576503Y-105010276D01*
X149576503Y-105010276D02*
X149528884Y-105105514D01*
X149528884Y-105105514D02*
X149481265Y-105295990D01*
X149481265Y-105295990D02*
X149481265Y-105438847D01*
X149481265Y-105438847D02*
X149528884Y-105629323D01*
X149528884Y-105629323D02*
X149576503Y-105724561D01*
X149576503Y-105724561D02*
X149671741Y-105819800D01*
X149671741Y-105819800D02*
X149814598Y-105867419D01*
X149814598Y-105867419D02*
X150052693Y-105867419D01*
X175591115Y-88672419D02*
X175591115Y-87672419D01*
X175591115Y-87672419D02*
X175257782Y-88386704D01*
X175257782Y-88386704D02*
X174924449Y-87672419D01*
X174924449Y-87672419D02*
X174924449Y-88672419D01*
X174448258Y-88672419D02*
X174448258Y-88005752D01*
X174448258Y-87672419D02*
X174495877Y-87720038D01*
X174495877Y-87720038D02*
X174448258Y-87767657D01*
X174448258Y-87767657D02*
X174400639Y-87720038D01*
X174400639Y-87720038D02*
X174448258Y-87672419D01*
X174448258Y-87672419D02*
X174448258Y-87767657D01*
X173543497Y-88624800D02*
X173638735Y-88672419D01*
X173638735Y-88672419D02*
X173829211Y-88672419D01*
X173829211Y-88672419D02*
X173924449Y-88624800D01*
X173924449Y-88624800D02*
X173972068Y-88577180D01*
X173972068Y-88577180D02*
X174019687Y-88481942D01*
X174019687Y-88481942D02*
X174019687Y-88196228D01*
X174019687Y-88196228D02*
X173972068Y-88100990D01*
X173972068Y-88100990D02*
X173924449Y-88053371D01*
X173924449Y-88053371D02*
X173829211Y-88005752D01*
X173829211Y-88005752D02*
X173638735Y-88005752D01*
X173638735Y-88005752D02*
X173543497Y-88053371D01*
X173114925Y-88672419D02*
X173114925Y-88005752D01*
X173114925Y-88196228D02*
X173067306Y-88100990D01*
X173067306Y-88100990D02*
X173019687Y-88053371D01*
X173019687Y-88053371D02*
X172924449Y-88005752D01*
X172924449Y-88005752D02*
X172829211Y-88005752D01*
X172353020Y-88672419D02*
X172448258Y-88624800D01*
X172448258Y-88624800D02*
X172495877Y-88577180D01*
X172495877Y-88577180D02*
X172543496Y-88481942D01*
X172543496Y-88481942D02*
X172543496Y-88196228D01*
X172543496Y-88196228D02*
X172495877Y-88100990D01*
X172495877Y-88100990D02*
X172448258Y-88053371D01*
X172448258Y-88053371D02*
X172353020Y-88005752D01*
X172353020Y-88005752D02*
X172210163Y-88005752D01*
X172210163Y-88005752D02*
X172114925Y-88053371D01*
X172114925Y-88053371D02*
X172067306Y-88100990D01*
X172067306Y-88100990D02*
X172019687Y-88196228D01*
X172019687Y-88196228D02*
X172019687Y-88481942D01*
X172019687Y-88481942D02*
X172067306Y-88577180D01*
X172067306Y-88577180D02*
X172114925Y-88624800D01*
X172114925Y-88624800D02*
X172210163Y-88672419D01*
X172210163Y-88672419D02*
X172353020Y-88672419D01*
X171591115Y-88291466D02*
X170829211Y-88291466D01*
X170400639Y-88624800D02*
X170257782Y-88672419D01*
X170257782Y-88672419D02*
X170019687Y-88672419D01*
X170019687Y-88672419D02*
X169924449Y-88624800D01*
X169924449Y-88624800D02*
X169876830Y-88577180D01*
X169876830Y-88577180D02*
X169829211Y-88481942D01*
X169829211Y-88481942D02*
X169829211Y-88386704D01*
X169829211Y-88386704D02*
X169876830Y-88291466D01*
X169876830Y-88291466D02*
X169924449Y-88243847D01*
X169924449Y-88243847D02*
X170019687Y-88196228D01*
X170019687Y-88196228D02*
X170210163Y-88148609D01*
X170210163Y-88148609D02*
X170305401Y-88100990D01*
X170305401Y-88100990D02*
X170353020Y-88053371D01*
X170353020Y-88053371D02*
X170400639Y-87958133D01*
X170400639Y-87958133D02*
X170400639Y-87862895D01*
X170400639Y-87862895D02*
X170353020Y-87767657D01*
X170353020Y-87767657D02*
X170305401Y-87720038D01*
X170305401Y-87720038D02*
X170210163Y-87672419D01*
X170210163Y-87672419D02*
X169972068Y-87672419D01*
X169972068Y-87672419D02*
X169829211Y-87720038D01*
X169400639Y-88672419D02*
X169400639Y-87672419D01*
X169400639Y-87672419D02*
X169162544Y-87672419D01*
X169162544Y-87672419D02*
X169019687Y-87720038D01*
X169019687Y-87720038D02*
X168924449Y-87815276D01*
X168924449Y-87815276D02*
X168876830Y-87910514D01*
X168876830Y-87910514D02*
X168829211Y-88100990D01*
X168829211Y-88100990D02*
X168829211Y-88243847D01*
X168829211Y-88243847D02*
X168876830Y-88434323D01*
X168876830Y-88434323D02*
X168924449Y-88529561D01*
X168924449Y-88529561D02*
X169019687Y-88624800D01*
X169019687Y-88624800D02*
X169162544Y-88672419D01*
X169162544Y-88672419D02*
X169400639Y-88672419D01*
X167305401Y-88148609D02*
X167162544Y-88196228D01*
X167162544Y-88196228D02*
X167114925Y-88243847D01*
X167114925Y-88243847D02*
X167067306Y-88339085D01*
X167067306Y-88339085D02*
X167067306Y-88481942D01*
X167067306Y-88481942D02*
X167114925Y-88577180D01*
X167114925Y-88577180D02*
X167162544Y-88624800D01*
X167162544Y-88624800D02*
X167257782Y-88672419D01*
X167257782Y-88672419D02*
X167638734Y-88672419D01*
X167638734Y-88672419D02*
X167638734Y-87672419D01*
X167638734Y-87672419D02*
X167305401Y-87672419D01*
X167305401Y-87672419D02*
X167210163Y-87720038D01*
X167210163Y-87720038D02*
X167162544Y-87767657D01*
X167162544Y-87767657D02*
X167114925Y-87862895D01*
X167114925Y-87862895D02*
X167114925Y-87958133D01*
X167114925Y-87958133D02*
X167162544Y-88053371D01*
X167162544Y-88053371D02*
X167210163Y-88100990D01*
X167210163Y-88100990D02*
X167305401Y-88148609D01*
X167305401Y-88148609D02*
X167638734Y-88148609D01*
X166638734Y-88672419D02*
X166638734Y-88005752D01*
X166638734Y-88196228D02*
X166591115Y-88100990D01*
X166591115Y-88100990D02*
X166543496Y-88053371D01*
X166543496Y-88053371D02*
X166448258Y-88005752D01*
X166448258Y-88005752D02*
X166353020Y-88005752D01*
X165638734Y-88624800D02*
X165733972Y-88672419D01*
X165733972Y-88672419D02*
X165924448Y-88672419D01*
X165924448Y-88672419D02*
X166019686Y-88624800D01*
X166019686Y-88624800D02*
X166067305Y-88529561D01*
X166067305Y-88529561D02*
X166067305Y-88148609D01*
X166067305Y-88148609D02*
X166019686Y-88053371D01*
X166019686Y-88053371D02*
X165924448Y-88005752D01*
X165924448Y-88005752D02*
X165733972Y-88005752D01*
X165733972Y-88005752D02*
X165638734Y-88053371D01*
X165638734Y-88053371D02*
X165591115Y-88148609D01*
X165591115Y-88148609D02*
X165591115Y-88243847D01*
X165591115Y-88243847D02*
X166067305Y-88339085D01*
X164733972Y-88672419D02*
X164733972Y-88148609D01*
X164733972Y-88148609D02*
X164781591Y-88053371D01*
X164781591Y-88053371D02*
X164876829Y-88005752D01*
X164876829Y-88005752D02*
X165067305Y-88005752D01*
X165067305Y-88005752D02*
X165162543Y-88053371D01*
X164733972Y-88624800D02*
X164829210Y-88672419D01*
X164829210Y-88672419D02*
X165067305Y-88672419D01*
X165067305Y-88672419D02*
X165162543Y-88624800D01*
X165162543Y-88624800D02*
X165210162Y-88529561D01*
X165210162Y-88529561D02*
X165210162Y-88434323D01*
X165210162Y-88434323D02*
X165162543Y-88339085D01*
X165162543Y-88339085D02*
X165067305Y-88291466D01*
X165067305Y-88291466D02*
X164829210Y-88291466D01*
X164829210Y-88291466D02*
X164733972Y-88243847D01*
X164257781Y-88672419D02*
X164257781Y-87672419D01*
X164162543Y-88291466D02*
X163876829Y-88672419D01*
X163876829Y-88005752D02*
X164257781Y-88386704D01*
X163305400Y-88672419D02*
X163400638Y-88624800D01*
X163400638Y-88624800D02*
X163448257Y-88577180D01*
X163448257Y-88577180D02*
X163495876Y-88481942D01*
X163495876Y-88481942D02*
X163495876Y-88196228D01*
X163495876Y-88196228D02*
X163448257Y-88100990D01*
X163448257Y-88100990D02*
X163400638Y-88053371D01*
X163400638Y-88053371D02*
X163305400Y-88005752D01*
X163305400Y-88005752D02*
X163162543Y-88005752D01*
X163162543Y-88005752D02*
X163067305Y-88053371D01*
X163067305Y-88053371D02*
X163019686Y-88100990D01*
X163019686Y-88100990D02*
X162972067Y-88196228D01*
X162972067Y-88196228D02*
X162972067Y-88481942D01*
X162972067Y-88481942D02*
X163019686Y-88577180D01*
X163019686Y-88577180D02*
X163067305Y-88624800D01*
X163067305Y-88624800D02*
X163162543Y-88672419D01*
X163162543Y-88672419D02*
X163305400Y-88672419D01*
X162114924Y-88005752D02*
X162114924Y-88672419D01*
X162543495Y-88005752D02*
X162543495Y-88529561D01*
X162543495Y-88529561D02*
X162495876Y-88624800D01*
X162495876Y-88624800D02*
X162400638Y-88672419D01*
X162400638Y-88672419D02*
X162257781Y-88672419D01*
X162257781Y-88672419D02*
X162162543Y-88624800D01*
X162162543Y-88624800D02*
X162114924Y-88577180D01*
X161781590Y-88005752D02*
X161400638Y-88005752D01*
X161638733Y-87672419D02*
X161638733Y-88529561D01*
X161638733Y-88529561D02*
X161591114Y-88624800D01*
X161591114Y-88624800D02*
X161495876Y-88672419D01*
X161495876Y-88672419D02*
X161400638Y-88672419D01*
X175019687Y-90282363D02*
X175353020Y-89806172D01*
X175591115Y-90282363D02*
X175591115Y-89282363D01*
X175591115Y-89282363D02*
X175210163Y-89282363D01*
X175210163Y-89282363D02*
X175114925Y-89329982D01*
X175114925Y-89329982D02*
X175067306Y-89377601D01*
X175067306Y-89377601D02*
X175019687Y-89472839D01*
X175019687Y-89472839D02*
X175019687Y-89615696D01*
X175019687Y-89615696D02*
X175067306Y-89710934D01*
X175067306Y-89710934D02*
X175114925Y-89758553D01*
X175114925Y-89758553D02*
X175210163Y-89806172D01*
X175210163Y-89806172D02*
X175591115Y-89806172D01*
X174210163Y-90234744D02*
X174305401Y-90282363D01*
X174305401Y-90282363D02*
X174495877Y-90282363D01*
X174495877Y-90282363D02*
X174591115Y-90234744D01*
X174591115Y-90234744D02*
X174638734Y-90139505D01*
X174638734Y-90139505D02*
X174638734Y-89758553D01*
X174638734Y-89758553D02*
X174591115Y-89663315D01*
X174591115Y-89663315D02*
X174495877Y-89615696D01*
X174495877Y-89615696D02*
X174305401Y-89615696D01*
X174305401Y-89615696D02*
X174210163Y-89663315D01*
X174210163Y-89663315D02*
X174162544Y-89758553D01*
X174162544Y-89758553D02*
X174162544Y-89853791D01*
X174162544Y-89853791D02*
X174638734Y-89949029D01*
X173829210Y-89615696D02*
X173591115Y-90282363D01*
X173591115Y-90282363D02*
X173353020Y-89615696D01*
X172972067Y-90187124D02*
X172924448Y-90234744D01*
X172924448Y-90234744D02*
X172972067Y-90282363D01*
X172972067Y-90282363D02*
X173019686Y-90234744D01*
X173019686Y-90234744D02*
X172972067Y-90187124D01*
X172972067Y-90187124D02*
X172972067Y-90282363D01*
X171305401Y-90282363D02*
X171305401Y-89282363D01*
X171305401Y-90234744D02*
X171400639Y-90282363D01*
X171400639Y-90282363D02*
X171591115Y-90282363D01*
X171591115Y-90282363D02*
X171686353Y-90234744D01*
X171686353Y-90234744D02*
X171733972Y-90187124D01*
X171733972Y-90187124D02*
X171781591Y-90091886D01*
X171781591Y-90091886D02*
X171781591Y-89806172D01*
X171781591Y-89806172D02*
X171733972Y-89710934D01*
X171733972Y-89710934D02*
X171686353Y-89663315D01*
X171686353Y-89663315D02*
X171591115Y-89615696D01*
X171591115Y-89615696D02*
X171400639Y-89615696D01*
X171400639Y-89615696D02*
X171305401Y-89663315D01*
X175638734Y-91844688D02*
X175495877Y-91892307D01*
X175495877Y-91892307D02*
X175257782Y-91892307D01*
X175257782Y-91892307D02*
X175162544Y-91844688D01*
X175162544Y-91844688D02*
X175114925Y-91797068D01*
X175114925Y-91797068D02*
X175067306Y-91701830D01*
X175067306Y-91701830D02*
X175067306Y-91606592D01*
X175067306Y-91606592D02*
X175114925Y-91511354D01*
X175114925Y-91511354D02*
X175162544Y-91463735D01*
X175162544Y-91463735D02*
X175257782Y-91416116D01*
X175257782Y-91416116D02*
X175448258Y-91368497D01*
X175448258Y-91368497D02*
X175543496Y-91320878D01*
X175543496Y-91320878D02*
X175591115Y-91273259D01*
X175591115Y-91273259D02*
X175638734Y-91178021D01*
X175638734Y-91178021D02*
X175638734Y-91082783D01*
X175638734Y-91082783D02*
X175591115Y-90987545D01*
X175591115Y-90987545D02*
X175543496Y-90939926D01*
X175543496Y-90939926D02*
X175448258Y-90892307D01*
X175448258Y-90892307D02*
X175210163Y-90892307D01*
X175210163Y-90892307D02*
X175067306Y-90939926D01*
X174781591Y-90892307D02*
X174210163Y-90892307D01*
X174495877Y-91892307D02*
X174495877Y-90892307D01*
X173876829Y-91892307D02*
X173876829Y-90892307D01*
X173876829Y-90892307D02*
X173543496Y-91606592D01*
X173543496Y-91606592D02*
X173210163Y-90892307D01*
X173210163Y-90892307D02*
X173210163Y-91892307D01*
X172829210Y-90892307D02*
X172210163Y-90892307D01*
X172210163Y-90892307D02*
X172543496Y-91273259D01*
X172543496Y-91273259D02*
X172400639Y-91273259D01*
X172400639Y-91273259D02*
X172305401Y-91320878D01*
X172305401Y-91320878D02*
X172257782Y-91368497D01*
X172257782Y-91368497D02*
X172210163Y-91463735D01*
X172210163Y-91463735D02*
X172210163Y-91701830D01*
X172210163Y-91701830D02*
X172257782Y-91797068D01*
X172257782Y-91797068D02*
X172305401Y-91844688D01*
X172305401Y-91844688D02*
X172400639Y-91892307D01*
X172400639Y-91892307D02*
X172686353Y-91892307D01*
X172686353Y-91892307D02*
X172781591Y-91844688D01*
X172781591Y-91844688D02*
X172829210Y-91797068D01*
X171829210Y-90987545D02*
X171781591Y-90939926D01*
X171781591Y-90939926D02*
X171686353Y-90892307D01*
X171686353Y-90892307D02*
X171448258Y-90892307D01*
X171448258Y-90892307D02*
X171353020Y-90939926D01*
X171353020Y-90939926D02*
X171305401Y-90987545D01*
X171305401Y-90987545D02*
X171257782Y-91082783D01*
X171257782Y-91082783D02*
X171257782Y-91178021D01*
X171257782Y-91178021D02*
X171305401Y-91320878D01*
X171305401Y-91320878D02*
X171876829Y-91892307D01*
X171876829Y-91892307D02*
X171257782Y-91892307D01*
X170924448Y-90892307D02*
X170686353Y-91892307D01*
X170686353Y-91892307D02*
X170495877Y-91178021D01*
X170495877Y-91178021D02*
X170305401Y-91892307D01*
X170305401Y-91892307D02*
X170067306Y-90892307D01*
X169543496Y-91892307D02*
X169638734Y-91844688D01*
X169638734Y-91844688D02*
X169686353Y-91797068D01*
X169686353Y-91797068D02*
X169733972Y-91701830D01*
X169733972Y-91701830D02*
X169733972Y-91416116D01*
X169733972Y-91416116D02*
X169686353Y-91320878D01*
X169686353Y-91320878D02*
X169638734Y-91273259D01*
X169638734Y-91273259D02*
X169543496Y-91225640D01*
X169543496Y-91225640D02*
X169400639Y-91225640D01*
X169400639Y-91225640D02*
X169305401Y-91273259D01*
X169305401Y-91273259D02*
X169257782Y-91320878D01*
X169257782Y-91320878D02*
X169210163Y-91416116D01*
X169210163Y-91416116D02*
X169210163Y-91701830D01*
X169210163Y-91701830D02*
X169257782Y-91797068D01*
X169257782Y-91797068D02*
X169305401Y-91844688D01*
X169305401Y-91844688D02*
X169400639Y-91892307D01*
X169400639Y-91892307D02*
X169543496Y-91892307D01*
X168781591Y-91892307D02*
X168781591Y-91225640D01*
X168781591Y-91416116D02*
X168733972Y-91320878D01*
X168733972Y-91320878D02*
X168686353Y-91273259D01*
X168686353Y-91273259D02*
X168591115Y-91225640D01*
X168591115Y-91225640D02*
X168495877Y-91225640D01*
X168019686Y-91892307D02*
X168114924Y-91844688D01*
X168114924Y-91844688D02*
X168162543Y-91749449D01*
X168162543Y-91749449D02*
X168162543Y-90892307D01*
X167210162Y-91892307D02*
X167210162Y-90892307D01*
X167210162Y-91844688D02*
X167305400Y-91892307D01*
X167305400Y-91892307D02*
X167495876Y-91892307D01*
X167495876Y-91892307D02*
X167591114Y-91844688D01*
X167591114Y-91844688D02*
X167638733Y-91797068D01*
X167638733Y-91797068D02*
X167686352Y-91701830D01*
X167686352Y-91701830D02*
X167686352Y-91416116D01*
X167686352Y-91416116D02*
X167638733Y-91320878D01*
X167638733Y-91320878D02*
X167591114Y-91273259D01*
X167591114Y-91273259D02*
X167495876Y-91225640D01*
X167495876Y-91225640D02*
X167305400Y-91225640D01*
X167305400Y-91225640D02*
X167210162Y-91273259D01*
X151005074Y-98247419D02*
X151005074Y-97247419D01*
X151005074Y-97247419D02*
X150766979Y-97247419D01*
X150766979Y-97247419D02*
X150624122Y-97295038D01*
X150624122Y-97295038D02*
X150528884Y-97390276D01*
X150528884Y-97390276D02*
X150481265Y-97485514D01*
X150481265Y-97485514D02*
X150433646Y-97675990D01*
X150433646Y-97675990D02*
X150433646Y-97818847D01*
X150433646Y-97818847D02*
X150481265Y-98009323D01*
X150481265Y-98009323D02*
X150528884Y-98104561D01*
X150528884Y-98104561D02*
X150624122Y-98199800D01*
X150624122Y-98199800D02*
X150766979Y-98247419D01*
X150766979Y-98247419D02*
X151005074Y-98247419D01*
X149814598Y-97247419D02*
X149719360Y-97247419D01*
X149719360Y-97247419D02*
X149624122Y-97295038D01*
X149624122Y-97295038D02*
X149576503Y-97342657D01*
X149576503Y-97342657D02*
X149528884Y-97437895D01*
X149528884Y-97437895D02*
X149481265Y-97628371D01*
X149481265Y-97628371D02*
X149481265Y-97866466D01*
X149481265Y-97866466D02*
X149528884Y-98056942D01*
X149528884Y-98056942D02*
X149576503Y-98152180D01*
X149576503Y-98152180D02*
X149624122Y-98199800D01*
X149624122Y-98199800D02*
X149719360Y-98247419D01*
X149719360Y-98247419D02*
X149814598Y-98247419D01*
X149814598Y-98247419D02*
X149909836Y-98199800D01*
X149909836Y-98199800D02*
X149957455Y-98152180D01*
X149957455Y-98152180D02*
X150005074Y-98056942D01*
X150005074Y-98056942D02*
X150052693Y-97866466D01*
X150052693Y-97866466D02*
X150052693Y-97628371D01*
X150052693Y-97628371D02*
X150005074Y-97437895D01*
X150005074Y-97437895D02*
X149957455Y-97342657D01*
X149957455Y-97342657D02*
X149909836Y-97295038D01*
X149909836Y-97295038D02*
X149814598Y-97247419D01*
X151005074Y-88087419D02*
X151005074Y-87087419D01*
X151005074Y-87087419D02*
X150766979Y-87087419D01*
X150766979Y-87087419D02*
X150624122Y-87135038D01*
X150624122Y-87135038D02*
X150528884Y-87230276D01*
X150528884Y-87230276D02*
X150481265Y-87325514D01*
X150481265Y-87325514D02*
X150433646Y-87515990D01*
X150433646Y-87515990D02*
X150433646Y-87658847D01*
X150433646Y-87658847D02*
X150481265Y-87849323D01*
X150481265Y-87849323D02*
X150528884Y-87944561D01*
X150528884Y-87944561D02*
X150624122Y-88039800D01*
X150624122Y-88039800D02*
X150766979Y-88087419D01*
X150766979Y-88087419D02*
X151005074Y-88087419D01*
X150052693Y-87182657D02*
X150005074Y-87135038D01*
X150005074Y-87135038D02*
X149909836Y-87087419D01*
X149909836Y-87087419D02*
X149671741Y-87087419D01*
X149671741Y-87087419D02*
X149576503Y-87135038D01*
X149576503Y-87135038D02*
X149528884Y-87182657D01*
X149528884Y-87182657D02*
X149481265Y-87277895D01*
X149481265Y-87277895D02*
X149481265Y-87373133D01*
X149481265Y-87373133D02*
X149528884Y-87515990D01*
X149528884Y-87515990D02*
X150100312Y-88087419D01*
X150100312Y-88087419D02*
X149481265Y-88087419D01*
M02*
