%TF.GenerationSoftware,KiCad,Pcbnew,9.0.2+dfsg-1*%
%TF.CreationDate,2025-06-16T15:36:48+08:00*%
%TF.ProjectId,sd,73642e6b-6963-4616-945f-706362585858,d*%
%TF.SameCoordinates,Original*%
%TF.FileFunction,Copper,L2,Bot*%
%TF.FilePolarity,Positive*%
%FSLAX46Y46*%
G04 Gerber Fmt 4.6, Leading zero omitted, Abs format (unit mm)*
G04 Created by KiCad (PCBNEW 9.0.2+dfsg-1) date 2025-06-16 15:36:48*
%MOMM*%
%LPD*%
G01*
G04 APERTURE LIST*
%TA.AperFunction,ComponentPad*%
%ADD10R,1.700000X1.700000*%
%TD*%
%TA.AperFunction,ComponentPad*%
%ADD11C,1.700000*%
%TD*%
%TA.AperFunction,ViaPad*%
%ADD12C,0.700000*%
%TD*%
%TA.AperFunction,Conductor*%
%ADD13C,0.228600*%
%TD*%
G04 APERTURE END LIST*
D10*
%TO.P,J2,1,Pin_1*%
%TO.N,VCC*%
X147955000Y-85090000D03*
D11*
%TO.P,J2,2,Pin_2*%
%TO.N,/D2*%
X147955000Y-87630000D03*
%TO.P,J2,3,Pin_3*%
%TO.N,/D3*%
X147955000Y-90170000D03*
%TO.P,J2,4,Pin_4*%
%TO.N,/CMD*%
X147955000Y-92710000D03*
%TO.P,J2,5,Pin_5*%
%TO.N,/CLK*%
X147955000Y-95250000D03*
%TO.P,J2,6,Pin_6*%
%TO.N,/D0*%
X147955000Y-97790000D03*
%TO.P,J2,7,Pin_7*%
%TO.N,/D1*%
X147955000Y-100330000D03*
%TO.P,J2,8,Pin_8*%
%TO.N,/DET*%
X147955000Y-102870000D03*
%TO.P,J2,9,Pin_9*%
%TO.N,GND*%
X147955000Y-105410000D03*
%TD*%
D12*
%TO.N,GND*%
X168910000Y-89535000D03*
X156845000Y-105410000D03*
X156845000Y-99060000D03*
X168910000Y-102235000D03*
X170180000Y-102235000D03*
X151765000Y-86995000D03*
X150495000Y-104140000D03*
X150495000Y-88900000D03*
X151765000Y-96520000D03*
X173990000Y-98425000D03*
X155575000Y-105410000D03*
X163830000Y-99060000D03*
X150495000Y-84455000D03*
X150495000Y-96520000D03*
X151765000Y-101600000D03*
X151765000Y-84455000D03*
X150495000Y-86995000D03*
X173990000Y-90805000D03*
X153670000Y-93980000D03*
X167640000Y-102235000D03*
X168275000Y-99060000D03*
X170180000Y-89535000D03*
X154305000Y-105410000D03*
X150495000Y-91440000D03*
X150495000Y-99060000D03*
X151765000Y-104140000D03*
X173990000Y-93345000D03*
X156845000Y-84896400D03*
X151765000Y-91440000D03*
X151765000Y-88900000D03*
X151765000Y-93980000D03*
X165100000Y-90170000D03*
X150495000Y-93980000D03*
X163830000Y-95250000D03*
X163830000Y-92075000D03*
X167640000Y-89535000D03*
X159385000Y-91440000D03*
X173990000Y-100965000D03*
X159385000Y-99060000D03*
X173990000Y-95885000D03*
X168910000Y-91440000D03*
X156845000Y-86995000D03*
X155575000Y-93980000D03*
X159385000Y-93980000D03*
X150495000Y-101600000D03*
X151765000Y-99060000D03*
%TO.N,/CLK*%
X170180000Y-96520000D03*
%TO.N,/D1*%
X170180000Y-99695000D03*
%TO.N,/D3*%
X169545000Y-92710000D03*
%TO.N,/D0*%
X170180000Y-98425000D03*
%TO.N,/CMD*%
X168910000Y-93980000D03*
%TO.N,/D2*%
X170180000Y-91440000D03*
%TD*%
D13*
%TO.N,/CLK*%
X158750000Y-95250000D02*
X160020000Y-96520000D01*
X170180000Y-96520000D02*
X160020000Y-96520000D01*
X147955000Y-95250000D02*
X158750000Y-95250000D01*
%TO.N,/D1*%
X169545000Y-100330000D02*
X147955000Y-100330000D01*
X170180000Y-99695000D02*
X169545000Y-100330000D01*
%TO.N,/D3*%
X164850000Y-91920000D02*
X163100000Y-90170000D01*
X163100000Y-90170000D02*
X147955000Y-90170000D01*
X169545000Y-92710000D02*
X168910000Y-92710000D01*
X168120000Y-91920000D02*
X164850000Y-91920000D01*
X168910000Y-92710000D02*
X168120000Y-91920000D01*
%TO.N,/D0*%
X170180000Y-98425000D02*
X169545000Y-97790000D01*
X169545000Y-97790000D02*
X147955000Y-97790000D01*
%TO.N,/CMD*%
X159625000Y-92710000D02*
X160260000Y-93345000D01*
X167640000Y-93345000D02*
X168275000Y-93980000D01*
X168275000Y-93980000D02*
X168910000Y-93980000D01*
X147955000Y-92710000D02*
X159625000Y-92710000D01*
X160260000Y-93345000D02*
X167640000Y-93345000D01*
%TO.N,/D2*%
X169510000Y-90770000D02*
X167005000Y-90770000D01*
X167005000Y-90770000D02*
X163865000Y-87630000D01*
X170180000Y-91440000D02*
X169510000Y-90770000D01*
X163865000Y-87630000D02*
X147955000Y-87630000D01*
%TD*%
%TA.AperFunction,Conductor*%
%TO.N,GND*%
G36*
X156161018Y-83352252D02*
G01*
X159933387Y-87124621D01*
X159933388Y-87124621D01*
X159933390Y-87124623D01*
X159966309Y-87138258D01*
X159989586Y-87147900D01*
X159989587Y-87147900D01*
X160050414Y-87147900D01*
X175860102Y-87147900D01*
X175891787Y-87147900D01*
X175898183Y-87148319D01*
X176013381Y-87163485D01*
X176025736Y-87166796D01*
X176130091Y-87210021D01*
X176141169Y-87216417D01*
X176230781Y-87285179D01*
X176239820Y-87294218D01*
X176286779Y-87355416D01*
X176308582Y-87383830D01*
X176314978Y-87394908D01*
X176358203Y-87499263D01*
X176361514Y-87511618D01*
X176376681Y-87626817D01*
X176377100Y-87633213D01*
X176377100Y-102866786D01*
X176376681Y-102873182D01*
X176361514Y-102988381D01*
X176358203Y-103000736D01*
X176314978Y-103105091D01*
X176308582Y-103116169D01*
X176239823Y-103205778D01*
X176230778Y-103214823D01*
X176141169Y-103283582D01*
X176130091Y-103289978D01*
X176025736Y-103333203D01*
X176013381Y-103336514D01*
X175898183Y-103351681D01*
X175891787Y-103352100D01*
X159989586Y-103352100D01*
X159966309Y-103361740D01*
X159966309Y-103361741D01*
X159955336Y-103366286D01*
X159933388Y-103375377D01*
X156161018Y-107147748D01*
X156126370Y-107162100D01*
X146688213Y-107162100D01*
X146681817Y-107161681D01*
X146566618Y-107146514D01*
X146554263Y-107143203D01*
X146449908Y-107099978D01*
X146438830Y-107093582D01*
X146386216Y-107053210D01*
X146349218Y-107024820D01*
X146340179Y-107015781D01*
X146271417Y-106926169D01*
X146265021Y-106915091D01*
X146221796Y-106810736D01*
X146218485Y-106798381D01*
X146203319Y-106683182D01*
X146202900Y-106676786D01*
X146202900Y-105316427D01*
X147005000Y-105316427D01*
X147005000Y-105503572D01*
X147041505Y-105687093D01*
X147041510Y-105687112D01*
X147113119Y-105859990D01*
X147213441Y-106010135D01*
X147213442Y-106010135D01*
X147537210Y-105686366D01*
X147554901Y-105717007D01*
X147647993Y-105810099D01*
X147678631Y-105827788D01*
X147354863Y-106151556D01*
X147354863Y-106151557D01*
X147505009Y-106251880D01*
X147677887Y-106323489D01*
X147677906Y-106323494D01*
X147861427Y-106359999D01*
X147861434Y-106360000D01*
X148048566Y-106360000D01*
X148048572Y-106359999D01*
X148232093Y-106323494D01*
X148232112Y-106323489D01*
X148404990Y-106251880D01*
X148555136Y-106151556D01*
X148231367Y-105827788D01*
X148262007Y-105810099D01*
X148355099Y-105717007D01*
X148372788Y-105686367D01*
X148696556Y-106010136D01*
X148796880Y-105859990D01*
X148868489Y-105687112D01*
X148868494Y-105687093D01*
X148904999Y-105503572D01*
X148905000Y-105503565D01*
X148905000Y-105316434D01*
X148904999Y-105316427D01*
X148868494Y-105132906D01*
X148868489Y-105132887D01*
X148796880Y-104960009D01*
X148696557Y-104809863D01*
X148696556Y-104809863D01*
X148372788Y-105133631D01*
X148355099Y-105102993D01*
X148262007Y-105009901D01*
X148231366Y-104992210D01*
X148555135Y-104668442D01*
X148555135Y-104668441D01*
X148404990Y-104568119D01*
X148232112Y-104496510D01*
X148232093Y-104496505D01*
X148048572Y-104460000D01*
X147861427Y-104460000D01*
X147677906Y-104496505D01*
X147677887Y-104496510D01*
X147505005Y-104568120D01*
X147354863Y-104668441D01*
X147354863Y-104668442D01*
X147678632Y-104992211D01*
X147647993Y-105009901D01*
X147554901Y-105102993D01*
X147537211Y-105133632D01*
X147213442Y-104809863D01*
X147213441Y-104809863D01*
X147113120Y-104960005D01*
X147041510Y-105132887D01*
X147041505Y-105132906D01*
X147005000Y-105316427D01*
X146202900Y-105316427D01*
X146202900Y-102776384D01*
X147004500Y-102776384D01*
X147004500Y-102963616D01*
X147011884Y-103000736D01*
X147041026Y-103147248D01*
X147041029Y-103147258D01*
X147112675Y-103320225D01*
X147112676Y-103320227D01*
X147112678Y-103320231D01*
X147216698Y-103475908D01*
X147349092Y-103608302D01*
X147504769Y-103712322D01*
X147504774Y-103712324D01*
X147677741Y-103783970D01*
X147677743Y-103783970D01*
X147677749Y-103783973D01*
X147861384Y-103820500D01*
X147861387Y-103820500D01*
X148048613Y-103820500D01*
X148048616Y-103820500D01*
X148232251Y-103783973D01*
X148405231Y-103712322D01*
X148560908Y-103608302D01*
X148693302Y-103475908D01*
X148797322Y-103320231D01*
X148868973Y-103147251D01*
X148905500Y-102963616D01*
X148905500Y-102776384D01*
X148868973Y-102592749D01*
X148797322Y-102419769D01*
X148693302Y-102264092D01*
X148560908Y-102131698D01*
X148405231Y-102027678D01*
X148405227Y-102027676D01*
X148405225Y-102027675D01*
X148232258Y-101956029D01*
X148232248Y-101956026D01*
X148158194Y-101941296D01*
X148048616Y-101919500D01*
X147861384Y-101919500D01*
X147769986Y-101937680D01*
X147677751Y-101956026D01*
X147677741Y-101956029D01*
X147504774Y-102027675D01*
X147504770Y-102027677D01*
X147504769Y-102027678D01*
X147465195Y-102054120D01*
X147349092Y-102131697D01*
X147216697Y-102264092D01*
X147112675Y-102419774D01*
X147041029Y-102592741D01*
X147041026Y-102592751D01*
X147022680Y-102684986D01*
X147004500Y-102776384D01*
X146202900Y-102776384D01*
X146202900Y-100236384D01*
X147004500Y-100236384D01*
X147004500Y-100423616D01*
X147022100Y-100512098D01*
X147041026Y-100607248D01*
X147041029Y-100607258D01*
X147112675Y-100780225D01*
X147112676Y-100780227D01*
X147112678Y-100780231D01*
X147216698Y-100935908D01*
X147349092Y-101068302D01*
X147504769Y-101172322D01*
X147504774Y-101172324D01*
X147677741Y-101243970D01*
X147677743Y-101243970D01*
X147677749Y-101243973D01*
X147861384Y-101280500D01*
X147861387Y-101280500D01*
X148048613Y-101280500D01*
X148048616Y-101280500D01*
X148232251Y-101243973D01*
X148405231Y-101172322D01*
X148560908Y-101068302D01*
X148693302Y-100935908D01*
X148797322Y-100780231D01*
X148868973Y-100607251D01*
X148869744Y-100603370D01*
X148873551Y-100584240D01*
X148894387Y-100553058D01*
X148921609Y-100544800D01*
X169587724Y-100544800D01*
X169587726Y-100544800D01*
X169643551Y-100521676D01*
X169666675Y-100512098D01*
X170031742Y-100147029D01*
X170066389Y-100132678D01*
X170079072Y-100134348D01*
X170120689Y-100145500D01*
X170120691Y-100145500D01*
X170239311Y-100145500D01*
X170308254Y-100127026D01*
X170353886Y-100114799D01*
X170456613Y-100055489D01*
X170540489Y-99971613D01*
X170599799Y-99868886D01*
X170619348Y-99795928D01*
X170630500Y-99754311D01*
X170630500Y-99635688D01*
X170599799Y-99521115D01*
X170599798Y-99521112D01*
X170540488Y-99418386D01*
X170456613Y-99334511D01*
X170353887Y-99275201D01*
X170353884Y-99275200D01*
X170239312Y-99244500D01*
X170239309Y-99244500D01*
X170120691Y-99244500D01*
X170120688Y-99244500D01*
X170006115Y-99275200D01*
X170006112Y-99275201D01*
X169903386Y-99334511D01*
X169903386Y-99334512D01*
X169819512Y-99418386D01*
X169819511Y-99418386D01*
X169760201Y-99521112D01*
X169760200Y-99521115D01*
X169729500Y-99635688D01*
X169729500Y-99754309D01*
X169740651Y-99795928D01*
X169735755Y-99833110D01*
X169727968Y-99843257D01*
X169470379Y-100100848D01*
X169435731Y-100115200D01*
X148921609Y-100115200D01*
X148886961Y-100100848D01*
X148873551Y-100075760D01*
X148868975Y-100052759D01*
X148868973Y-100052751D01*
X148868973Y-100052749D01*
X148797322Y-99879769D01*
X148693302Y-99724092D01*
X148560908Y-99591698D01*
X148405231Y-99487678D01*
X148405227Y-99487676D01*
X148405225Y-99487675D01*
X148232258Y-99416029D01*
X148232248Y-99416026D01*
X148158194Y-99401296D01*
X148048616Y-99379500D01*
X147861384Y-99379500D01*
X147769986Y-99397680D01*
X147677751Y-99416026D01*
X147677741Y-99416029D01*
X147504774Y-99487675D01*
X147504770Y-99487677D01*
X147504769Y-99487678D01*
X147465195Y-99514120D01*
X147349092Y-99591697D01*
X147216697Y-99724092D01*
X147112675Y-99879774D01*
X147041029Y-100052741D01*
X147041026Y-100052751D01*
X147028605Y-100115200D01*
X147004500Y-100236384D01*
X146202900Y-100236384D01*
X146202900Y-97696384D01*
X147004500Y-97696384D01*
X147004500Y-97883616D01*
X147022273Y-97972968D01*
X147041026Y-98067248D01*
X147041029Y-98067258D01*
X147112675Y-98240225D01*
X147112676Y-98240227D01*
X147112678Y-98240231D01*
X147216698Y-98395908D01*
X147349092Y-98528302D01*
X147504769Y-98632322D01*
X147504774Y-98632324D01*
X147677741Y-98703970D01*
X147677743Y-98703970D01*
X147677749Y-98703973D01*
X147861384Y-98740500D01*
X147861387Y-98740500D01*
X148048613Y-98740500D01*
X148048616Y-98740500D01*
X148232251Y-98703973D01*
X148405231Y-98632322D01*
X148560908Y-98528302D01*
X148693302Y-98395908D01*
X148797322Y-98240231D01*
X148868973Y-98067251D01*
X148869744Y-98063370D01*
X148873551Y-98044240D01*
X148894387Y-98013058D01*
X148921609Y-98004800D01*
X169435731Y-98004800D01*
X169470379Y-98019152D01*
X169727968Y-98276741D01*
X169742320Y-98311389D01*
X169740651Y-98324070D01*
X169729500Y-98365690D01*
X169729500Y-98484311D01*
X169760200Y-98598884D01*
X169760201Y-98598887D01*
X169819511Y-98701613D01*
X169903387Y-98785489D01*
X170006114Y-98844799D01*
X170034758Y-98852474D01*
X170120688Y-98875500D01*
X170120691Y-98875500D01*
X170239311Y-98875500D01*
X170296597Y-98860149D01*
X170353886Y-98844799D01*
X170456613Y-98785489D01*
X170540489Y-98701613D01*
X170599799Y-98598886D01*
X170618712Y-98528302D01*
X170630500Y-98484311D01*
X170630500Y-98365688D01*
X170599799Y-98251115D01*
X170599798Y-98251112D01*
X170540488Y-98148386D01*
X170456613Y-98064511D01*
X170353887Y-98005201D01*
X170353884Y-98005200D01*
X170239312Y-97974500D01*
X170239309Y-97974500D01*
X170120691Y-97974500D01*
X170120690Y-97974500D01*
X170079071Y-97985651D01*
X170041889Y-97980755D01*
X170031742Y-97972968D01*
X169666677Y-97607903D01*
X169666675Y-97607902D01*
X169643551Y-97598323D01*
X169643550Y-97598322D01*
X169587730Y-97575201D01*
X169587727Y-97575200D01*
X169587726Y-97575200D01*
X169587724Y-97575200D01*
X148921609Y-97575200D01*
X148886961Y-97560848D01*
X148873551Y-97535760D01*
X148868975Y-97512759D01*
X148868973Y-97512751D01*
X148868973Y-97512749D01*
X148797322Y-97339769D01*
X148693302Y-97184092D01*
X148560908Y-97051698D01*
X148405231Y-96947678D01*
X148405227Y-96947676D01*
X148405225Y-96947675D01*
X148232258Y-96876029D01*
X148232248Y-96876026D01*
X148158194Y-96861296D01*
X148048616Y-96839500D01*
X147861384Y-96839500D01*
X147769986Y-96857680D01*
X147677751Y-96876026D01*
X147677741Y-96876029D01*
X147504774Y-96947675D01*
X147504770Y-96947677D01*
X147504769Y-96947678D01*
X147465195Y-96974120D01*
X147349092Y-97051697D01*
X147216697Y-97184092D01*
X147112675Y-97339774D01*
X147041029Y-97512741D01*
X147041026Y-97512751D01*
X147024006Y-97598322D01*
X147004500Y-97696384D01*
X146202900Y-97696384D01*
X146202900Y-95156384D01*
X147004500Y-95156384D01*
X147004500Y-95343616D01*
X147028605Y-95464800D01*
X147041026Y-95527248D01*
X147041029Y-95527258D01*
X147112675Y-95700225D01*
X147112676Y-95700227D01*
X147112678Y-95700231D01*
X147216698Y-95855908D01*
X147349092Y-95988302D01*
X147504769Y-96092322D01*
X147536723Y-96105557D01*
X147677741Y-96163970D01*
X147677743Y-96163970D01*
X147677749Y-96163973D01*
X147861384Y-96200500D01*
X147861387Y-96200500D01*
X148048613Y-96200500D01*
X148048616Y-96200500D01*
X148232251Y-96163973D01*
X148405231Y-96092322D01*
X148560908Y-95988302D01*
X148693302Y-95855908D01*
X148797322Y-95700231D01*
X148868973Y-95527251D01*
X148869744Y-95523370D01*
X148873551Y-95504240D01*
X148894387Y-95473058D01*
X148921609Y-95464800D01*
X158640731Y-95464800D01*
X158675379Y-95479152D01*
X159898322Y-96702096D01*
X159898323Y-96702097D01*
X159898324Y-96702097D01*
X159898325Y-96702098D01*
X159921448Y-96711676D01*
X159977274Y-96734800D01*
X169755533Y-96734800D01*
X169790181Y-96749152D01*
X169797966Y-96759296D01*
X169819511Y-96796613D01*
X169903387Y-96880489D01*
X170006114Y-96939799D01*
X170034758Y-96947474D01*
X170120688Y-96970500D01*
X170120691Y-96970500D01*
X170239311Y-96970500D01*
X170296597Y-96955149D01*
X170353886Y-96939799D01*
X170456613Y-96880489D01*
X170540489Y-96796613D01*
X170599799Y-96693886D01*
X170615149Y-96636597D01*
X170630500Y-96579311D01*
X170630500Y-96460688D01*
X170599799Y-96346115D01*
X170599798Y-96346112D01*
X170540488Y-96243386D01*
X170456613Y-96159511D01*
X170353887Y-96100201D01*
X170353884Y-96100200D01*
X170239312Y-96069500D01*
X170239309Y-96069500D01*
X170120691Y-96069500D01*
X170120688Y-96069500D01*
X170006115Y-96100200D01*
X170006112Y-96100201D01*
X169903386Y-96159511D01*
X169903386Y-96159512D01*
X169819513Y-96243384D01*
X169797968Y-96280701D01*
X169768214Y-96303531D01*
X169755533Y-96305200D01*
X160129269Y-96305200D01*
X160094621Y-96290848D01*
X158871677Y-95067903D01*
X158871675Y-95067902D01*
X158848551Y-95058323D01*
X158848550Y-95058322D01*
X158792730Y-95035201D01*
X158792727Y-95035200D01*
X158792726Y-95035200D01*
X158792724Y-95035200D01*
X148921609Y-95035200D01*
X148886961Y-95020848D01*
X148873551Y-94995760D01*
X148868975Y-94972759D01*
X148868973Y-94972751D01*
X148868973Y-94972749D01*
X148797322Y-94799769D01*
X148693302Y-94644092D01*
X148560908Y-94511698D01*
X148405231Y-94407678D01*
X148405227Y-94407676D01*
X148405225Y-94407675D01*
X148232258Y-94336029D01*
X148232248Y-94336026D01*
X148158194Y-94321296D01*
X148048616Y-94299500D01*
X147861384Y-94299500D01*
X147769986Y-94317680D01*
X147677751Y-94336026D01*
X147677741Y-94336029D01*
X147504774Y-94407675D01*
X147504770Y-94407677D01*
X147504769Y-94407678D01*
X147465195Y-94434120D01*
X147349092Y-94511697D01*
X147216697Y-94644092D01*
X147112675Y-94799774D01*
X147041029Y-94972741D01*
X147041026Y-94972751D01*
X147024006Y-95058322D01*
X147004500Y-95156384D01*
X146202900Y-95156384D01*
X146202900Y-92616384D01*
X147004500Y-92616384D01*
X147004500Y-92803616D01*
X147028605Y-92924799D01*
X147041026Y-92987248D01*
X147041029Y-92987258D01*
X147112673Y-93160221D01*
X147112675Y-93160225D01*
X147112676Y-93160227D01*
X147112678Y-93160231D01*
X147216698Y-93315908D01*
X147349092Y-93448302D01*
X147504769Y-93552322D01*
X147536723Y-93565557D01*
X147677741Y-93623970D01*
X147677743Y-93623970D01*
X147677749Y-93623973D01*
X147861384Y-93660500D01*
X147861387Y-93660500D01*
X148048613Y-93660500D01*
X148048616Y-93660500D01*
X148232251Y-93623973D01*
X148405231Y-93552322D01*
X148560908Y-93448302D01*
X148693302Y-93315908D01*
X148797322Y-93160231D01*
X148797325Y-93160223D01*
X148797327Y-93160221D01*
X148868970Y-92987258D01*
X148868969Y-92987258D01*
X148868973Y-92987251D01*
X148869744Y-92983370D01*
X148873551Y-92964240D01*
X148894387Y-92933058D01*
X148921609Y-92924800D01*
X159515731Y-92924800D01*
X159550379Y-92939152D01*
X160138323Y-93527097D01*
X160138324Y-93527097D01*
X160138326Y-93527099D01*
X160217274Y-93559800D01*
X167530731Y-93559800D01*
X167565379Y-93574152D01*
X168153323Y-94162097D01*
X168153324Y-94162097D01*
X168153326Y-94162099D01*
X168232274Y-94194800D01*
X168485533Y-94194800D01*
X168520181Y-94209152D01*
X168527966Y-94219296D01*
X168549511Y-94256613D01*
X168633387Y-94340489D01*
X168736114Y-94399799D01*
X168764758Y-94407474D01*
X168850688Y-94430500D01*
X168850691Y-94430500D01*
X168969311Y-94430500D01*
X169026597Y-94415149D01*
X169083886Y-94399799D01*
X169186613Y-94340489D01*
X169270489Y-94256613D01*
X169329799Y-94153886D01*
X169345149Y-94096597D01*
X169360500Y-94039311D01*
X169360500Y-93920688D01*
X169329799Y-93806115D01*
X169329798Y-93806112D01*
X169270488Y-93703386D01*
X169186613Y-93619511D01*
X169083887Y-93560201D01*
X169083884Y-93560200D01*
X168969312Y-93529500D01*
X168969309Y-93529500D01*
X168850691Y-93529500D01*
X168850688Y-93529500D01*
X168736115Y-93560200D01*
X168736112Y-93560201D01*
X168633386Y-93619511D01*
X168633386Y-93619512D01*
X168549513Y-93703384D01*
X168527968Y-93740701D01*
X168498214Y-93763531D01*
X168485533Y-93765200D01*
X168384269Y-93765200D01*
X168349621Y-93750848D01*
X167761677Y-93162903D01*
X167755227Y-93160231D01*
X167738551Y-93153323D01*
X167738550Y-93153322D01*
X167682730Y-93130201D01*
X167682727Y-93130200D01*
X167682726Y-93130200D01*
X167682724Y-93130200D01*
X160369269Y-93130200D01*
X160334621Y-93115848D01*
X159746677Y-92527903D01*
X159746675Y-92527902D01*
X159723551Y-92518323D01*
X159723550Y-92518322D01*
X159667730Y-92495201D01*
X159667727Y-92495200D01*
X159667726Y-92495200D01*
X159667724Y-92495200D01*
X148921609Y-92495200D01*
X148886961Y-92480848D01*
X148873551Y-92455760D01*
X148868975Y-92432759D01*
X148868973Y-92432751D01*
X148868973Y-92432749D01*
X148797322Y-92259769D01*
X148693302Y-92104092D01*
X148560908Y-91971698D01*
X148405231Y-91867678D01*
X148405227Y-91867676D01*
X148405225Y-91867675D01*
X148232258Y-91796029D01*
X148232248Y-91796026D01*
X148158194Y-91781296D01*
X148048616Y-91759500D01*
X147861384Y-91759500D01*
X147769986Y-91777680D01*
X147677751Y-91796026D01*
X147677741Y-91796029D01*
X147504774Y-91867675D01*
X147504770Y-91867677D01*
X147504769Y-91867678D01*
X147465195Y-91894120D01*
X147349092Y-91971697D01*
X147216697Y-92104092D01*
X147112675Y-92259774D01*
X147041029Y-92432741D01*
X147041026Y-92432751D01*
X147024006Y-92518322D01*
X147004500Y-92616384D01*
X146202900Y-92616384D01*
X146202900Y-90076384D01*
X147004500Y-90076384D01*
X147004500Y-90263616D01*
X147028605Y-90384800D01*
X147041026Y-90447248D01*
X147041029Y-90447258D01*
X147112675Y-90620225D01*
X147112676Y-90620227D01*
X147112678Y-90620231D01*
X147216698Y-90775908D01*
X147349092Y-90908302D01*
X147504769Y-91012322D01*
X147536723Y-91025557D01*
X147677741Y-91083970D01*
X147677743Y-91083970D01*
X147677749Y-91083973D01*
X147861384Y-91120500D01*
X147861387Y-91120500D01*
X148048613Y-91120500D01*
X148048616Y-91120500D01*
X148232251Y-91083973D01*
X148405231Y-91012322D01*
X148560908Y-90908302D01*
X148693302Y-90775908D01*
X148797322Y-90620231D01*
X148868973Y-90447251D01*
X148869744Y-90443370D01*
X148873551Y-90424240D01*
X148894387Y-90393058D01*
X148921609Y-90384800D01*
X162990731Y-90384800D01*
X163025379Y-90399152D01*
X164728321Y-92102096D01*
X164728324Y-92102098D01*
X164728325Y-92102099D01*
X164774570Y-92121253D01*
X164774571Y-92121254D01*
X164774572Y-92121254D01*
X164807274Y-92134800D01*
X168010731Y-92134800D01*
X168045379Y-92149152D01*
X168788322Y-92892096D01*
X168788324Y-92892097D01*
X168788326Y-92892099D01*
X168827800Y-92908449D01*
X168867274Y-92924800D01*
X169120533Y-92924800D01*
X169155181Y-92939152D01*
X169162966Y-92949296D01*
X169184511Y-92986613D01*
X169268387Y-93070489D01*
X169371114Y-93129799D01*
X169399758Y-93137474D01*
X169485688Y-93160500D01*
X169485691Y-93160500D01*
X169604311Y-93160500D01*
X169661597Y-93145149D01*
X169718886Y-93129799D01*
X169821613Y-93070489D01*
X169905489Y-92986613D01*
X169964799Y-92883886D01*
X169980149Y-92826597D01*
X169995500Y-92769311D01*
X169995500Y-92650688D01*
X169964799Y-92536115D01*
X169964798Y-92536112D01*
X169905488Y-92433386D01*
X169821613Y-92349511D01*
X169718887Y-92290201D01*
X169718884Y-92290200D01*
X169604312Y-92259500D01*
X169604309Y-92259500D01*
X169485691Y-92259500D01*
X169485688Y-92259500D01*
X169371115Y-92290200D01*
X169371112Y-92290201D01*
X169268386Y-92349511D01*
X169268386Y-92349512D01*
X169184513Y-92433384D01*
X169162968Y-92470701D01*
X169133214Y-92493531D01*
X169120533Y-92495200D01*
X169019269Y-92495200D01*
X168984621Y-92480848D01*
X168241677Y-91737903D01*
X168241675Y-91737902D01*
X168218551Y-91728323D01*
X168218550Y-91728322D01*
X168162730Y-91705201D01*
X168162727Y-91705200D01*
X168162726Y-91705200D01*
X168162724Y-91705200D01*
X164959270Y-91705200D01*
X164924622Y-91690848D01*
X163221677Y-89987903D01*
X163221675Y-89987902D01*
X163198551Y-89978323D01*
X163198550Y-89978322D01*
X163142730Y-89955201D01*
X163142727Y-89955200D01*
X163142726Y-89955200D01*
X163142724Y-89955200D01*
X148921609Y-89955200D01*
X148886961Y-89940848D01*
X148873551Y-89915760D01*
X148868975Y-89892759D01*
X148868973Y-89892751D01*
X148868973Y-89892749D01*
X148797322Y-89719769D01*
X148693302Y-89564092D01*
X148560908Y-89431698D01*
X148405231Y-89327678D01*
X148405227Y-89327676D01*
X148405225Y-89327675D01*
X148232258Y-89256029D01*
X148232248Y-89256026D01*
X148158194Y-89241296D01*
X148048616Y-89219500D01*
X147861384Y-89219500D01*
X147769986Y-89237680D01*
X147677751Y-89256026D01*
X147677741Y-89256029D01*
X147504774Y-89327675D01*
X147504770Y-89327677D01*
X147504769Y-89327678D01*
X147465195Y-89354120D01*
X147349092Y-89431697D01*
X147216697Y-89564092D01*
X147112675Y-89719774D01*
X147041029Y-89892741D01*
X147041026Y-89892751D01*
X147024006Y-89978322D01*
X147004500Y-90076384D01*
X146202900Y-90076384D01*
X146202900Y-87536384D01*
X147004500Y-87536384D01*
X147004500Y-87723616D01*
X147028605Y-87844800D01*
X147041026Y-87907248D01*
X147041029Y-87907258D01*
X147112675Y-88080225D01*
X147112676Y-88080227D01*
X147112678Y-88080231D01*
X147216698Y-88235908D01*
X147349092Y-88368302D01*
X147504769Y-88472322D01*
X147504774Y-88472324D01*
X147677741Y-88543970D01*
X147677743Y-88543970D01*
X147677749Y-88543973D01*
X147861384Y-88580500D01*
X147861387Y-88580500D01*
X148048613Y-88580500D01*
X148048616Y-88580500D01*
X148232251Y-88543973D01*
X148405231Y-88472322D01*
X148560908Y-88368302D01*
X148693302Y-88235908D01*
X148797322Y-88080231D01*
X148868973Y-87907251D01*
X148869744Y-87903370D01*
X148873551Y-87884240D01*
X148894387Y-87853058D01*
X148921609Y-87844800D01*
X163755731Y-87844800D01*
X163790379Y-87859152D01*
X166883323Y-90952097D01*
X166883324Y-90952097D01*
X166883326Y-90952099D01*
X166962274Y-90984800D01*
X167047727Y-90984800D01*
X169400731Y-90984800D01*
X169435379Y-90999152D01*
X169727968Y-91291741D01*
X169742320Y-91326389D01*
X169740651Y-91339070D01*
X169729500Y-91380690D01*
X169729500Y-91499311D01*
X169760200Y-91613884D01*
X169760201Y-91613887D01*
X169804635Y-91690848D01*
X169819511Y-91716613D01*
X169903387Y-91800489D01*
X170006114Y-91859799D01*
X170034758Y-91867474D01*
X170120688Y-91890500D01*
X170120691Y-91890500D01*
X170239311Y-91890500D01*
X170296597Y-91875149D01*
X170353886Y-91859799D01*
X170456613Y-91800489D01*
X170540489Y-91716613D01*
X170599799Y-91613886D01*
X170615149Y-91556597D01*
X170630500Y-91499311D01*
X170630500Y-91380688D01*
X170599799Y-91266115D01*
X170599798Y-91266112D01*
X170540488Y-91163386D01*
X170456613Y-91079511D01*
X170353887Y-91020201D01*
X170353884Y-91020200D01*
X170239312Y-90989500D01*
X170239309Y-90989500D01*
X170120691Y-90989500D01*
X170120690Y-90989500D01*
X170079071Y-91000651D01*
X170041889Y-90995755D01*
X170031742Y-90987968D01*
X169631677Y-90587903D01*
X169631675Y-90587902D01*
X169608551Y-90578323D01*
X169608550Y-90578322D01*
X169552730Y-90555201D01*
X169552727Y-90555200D01*
X169552726Y-90555200D01*
X169552724Y-90555200D01*
X167114269Y-90555200D01*
X167079621Y-90540848D01*
X163986677Y-87447903D01*
X163986675Y-87447902D01*
X163963551Y-87438323D01*
X163963550Y-87438322D01*
X163907730Y-87415201D01*
X163907727Y-87415200D01*
X163907726Y-87415200D01*
X163907724Y-87415200D01*
X148921609Y-87415200D01*
X148886961Y-87400848D01*
X148873551Y-87375760D01*
X148868975Y-87352759D01*
X148868973Y-87352751D01*
X148868973Y-87352749D01*
X148797322Y-87179769D01*
X148693302Y-87024092D01*
X148560908Y-86891698D01*
X148405231Y-86787678D01*
X148405227Y-86787676D01*
X148405225Y-86787675D01*
X148232258Y-86716029D01*
X148232248Y-86716026D01*
X148158194Y-86701296D01*
X148048616Y-86679500D01*
X147861384Y-86679500D01*
X147769986Y-86697680D01*
X147677751Y-86716026D01*
X147677741Y-86716029D01*
X147504774Y-86787675D01*
X147504770Y-86787677D01*
X147504769Y-86787678D01*
X147465195Y-86814120D01*
X147349092Y-86891697D01*
X147216697Y-87024092D01*
X147149527Y-87124621D01*
X147121347Y-87166796D01*
X147112675Y-87179774D01*
X147041029Y-87352741D01*
X147041026Y-87352751D01*
X147024006Y-87438322D01*
X147004500Y-87536384D01*
X146202900Y-87536384D01*
X146202900Y-84230095D01*
X147004500Y-84230095D01*
X147004500Y-85949894D01*
X147004501Y-85949898D01*
X147010331Y-85979213D01*
X147010331Y-85979214D01*
X147010332Y-85979215D01*
X147010332Y-85979216D01*
X147032542Y-86012456D01*
X147032543Y-86012457D01*
X147065787Y-86034669D01*
X147095101Y-86040500D01*
X148814898Y-86040499D01*
X148844213Y-86034669D01*
X148877457Y-86012457D01*
X148899669Y-85979213D01*
X148905500Y-85949899D01*
X148905499Y-84230102D01*
X148899669Y-84200787D01*
X148899667Y-84200784D01*
X148899667Y-84200783D01*
X148877457Y-84167543D01*
X148844212Y-84145330D01*
X148814901Y-84139500D01*
X147095105Y-84139500D01*
X147095104Y-84139500D01*
X147095102Y-84139501D01*
X147065787Y-84145331D01*
X147065786Y-84145331D01*
X147065784Y-84145332D01*
X147065783Y-84145332D01*
X147032543Y-84167542D01*
X147010330Y-84200786D01*
X147010330Y-84200787D01*
X147004500Y-84230095D01*
X146202900Y-84230095D01*
X146202900Y-83823213D01*
X146203319Y-83816817D01*
X146218485Y-83701618D01*
X146221796Y-83689263D01*
X146265021Y-83584908D01*
X146271414Y-83573833D01*
X146340182Y-83484214D01*
X146349214Y-83475182D01*
X146438833Y-83406414D01*
X146449908Y-83400021D01*
X146554263Y-83356796D01*
X146566617Y-83353485D01*
X146681817Y-83338318D01*
X146688213Y-83337900D01*
X146719898Y-83337900D01*
X156126370Y-83337900D01*
X156161018Y-83352252D01*
G37*
%TD.AperFunction*%
%TD*%
M02*
