%TF.GenerationSoftware,KiCad,Pcbnew,9.0.2+dfsg-1*%
%TF.CreationDate,2025-06-16T15:36:48+08:00*%
%TF.ProjectId,sd,73642e6b-6963-4616-945f-706362585858,d*%
%TF.SameCoordinates,Original*%
%TF.FileFunction,Copper,L1,Top*%
%TF.FilePolarity,Positive*%
%FSLAX46Y46*%
G04 Gerber Fmt 4.6, Leading zero omitted, Abs format (unit mm)*
G04 Created by KiCad (PCBNEW 9.0.2+dfsg-1) date 2025-06-16 15:36:48*
%MOMM*%
%LPD*%
G01*
G04 APERTURE LIST*
G04 Aperture macros list*
%AMRoundRect*
0 Rectangle with rounded corners*
0 $1 Rounding radius*
0 $2 $3 $4 $5 $6 $7 $8 $9 X,Y pos of 4 corners*
0 Add a 4 corners polygon primitive as box body*
4,1,4,$2,$3,$4,$5,$6,$7,$8,$9,$2,$3,0*
0 Add four circle primitives for the rounded corners*
1,1,$1+$1,$2,$3*
1,1,$1+$1,$4,$5*
1,1,$1+$1,$6,$7*
1,1,$1+$1,$8,$9*
0 Add four rect primitives between the rounded corners*
20,1,$1+$1,$2,$3,$4,$5,0*
20,1,$1+$1,$4,$5,$6,$7,0*
20,1,$1+$1,$6,$7,$8,$9,0*
20,1,$1+$1,$8,$9,$2,$3,0*%
G04 Aperture macros list end*
%TA.AperFunction,SMDPad,CuDef*%
%ADD10RoundRect,0.200000X-0.275000X0.200000X-0.275000X-0.200000X0.275000X-0.200000X0.275000X0.200000X0*%
%TD*%
%TA.AperFunction,SMDPad,CuDef*%
%ADD11R,1.750000X0.700000*%
%TD*%
%TA.AperFunction,SMDPad,CuDef*%
%ADD12R,1.000000X1.450000*%
%TD*%
%TA.AperFunction,SMDPad,CuDef*%
%ADD13R,1.550000X1.000000*%
%TD*%
%TA.AperFunction,SMDPad,CuDef*%
%ADD14R,1.500000X0.800000*%
%TD*%
%TA.AperFunction,SMDPad,CuDef*%
%ADD15R,1.500000X1.300000*%
%TD*%
%TA.AperFunction,SMDPad,CuDef*%
%ADD16R,1.500000X1.500000*%
%TD*%
%TA.AperFunction,SMDPad,CuDef*%
%ADD17R,1.400000X0.800000*%
%TD*%
%TA.AperFunction,ComponentPad*%
%ADD18R,1.700000X1.700000*%
%TD*%
%TA.AperFunction,ComponentPad*%
%ADD19C,1.700000*%
%TD*%
%TA.AperFunction,SMDPad,CuDef*%
%ADD20RoundRect,0.225000X0.250000X-0.225000X0.250000X0.225000X-0.250000X0.225000X-0.250000X-0.225000X0*%
%TD*%
%TA.AperFunction,ViaPad*%
%ADD21C,0.700000*%
%TD*%
%TA.AperFunction,Conductor*%
%ADD22C,0.228600*%
%TD*%
%TA.AperFunction,Conductor*%
%ADD23C,0.457200*%
%TD*%
G04 APERTURE END LIST*
D10*
%TO.P,R5,1*%
%TO.N,VCC*%
X155575000Y-95695000D03*
%TO.P,R5,2*%
%TO.N,/D1*%
X155575000Y-97345000D03*
%TD*%
D11*
%TO.P,J1,1,DAT2*%
%TO.N,/D2*%
X171757500Y-92055000D03*
%TO.P,J1,2,DAT3/CD*%
%TO.N,/D3*%
X171757500Y-93155000D03*
%TO.P,J1,3,CMD*%
%TO.N,/CMD*%
X171757500Y-94255000D03*
%TO.P,J1,4,VDD*%
%TO.N,VCC*%
X171757500Y-95355000D03*
%TO.P,J1,5,CLK*%
%TO.N,/CLK*%
X171757500Y-96455000D03*
%TO.P,J1,6,VSS*%
%TO.N,GND*%
X171757500Y-97555000D03*
%TO.P,J1,7,DAT0*%
%TO.N,/D0*%
X171757500Y-98655000D03*
%TO.P,J1,8,DAT1*%
%TO.N,/D1*%
X171757500Y-99755000D03*
D12*
%TO.P,J1,9,DET_B*%
%TO.N,GND*%
X162532500Y-100880000D03*
D13*
%TO.P,J1,10,DET_A*%
%TO.N,/DET*%
X160957500Y-89655000D03*
D14*
%TO.P,J1,11,SHIELD*%
%TO.N,GND*%
X164032500Y-101205000D03*
D15*
X171632500Y-100955000D03*
D16*
X171632500Y-89605000D03*
D17*
X163382500Y-89255000D03*
%TD*%
D10*
%TO.P,R1,1*%
%TO.N,VCC*%
X153670000Y-89345000D03*
%TO.P,R1,2*%
%TO.N,/D2*%
X153670000Y-90995000D03*
%TD*%
%TO.P,R2,1*%
%TO.N,VCC*%
X155575000Y-89345000D03*
%TO.P,R2,2*%
%TO.N,/D3*%
X155575000Y-90995000D03*
%TD*%
D18*
%TO.P,J2,1,Pin_1*%
%TO.N,VCC*%
X147955000Y-85090000D03*
D19*
%TO.P,J2,2,Pin_2*%
%TO.N,/D2*%
X147955000Y-87630000D03*
%TO.P,J2,3,Pin_3*%
%TO.N,/D3*%
X147955000Y-90170000D03*
%TO.P,J2,4,Pin_4*%
%TO.N,/CMD*%
X147955000Y-92710000D03*
%TO.P,J2,5,Pin_5*%
%TO.N,/CLK*%
X147955000Y-95250000D03*
%TO.P,J2,6,Pin_6*%
%TO.N,/D0*%
X147955000Y-97790000D03*
%TO.P,J2,7,Pin_7*%
%TO.N,/D1*%
X147955000Y-100330000D03*
%TO.P,J2,8,Pin_8*%
%TO.N,/DET*%
X147955000Y-102870000D03*
%TO.P,J2,9,Pin_9*%
%TO.N,GND*%
X147955000Y-105410000D03*
%TD*%
D10*
%TO.P,R6,1*%
%TO.N,VCC*%
X157480000Y-95695000D03*
%TO.P,R6,2*%
%TO.N,/DET*%
X157480000Y-97345000D03*
%TD*%
%TO.P,R4,1*%
%TO.N,VCC*%
X153670000Y-95695000D03*
%TO.P,R4,2*%
%TO.N,/D0*%
X153670000Y-97345000D03*
%TD*%
D20*
%TO.P,C1,1*%
%TO.N,VCC*%
X153670000Y-85865000D03*
%TO.P,C1,2*%
%TO.N,GND*%
X153670000Y-84315000D03*
%TD*%
D10*
%TO.P,R3,1*%
%TO.N,VCC*%
X157480000Y-89345000D03*
%TO.P,R3,2*%
%TO.N,/CMD*%
X157480000Y-90995000D03*
%TD*%
D20*
%TO.P,C2,1*%
%TO.N,VCC*%
X155575000Y-85865000D03*
%TO.P,C2,2*%
%TO.N,GND*%
X155575000Y-84315000D03*
%TD*%
D21*
%TO.N,GND*%
X168910000Y-89535000D03*
X156845000Y-105410000D03*
X156845000Y-99060000D03*
X168910000Y-102235000D03*
X170180000Y-102235000D03*
X151765000Y-86995000D03*
X150495000Y-104140000D03*
X150495000Y-88900000D03*
X151765000Y-96520000D03*
X173990000Y-98425000D03*
X155575000Y-105410000D03*
X163830000Y-99060000D03*
X150495000Y-84455000D03*
X150495000Y-96520000D03*
X151765000Y-101600000D03*
X151765000Y-84455000D03*
X150495000Y-86995000D03*
X173990000Y-90805000D03*
X153670000Y-93980000D03*
X167640000Y-102235000D03*
X168275000Y-99060000D03*
X170180000Y-89535000D03*
X154305000Y-105410000D03*
X150495000Y-91440000D03*
X150495000Y-99060000D03*
X151765000Y-104140000D03*
X173990000Y-93345000D03*
X156845000Y-84896400D03*
X151765000Y-91440000D03*
X151765000Y-88900000D03*
X151765000Y-93980000D03*
X165100000Y-90170000D03*
X150495000Y-93980000D03*
X163830000Y-95250000D03*
X163830000Y-92075000D03*
X167640000Y-89535000D03*
X159385000Y-91440000D03*
X173990000Y-100965000D03*
X159385000Y-99060000D03*
X173990000Y-95885000D03*
X168910000Y-91440000D03*
X156845000Y-86995000D03*
X155575000Y-93980000D03*
X159385000Y-93980000D03*
X150495000Y-101600000D03*
X151765000Y-99060000D03*
%TO.N,/CLK*%
X170180000Y-96520000D03*
%TO.N,/D1*%
X170180000Y-99695000D03*
%TO.N,/D3*%
X169545000Y-92710000D03*
%TO.N,/D0*%
X170180000Y-98425000D03*
%TO.N,/CMD*%
X168910000Y-93980000D03*
%TO.N,/D2*%
X170180000Y-91440000D03*
%TD*%
D22*
%TO.N,VCC*%
X153670000Y-85865000D02*
X153670000Y-89345000D01*
D23*
X156985000Y-85865000D02*
X159110000Y-87990000D01*
D22*
X157480000Y-95695000D02*
X158075000Y-95695000D01*
D23*
X167480000Y-90645000D02*
X167480000Y-94530000D01*
X155575000Y-85865000D02*
X156985000Y-85865000D01*
D22*
X158075000Y-95695000D02*
X158560000Y-95210000D01*
D23*
X159110000Y-87990000D02*
X164825000Y-87990000D01*
X168305000Y-95355000D02*
X171757500Y-95355000D01*
D22*
X158560000Y-89660000D02*
X158245000Y-89345000D01*
X158560000Y-95210000D02*
X158560000Y-89660000D01*
X153670000Y-89345000D02*
X155575000Y-89345000D01*
X158245000Y-89345000D02*
X157480000Y-89345000D01*
X153670000Y-95695000D02*
X155575000Y-95695000D01*
D23*
X167480000Y-94530000D02*
X168305000Y-95355000D01*
D22*
X155575000Y-89345000D02*
X157480000Y-89345000D01*
D23*
X153670000Y-85865000D02*
X150000000Y-85865000D01*
D22*
X155575000Y-95695000D02*
X157480000Y-95695000D01*
D23*
X164825000Y-87990000D02*
X167480000Y-90645000D01*
X147955000Y-85090000D02*
X149225000Y-85090000D01*
X153670000Y-85865000D02*
X155575000Y-85865000D01*
X150000000Y-85865000D02*
X149225000Y-85090000D01*
D22*
%TO.N,/CLK*%
X170245000Y-96455000D02*
X170180000Y-96520000D01*
X171757500Y-96455000D02*
X170245000Y-96455000D01*
%TO.N,/D1*%
X153670000Y-100330000D02*
X147955000Y-100330000D01*
X170240000Y-99755000D02*
X170180000Y-99695000D01*
X155575000Y-98425000D02*
X153670000Y-100330000D01*
X171757500Y-99755000D02*
X170240000Y-99755000D01*
X155575000Y-97345000D02*
X155575000Y-98425000D01*
%TO.N,/DET*%
X157480000Y-97345000D02*
X158905000Y-97345000D01*
X154940000Y-102870000D02*
X147955000Y-102870000D01*
X159842500Y-94982500D02*
X160957500Y-93867500D01*
X158905000Y-97345000D02*
X159842500Y-96407500D01*
X160957500Y-93867500D02*
X160957500Y-89655000D01*
X157480000Y-97345000D02*
X157480000Y-100330000D01*
X157480000Y-100330000D02*
X154940000Y-102870000D01*
X159842500Y-96407500D02*
X159842500Y-94982500D01*
%TO.N,/D3*%
X155575000Y-92075000D02*
X155575000Y-90995000D01*
X147955000Y-90170000D02*
X150152500Y-92367500D01*
X150152500Y-92367500D02*
X155282500Y-92367500D01*
X155282500Y-92367500D02*
X155575000Y-92075000D01*
X171757500Y-93155000D02*
X169990000Y-93155000D01*
X169990000Y-93155000D02*
X169545000Y-92710000D01*
%TO.N,/D0*%
X171757500Y-98655000D02*
X170410000Y-98655000D01*
X170410000Y-98655000D02*
X170180000Y-98425000D01*
X149860000Y-97790000D02*
X150305000Y-97345000D01*
X147955000Y-97790000D02*
X149860000Y-97790000D01*
X150305000Y-97345000D02*
X153670000Y-97345000D01*
%TO.N,/CMD*%
X149530000Y-93170000D02*
X156385000Y-93170000D01*
X157480000Y-92075000D02*
X157480000Y-90995000D01*
X149070000Y-92710000D02*
X149530000Y-93170000D01*
X170310000Y-94255000D02*
X171757500Y-94255000D01*
X170035000Y-93980000D02*
X170310000Y-94255000D01*
X156385000Y-93170000D02*
X157480000Y-92075000D01*
X168910000Y-93980000D02*
X170035000Y-93980000D01*
X147955000Y-92710000D02*
X149070000Y-92710000D01*
%TO.N,/D2*%
X147955000Y-87630000D02*
X150495000Y-90170000D01*
X170180000Y-91440000D02*
X170795000Y-92055000D01*
X152845000Y-90170000D02*
X153670000Y-90995000D01*
X170795000Y-92055000D02*
X171757500Y-92055000D01*
X150495000Y-90170000D02*
X152845000Y-90170000D01*
%TD*%
%TA.AperFunction,Conductor*%
%TO.N,GND*%
G36*
X156161018Y-83352252D02*
G01*
X159933387Y-87124621D01*
X159933388Y-87124621D01*
X159933390Y-87124623D01*
X159966309Y-87138258D01*
X159989586Y-87147900D01*
X159989587Y-87147900D01*
X160050414Y-87147900D01*
X175860102Y-87147900D01*
X175891787Y-87147900D01*
X175898183Y-87148319D01*
X176013381Y-87163485D01*
X176025736Y-87166796D01*
X176130091Y-87210021D01*
X176141169Y-87216417D01*
X176230781Y-87285179D01*
X176239820Y-87294218D01*
X176284727Y-87352741D01*
X176308582Y-87383830D01*
X176314978Y-87394908D01*
X176358203Y-87499263D01*
X176361514Y-87511618D01*
X176376681Y-87626817D01*
X176377100Y-87633213D01*
X176377100Y-102866786D01*
X176376681Y-102873182D01*
X176361514Y-102988381D01*
X176358203Y-103000736D01*
X176314978Y-103105091D01*
X176308582Y-103116169D01*
X176239823Y-103205778D01*
X176230778Y-103214823D01*
X176141169Y-103283582D01*
X176130091Y-103289978D01*
X176025736Y-103333203D01*
X176013381Y-103336514D01*
X175898183Y-103351681D01*
X175891787Y-103352100D01*
X159989586Y-103352100D01*
X159966309Y-103361740D01*
X159966309Y-103361741D01*
X159955336Y-103366286D01*
X159933388Y-103375377D01*
X156161018Y-107147748D01*
X156126370Y-107162100D01*
X146688213Y-107162100D01*
X146681817Y-107161681D01*
X146566618Y-107146514D01*
X146554263Y-107143203D01*
X146449908Y-107099978D01*
X146438830Y-107093582D01*
X146386216Y-107053210D01*
X146349218Y-107024820D01*
X146340179Y-107015781D01*
X146271417Y-106926169D01*
X146265021Y-106915091D01*
X146221796Y-106810736D01*
X146218485Y-106798381D01*
X146203319Y-106683182D01*
X146202900Y-106676786D01*
X146202900Y-105316427D01*
X147005000Y-105316427D01*
X147005000Y-105503572D01*
X147041505Y-105687093D01*
X147041510Y-105687112D01*
X147113119Y-105859990D01*
X147213441Y-106010135D01*
X147213442Y-106010135D01*
X147537210Y-105686366D01*
X147554901Y-105717007D01*
X147647993Y-105810099D01*
X147678631Y-105827788D01*
X147354863Y-106151556D01*
X147354863Y-106151557D01*
X147505009Y-106251880D01*
X147677887Y-106323489D01*
X147677906Y-106323494D01*
X147861427Y-106359999D01*
X147861434Y-106360000D01*
X148048566Y-106360000D01*
X148048572Y-106359999D01*
X148232093Y-106323494D01*
X148232112Y-106323489D01*
X148404990Y-106251880D01*
X148555136Y-106151556D01*
X148231367Y-105827788D01*
X148262007Y-105810099D01*
X148355099Y-105717007D01*
X148372788Y-105686367D01*
X148696556Y-106010136D01*
X148796880Y-105859990D01*
X148868489Y-105687112D01*
X148868494Y-105687093D01*
X148904999Y-105503572D01*
X148905000Y-105503565D01*
X148905000Y-105316434D01*
X148904999Y-105316427D01*
X148868494Y-105132906D01*
X148868489Y-105132887D01*
X148796880Y-104960009D01*
X148696557Y-104809863D01*
X148696556Y-104809863D01*
X148372788Y-105133631D01*
X148355099Y-105102993D01*
X148262007Y-105009901D01*
X148231366Y-104992210D01*
X148555135Y-104668442D01*
X148555135Y-104668441D01*
X148404990Y-104568119D01*
X148232112Y-104496510D01*
X148232093Y-104496505D01*
X148048572Y-104460000D01*
X147861427Y-104460000D01*
X147677906Y-104496505D01*
X147677887Y-104496510D01*
X147505005Y-104568120D01*
X147354863Y-104668441D01*
X147354863Y-104668442D01*
X147678632Y-104992211D01*
X147647993Y-105009901D01*
X147554901Y-105102993D01*
X147537211Y-105133632D01*
X147213442Y-104809863D01*
X147213441Y-104809863D01*
X147113120Y-104960005D01*
X147041510Y-105132887D01*
X147041505Y-105132906D01*
X147005000Y-105316427D01*
X146202900Y-105316427D01*
X146202900Y-102776384D01*
X147004500Y-102776384D01*
X147004500Y-102963616D01*
X147022100Y-103052098D01*
X147041026Y-103147248D01*
X147041029Y-103147258D01*
X147112675Y-103320225D01*
X147112676Y-103320227D01*
X147112678Y-103320231D01*
X147216698Y-103475908D01*
X147349092Y-103608302D01*
X147504769Y-103712322D01*
X147504774Y-103712324D01*
X147677741Y-103783970D01*
X147677743Y-103783970D01*
X147677749Y-103783973D01*
X147861384Y-103820500D01*
X147861387Y-103820500D01*
X148048613Y-103820500D01*
X148048616Y-103820500D01*
X148232251Y-103783973D01*
X148405231Y-103712322D01*
X148560908Y-103608302D01*
X148693302Y-103475908D01*
X148797322Y-103320231D01*
X148868973Y-103147251D01*
X148869744Y-103143370D01*
X148873551Y-103124240D01*
X148894387Y-103093058D01*
X148921609Y-103084800D01*
X154982724Y-103084800D01*
X154982726Y-103084800D01*
X155038551Y-103061676D01*
X155061675Y-103052098D01*
X156086098Y-102027675D01*
X156498928Y-101614845D01*
X161932501Y-101614845D01*
X161938302Y-101644018D01*
X161938304Y-101644022D01*
X161960404Y-101677097D01*
X161993480Y-101699197D01*
X162022654Y-101704999D01*
X162432499Y-101704999D01*
X162632500Y-101704999D01*
X163042345Y-101704999D01*
X163042345Y-101704998D01*
X163071518Y-101699197D01*
X163071522Y-101699195D01*
X163104596Y-101677096D01*
X163116756Y-101658896D01*
X163147937Y-101638059D01*
X163184720Y-101645374D01*
X163198241Y-101658894D01*
X163210404Y-101677097D01*
X163243480Y-101699197D01*
X163272654Y-101704999D01*
X163932499Y-101704999D01*
X164132500Y-101704999D01*
X164792345Y-101704999D01*
X164792345Y-101704998D01*
X164821518Y-101699197D01*
X164821522Y-101699195D01*
X164854597Y-101677095D01*
X164876697Y-101644019D01*
X164882500Y-101614845D01*
X170782501Y-101614845D01*
X170788302Y-101644018D01*
X170788304Y-101644022D01*
X170810404Y-101677097D01*
X170843480Y-101699197D01*
X170872654Y-101704999D01*
X171532499Y-101704999D01*
X171732500Y-101704999D01*
X172392345Y-101704999D01*
X172392345Y-101704998D01*
X172421518Y-101699197D01*
X172421522Y-101699195D01*
X172454597Y-101677095D01*
X172476697Y-101644019D01*
X172482500Y-101614845D01*
X172482500Y-101055000D01*
X171732500Y-101055000D01*
X171732500Y-101704999D01*
X171532499Y-101704999D01*
X171532500Y-101704998D01*
X171532500Y-101055000D01*
X170782501Y-101055000D01*
X170782501Y-101614845D01*
X164882500Y-101614845D01*
X164882500Y-101305000D01*
X164132500Y-101305000D01*
X164132500Y-101704999D01*
X163932499Y-101704999D01*
X163932500Y-101704998D01*
X163932500Y-101105000D01*
X164132500Y-101105000D01*
X164882499Y-101105000D01*
X164882499Y-100795155D01*
X164882498Y-100795154D01*
X164876697Y-100765981D01*
X164876695Y-100765977D01*
X164854595Y-100732902D01*
X164821519Y-100710802D01*
X164792346Y-100705000D01*
X164132500Y-100705000D01*
X164132500Y-101105000D01*
X163932500Y-101105000D01*
X163932500Y-100705000D01*
X163272655Y-100705000D01*
X163272654Y-100705001D01*
X163243481Y-100710802D01*
X163243477Y-100710804D01*
X163208722Y-100734027D01*
X163171939Y-100741343D01*
X163140757Y-100720508D01*
X163132499Y-100693285D01*
X163132499Y-100155000D01*
X164882500Y-100155000D01*
X166882500Y-100155000D01*
X166882500Y-99635688D01*
X169729500Y-99635688D01*
X169729500Y-99754311D01*
X169760200Y-99868884D01*
X169760201Y-99868887D01*
X169766484Y-99879769D01*
X169819511Y-99971613D01*
X169903387Y-100055489D01*
X170006114Y-100114799D01*
X170034758Y-100122474D01*
X170120688Y-100145500D01*
X170120691Y-100145500D01*
X170239311Y-100145500D01*
X170296597Y-100130149D01*
X170353886Y-100114799D01*
X170456613Y-100055489D01*
X170527950Y-99984152D01*
X170562598Y-99969800D01*
X170733001Y-99969800D01*
X170767649Y-99984152D01*
X170782001Y-100018800D01*
X170782001Y-100114898D01*
X170787831Y-100144212D01*
X170787831Y-100144213D01*
X170810558Y-100178228D01*
X170817873Y-100215011D01*
X170810558Y-100232672D01*
X170788302Y-100265982D01*
X170782500Y-100295154D01*
X170782500Y-100855000D01*
X172482499Y-100855000D01*
X172482499Y-100295155D01*
X172482498Y-100295154D01*
X172476314Y-100264057D01*
X172483632Y-100227275D01*
X172514815Y-100206440D01*
X172524372Y-100205499D01*
X172642398Y-100205499D01*
X172671713Y-100199669D01*
X172704957Y-100177457D01*
X172727169Y-100144213D01*
X172733000Y-100114899D01*
X172732999Y-99395102D01*
X172727169Y-99365787D01*
X172727167Y-99365784D01*
X172727167Y-99365783D01*
X172704957Y-99332543D01*
X172671712Y-99310330D01*
X172642401Y-99304500D01*
X170872605Y-99304500D01*
X170872604Y-99304500D01*
X170872602Y-99304501D01*
X170843287Y-99310331D01*
X170843286Y-99310331D01*
X170843284Y-99310332D01*
X170843283Y-99310332D01*
X170810043Y-99332542D01*
X170787830Y-99365786D01*
X170787830Y-99365787D01*
X170782000Y-99395095D01*
X170782000Y-99491200D01*
X170767648Y-99525848D01*
X170733000Y-99540200D01*
X170639109Y-99540200D01*
X170604461Y-99525848D01*
X170596674Y-99515701D01*
X170582528Y-99491200D01*
X170540489Y-99418387D01*
X170456613Y-99334511D01*
X170453203Y-99332542D01*
X170353887Y-99275201D01*
X170353884Y-99275200D01*
X170239312Y-99244500D01*
X170239309Y-99244500D01*
X170120691Y-99244500D01*
X170120688Y-99244500D01*
X170006115Y-99275200D01*
X170006112Y-99275201D01*
X169903386Y-99334511D01*
X169903386Y-99334512D01*
X169819512Y-99418386D01*
X169819511Y-99418386D01*
X169760201Y-99521112D01*
X169760200Y-99521115D01*
X169729500Y-99635688D01*
X166882500Y-99635688D01*
X166882500Y-98365688D01*
X169729500Y-98365688D01*
X169729500Y-98484311D01*
X169760200Y-98598884D01*
X169760201Y-98598887D01*
X169819511Y-98701613D01*
X169903387Y-98785489D01*
X170006114Y-98844799D01*
X170034630Y-98852440D01*
X170120688Y-98875500D01*
X170120691Y-98875500D01*
X170239310Y-98875500D01*
X170252552Y-98871951D01*
X170309299Y-98856745D01*
X170340733Y-98858806D01*
X170367269Y-98869799D01*
X170367273Y-98869799D01*
X170367274Y-98869800D01*
X170733001Y-98869800D01*
X170767649Y-98884152D01*
X170782001Y-98918800D01*
X170782001Y-99014898D01*
X170787831Y-99044213D01*
X170787831Y-99044214D01*
X170787832Y-99044215D01*
X170787832Y-99044216D01*
X170810042Y-99077456D01*
X170810043Y-99077457D01*
X170843287Y-99099669D01*
X170872601Y-99105500D01*
X172642398Y-99105499D01*
X172671713Y-99099669D01*
X172704957Y-99077457D01*
X172727169Y-99044213D01*
X172733000Y-99014899D01*
X172732999Y-98295102D01*
X172727169Y-98265787D01*
X172727167Y-98265784D01*
X172727167Y-98265783D01*
X172704957Y-98232543D01*
X172671712Y-98210330D01*
X172642401Y-98204500D01*
X170872605Y-98204500D01*
X170872604Y-98204500D01*
X170872602Y-98204501D01*
X170843287Y-98210331D01*
X170843286Y-98210331D01*
X170843284Y-98210332D01*
X170843283Y-98210332D01*
X170810043Y-98232542D01*
X170787830Y-98265786D01*
X170787830Y-98265787D01*
X170782000Y-98295095D01*
X170782000Y-98391200D01*
X170767648Y-98425848D01*
X170733000Y-98440200D01*
X170679500Y-98440200D01*
X170644852Y-98425848D01*
X170630500Y-98391200D01*
X170630500Y-98365688D01*
X170603730Y-98265784D01*
X170599799Y-98251114D01*
X170540489Y-98148387D01*
X170456613Y-98064511D01*
X170367495Y-98013058D01*
X170353887Y-98005201D01*
X170353884Y-98005200D01*
X170239312Y-97974500D01*
X170239309Y-97974500D01*
X170120691Y-97974500D01*
X170120688Y-97974500D01*
X170006115Y-98005200D01*
X170006112Y-98005201D01*
X169903386Y-98064511D01*
X169903386Y-98064512D01*
X169819512Y-98148386D01*
X169819511Y-98148386D01*
X169760201Y-98251112D01*
X169760200Y-98251115D01*
X169729500Y-98365688D01*
X166882500Y-98365688D01*
X166882500Y-97914845D01*
X170782501Y-97914845D01*
X170788302Y-97944018D01*
X170788304Y-97944022D01*
X170810404Y-97977097D01*
X170843480Y-97999197D01*
X170872654Y-98004999D01*
X171657499Y-98004999D01*
X171857500Y-98004999D01*
X172642345Y-98004999D01*
X172642345Y-98004998D01*
X172671518Y-97999197D01*
X172671522Y-97999195D01*
X172704597Y-97977095D01*
X172726697Y-97944019D01*
X172732500Y-97914845D01*
X172732500Y-97655000D01*
X171857500Y-97655000D01*
X171857500Y-98004999D01*
X171657499Y-98004999D01*
X171657500Y-98004998D01*
X171657500Y-97655000D01*
X170782501Y-97655000D01*
X170782501Y-97914845D01*
X166882500Y-97914845D01*
X166882500Y-97195154D01*
X170782500Y-97195154D01*
X170782500Y-97455000D01*
X171657500Y-97455000D01*
X171857500Y-97455000D01*
X172732499Y-97455000D01*
X172732499Y-97195155D01*
X172732498Y-97195154D01*
X172726697Y-97165981D01*
X172726695Y-97165977D01*
X172704595Y-97132902D01*
X172671519Y-97110802D01*
X172642346Y-97105000D01*
X171857500Y-97105000D01*
X171857500Y-97455000D01*
X171657500Y-97455000D01*
X171657500Y-97105000D01*
X170872655Y-97105000D01*
X170872654Y-97105001D01*
X170843481Y-97110802D01*
X170843477Y-97110804D01*
X170810402Y-97132904D01*
X170788302Y-97165980D01*
X170782500Y-97195154D01*
X166882500Y-97195154D01*
X166882500Y-96460688D01*
X169729500Y-96460688D01*
X169729500Y-96579311D01*
X169760200Y-96693884D01*
X169760201Y-96693887D01*
X169774585Y-96718800D01*
X169819511Y-96796613D01*
X169903387Y-96880489D01*
X170006114Y-96939799D01*
X170034758Y-96947474D01*
X170120688Y-96970500D01*
X170120691Y-96970500D01*
X170239311Y-96970500D01*
X170296597Y-96955149D01*
X170353886Y-96939799D01*
X170456613Y-96880489D01*
X170540489Y-96796613D01*
X170599560Y-96694300D01*
X170604813Y-96690269D01*
X170607347Y-96684152D01*
X170619165Y-96679256D01*
X170629313Y-96671470D01*
X170641995Y-96669800D01*
X170733001Y-96669800D01*
X170767649Y-96684152D01*
X170782001Y-96718800D01*
X170782001Y-96814898D01*
X170787831Y-96844213D01*
X170787831Y-96844214D01*
X170787832Y-96844215D01*
X170787832Y-96844216D01*
X170809089Y-96876029D01*
X170810043Y-96877457D01*
X170843287Y-96899669D01*
X170872601Y-96905500D01*
X172642398Y-96905499D01*
X172671713Y-96899669D01*
X172704957Y-96877457D01*
X172727169Y-96844213D01*
X172733000Y-96814899D01*
X172732999Y-96095102D01*
X172727169Y-96065787D01*
X172727167Y-96065784D01*
X172727167Y-96065783D01*
X172704957Y-96032543D01*
X172671712Y-96010330D01*
X172642401Y-96004500D01*
X170872605Y-96004500D01*
X170872604Y-96004500D01*
X170872602Y-96004501D01*
X170843287Y-96010331D01*
X170843286Y-96010331D01*
X170843284Y-96010332D01*
X170843283Y-96010332D01*
X170810043Y-96032542D01*
X170787830Y-96065786D01*
X170787830Y-96065787D01*
X170782000Y-96095095D01*
X170782000Y-96191200D01*
X170767648Y-96225848D01*
X170733000Y-96240200D01*
X170557598Y-96240200D01*
X170522950Y-96225848D01*
X170456613Y-96159511D01*
X170353887Y-96100201D01*
X170353884Y-96100200D01*
X170239312Y-96069500D01*
X170239309Y-96069500D01*
X170120691Y-96069500D01*
X170120688Y-96069500D01*
X170006115Y-96100200D01*
X170006112Y-96100201D01*
X169903386Y-96159511D01*
X169903386Y-96159512D01*
X169819512Y-96243386D01*
X169819511Y-96243386D01*
X169760201Y-96346112D01*
X169760200Y-96346115D01*
X169729500Y-96460688D01*
X166882500Y-96460688D01*
X166882500Y-91655000D01*
X164882500Y-91655000D01*
X164882500Y-100155000D01*
X163132499Y-100155000D01*
X163132499Y-100145155D01*
X163132498Y-100145154D01*
X163126697Y-100115981D01*
X163126695Y-100115977D01*
X163104595Y-100082902D01*
X163071519Y-100060802D01*
X163042346Y-100055000D01*
X162632500Y-100055000D01*
X162632500Y-101704999D01*
X162432499Y-101704999D01*
X162432500Y-101704998D01*
X162432500Y-100980000D01*
X161932501Y-100980000D01*
X161932501Y-101614845D01*
X156498928Y-101614845D01*
X157188718Y-100925056D01*
X157662095Y-100451678D01*
X157662098Y-100451675D01*
X157675643Y-100418973D01*
X157694800Y-100372726D01*
X157694800Y-100145154D01*
X161932500Y-100145154D01*
X161932500Y-100780000D01*
X162432500Y-100780000D01*
X162432500Y-100055000D01*
X162022655Y-100055000D01*
X162022654Y-100055001D01*
X161993481Y-100060802D01*
X161993477Y-100060804D01*
X161960402Y-100082904D01*
X161938302Y-100115980D01*
X161932500Y-100145154D01*
X157694800Y-100145154D01*
X157694800Y-97894498D01*
X157709152Y-97859851D01*
X157743800Y-97845499D01*
X157799858Y-97845499D01*
X157799864Y-97845499D01*
X157824991Y-97842585D01*
X157927765Y-97797206D01*
X158007206Y-97717765D01*
X158052585Y-97614991D01*
X158053958Y-97603153D01*
X158072207Y-97570390D01*
X158102632Y-97559800D01*
X158947724Y-97559800D01*
X158947726Y-97559800D01*
X159003551Y-97536676D01*
X159026675Y-97527098D01*
X159348773Y-97205000D01*
X160682500Y-97205000D01*
X162532500Y-97205000D01*
X162532500Y-94705000D01*
X160682500Y-94705000D01*
X160682500Y-97205000D01*
X159348773Y-97205000D01*
X159502076Y-97051697D01*
X160024596Y-96529178D01*
X160024596Y-96529177D01*
X160024598Y-96529175D01*
X160046096Y-96477274D01*
X160057300Y-96450226D01*
X160057300Y-95091769D01*
X160071652Y-95057121D01*
X161139596Y-93989177D01*
X161139598Y-93989175D01*
X161161096Y-93937274D01*
X161172300Y-93910226D01*
X161172300Y-90304499D01*
X161186652Y-90269851D01*
X161221300Y-90255499D01*
X161742395Y-90255499D01*
X161742398Y-90255499D01*
X161771713Y-90249669D01*
X161804957Y-90227457D01*
X161827169Y-90194213D01*
X161833000Y-90164899D01*
X161833000Y-89664845D01*
X162582501Y-89664845D01*
X162588302Y-89694018D01*
X162588304Y-89694022D01*
X162610404Y-89727097D01*
X162643480Y-89749197D01*
X162672654Y-89754999D01*
X163282499Y-89754999D01*
X163482500Y-89754999D01*
X164092345Y-89754999D01*
X164092345Y-89754998D01*
X164121518Y-89749197D01*
X164121522Y-89749195D01*
X164154597Y-89727095D01*
X164176697Y-89694019D01*
X164182500Y-89664845D01*
X164182500Y-89355000D01*
X163482500Y-89355000D01*
X163482500Y-89754999D01*
X163282499Y-89754999D01*
X163282500Y-89754998D01*
X163282500Y-89355000D01*
X162582501Y-89355000D01*
X162582501Y-89664845D01*
X161833000Y-89664845D01*
X161832999Y-89145102D01*
X161827169Y-89115787D01*
X161827167Y-89115784D01*
X161827167Y-89115783D01*
X161804957Y-89082543D01*
X161771712Y-89060330D01*
X161742401Y-89054500D01*
X160172605Y-89054500D01*
X160172604Y-89054500D01*
X160172602Y-89054501D01*
X160143287Y-89060331D01*
X160143286Y-89060331D01*
X160143284Y-89060332D01*
X160143283Y-89060332D01*
X160110043Y-89082542D01*
X160087830Y-89115786D01*
X160087830Y-89115787D01*
X160082000Y-89145095D01*
X160082000Y-90164894D01*
X160082001Y-90164898D01*
X160087831Y-90194213D01*
X160087831Y-90194214D01*
X160087832Y-90194215D01*
X160087832Y-90194216D01*
X160110042Y-90227456D01*
X160110043Y-90227457D01*
X160143287Y-90249669D01*
X160172601Y-90255500D01*
X160693700Y-90255499D01*
X160728348Y-90269851D01*
X160742700Y-90304499D01*
X160742700Y-93758231D01*
X160728348Y-93792879D01*
X159660402Y-94860824D01*
X159660402Y-94860826D01*
X159627700Y-94939772D01*
X159627700Y-96298231D01*
X159613348Y-96332879D01*
X158830379Y-97115848D01*
X158795731Y-97130200D01*
X158102631Y-97130200D01*
X158067983Y-97115848D01*
X158053957Y-97086845D01*
X158052585Y-97075009D01*
X158007206Y-96972235D01*
X158007205Y-96972234D01*
X158007205Y-96972233D01*
X157927766Y-96892794D01*
X157927767Y-96892794D01*
X157824993Y-96847415D01*
X157812428Y-96845957D01*
X157799865Y-96844500D01*
X157799863Y-96844500D01*
X157160141Y-96844500D01*
X157160131Y-96844501D01*
X157135007Y-96847415D01*
X157032233Y-96892794D01*
X156952794Y-96972233D01*
X156907415Y-97075006D01*
X156904500Y-97100134D01*
X156904500Y-97589858D01*
X156904501Y-97589868D01*
X156907415Y-97614992D01*
X156952794Y-97717766D01*
X157032233Y-97797205D01*
X157135006Y-97842584D01*
X157135009Y-97842585D01*
X157160135Y-97845500D01*
X157216200Y-97845499D01*
X157250848Y-97859850D01*
X157265200Y-97894498D01*
X157265200Y-100220731D01*
X157250848Y-100255379D01*
X154865379Y-102640848D01*
X154830731Y-102655200D01*
X148921609Y-102655200D01*
X148886961Y-102640848D01*
X148873551Y-102615760D01*
X148868975Y-102592759D01*
X148868973Y-102592751D01*
X148868973Y-102592749D01*
X148797322Y-102419769D01*
X148693302Y-102264092D01*
X148560908Y-102131698D01*
X148405231Y-102027678D01*
X148405227Y-102027676D01*
X148405225Y-102027675D01*
X148232258Y-101956029D01*
X148232248Y-101956026D01*
X148158194Y-101941296D01*
X148048616Y-101919500D01*
X147861384Y-101919500D01*
X147769986Y-101937680D01*
X147677751Y-101956026D01*
X147677741Y-101956029D01*
X147504774Y-102027675D01*
X147504770Y-102027677D01*
X147504769Y-102027678D01*
X147465195Y-102054120D01*
X147349092Y-102131697D01*
X147216697Y-102264092D01*
X147112675Y-102419774D01*
X147041029Y-102592741D01*
X147041026Y-102592751D01*
X147028605Y-102655200D01*
X147004500Y-102776384D01*
X146202900Y-102776384D01*
X146202900Y-100236384D01*
X147004500Y-100236384D01*
X147004500Y-100423616D01*
X147022100Y-100512098D01*
X147041026Y-100607248D01*
X147041029Y-100607258D01*
X147112675Y-100780225D01*
X147112676Y-100780227D01*
X147112678Y-100780231D01*
X147216698Y-100935908D01*
X147349092Y-101068302D01*
X147504769Y-101172322D01*
X147504774Y-101172324D01*
X147677741Y-101243970D01*
X147677743Y-101243970D01*
X147677749Y-101243973D01*
X147861384Y-101280500D01*
X147861387Y-101280500D01*
X148048613Y-101280500D01*
X148048616Y-101280500D01*
X148232251Y-101243973D01*
X148405231Y-101172322D01*
X148560908Y-101068302D01*
X148693302Y-100935908D01*
X148797322Y-100780231D01*
X148868973Y-100607251D01*
X148869744Y-100603370D01*
X148873551Y-100584240D01*
X148894387Y-100553058D01*
X148921609Y-100544800D01*
X153712724Y-100544800D01*
X153712726Y-100544800D01*
X153768551Y-100521676D01*
X153791675Y-100512098D01*
X154763573Y-99540200D01*
X155757096Y-98546678D01*
X155757096Y-98546676D01*
X155757098Y-98546675D01*
X155771602Y-98511658D01*
X155789800Y-98467726D01*
X155789800Y-97894498D01*
X155804152Y-97859851D01*
X155838800Y-97845499D01*
X155894858Y-97845499D01*
X155894864Y-97845499D01*
X155919991Y-97842585D01*
X156022765Y-97797206D01*
X156102206Y-97717765D01*
X156147585Y-97614991D01*
X156150500Y-97589865D01*
X156150499Y-97100136D01*
X156147585Y-97075009D01*
X156102206Y-96972235D01*
X156102205Y-96972234D01*
X156102205Y-96972233D01*
X156022766Y-96892794D01*
X156022767Y-96892794D01*
X155919993Y-96847415D01*
X155907428Y-96845957D01*
X155894865Y-96844500D01*
X155894863Y-96844500D01*
X155255141Y-96844500D01*
X155255131Y-96844501D01*
X155230007Y-96847415D01*
X155127233Y-96892794D01*
X155047794Y-96972233D01*
X155002415Y-97075006D01*
X154999500Y-97100134D01*
X154999500Y-97589858D01*
X154999501Y-97589868D01*
X155002415Y-97614992D01*
X155047794Y-97717766D01*
X155127233Y-97797205D01*
X155230006Y-97842584D01*
X155230009Y-97842585D01*
X155255135Y-97845500D01*
X155311200Y-97845499D01*
X155345848Y-97859850D01*
X155360200Y-97894498D01*
X155360200Y-98315731D01*
X155345848Y-98350379D01*
X153595379Y-100100848D01*
X153560731Y-100115200D01*
X148921609Y-100115200D01*
X148886961Y-100100848D01*
X148873551Y-100075760D01*
X148868975Y-100052759D01*
X148868973Y-100052751D01*
X148868973Y-100052749D01*
X148797322Y-99879769D01*
X148693302Y-99724092D01*
X148560908Y-99591698D01*
X148405231Y-99487678D01*
X148405227Y-99487676D01*
X148405225Y-99487675D01*
X148232258Y-99416029D01*
X148232248Y-99416026D01*
X148158194Y-99401296D01*
X148048616Y-99379500D01*
X147861384Y-99379500D01*
X147782982Y-99395095D01*
X147677751Y-99416026D01*
X147677741Y-99416029D01*
X147504774Y-99487675D01*
X147504770Y-99487677D01*
X147504769Y-99487678D01*
X147499498Y-99491200D01*
X147349092Y-99591697D01*
X147216697Y-99724092D01*
X147112675Y-99879774D01*
X147041029Y-100052741D01*
X147041026Y-100052751D01*
X147028449Y-100115981D01*
X147004500Y-100236384D01*
X146202900Y-100236384D01*
X146202900Y-97696384D01*
X147004500Y-97696384D01*
X147004500Y-97883616D01*
X147024005Y-97981674D01*
X147041026Y-98067248D01*
X147041029Y-98067258D01*
X147112675Y-98240225D01*
X147112676Y-98240227D01*
X147112678Y-98240231D01*
X147216698Y-98395908D01*
X147349092Y-98528302D01*
X147504769Y-98632322D01*
X147504774Y-98632324D01*
X147677741Y-98703970D01*
X147677743Y-98703970D01*
X147677749Y-98703973D01*
X147861384Y-98740500D01*
X147861387Y-98740500D01*
X148048613Y-98740500D01*
X148048616Y-98740500D01*
X148232251Y-98703973D01*
X148405231Y-98632322D01*
X148560908Y-98528302D01*
X148693302Y-98395908D01*
X148797322Y-98240231D01*
X148868973Y-98067251D01*
X148869744Y-98063370D01*
X148873551Y-98044240D01*
X148894387Y-98013058D01*
X148921609Y-98004800D01*
X149902724Y-98004800D01*
X149902726Y-98004800D01*
X149958551Y-97981676D01*
X149981675Y-97972098D01*
X150379621Y-97574152D01*
X150414269Y-97559800D01*
X153047369Y-97559800D01*
X153082017Y-97574152D01*
X153096042Y-97603154D01*
X153097162Y-97612817D01*
X153097415Y-97614992D01*
X153142794Y-97717766D01*
X153222233Y-97797205D01*
X153325006Y-97842584D01*
X153325009Y-97842585D01*
X153350135Y-97845500D01*
X153989864Y-97845499D01*
X154014991Y-97842585D01*
X154117765Y-97797206D01*
X154197206Y-97717765D01*
X154242585Y-97614991D01*
X154245500Y-97589865D01*
X154245499Y-97100136D01*
X154242585Y-97075009D01*
X154197206Y-96972235D01*
X154197205Y-96972234D01*
X154197205Y-96972233D01*
X154117766Y-96892794D01*
X154117767Y-96892794D01*
X154014993Y-96847415D01*
X154002428Y-96845957D01*
X153989865Y-96844500D01*
X153989863Y-96844500D01*
X153350141Y-96844500D01*
X153350131Y-96844501D01*
X153325007Y-96847415D01*
X153222233Y-96892794D01*
X153142794Y-96972233D01*
X153097415Y-97075006D01*
X153096042Y-97086846D01*
X153077793Y-97119610D01*
X153047368Y-97130200D01*
X150262274Y-97130200D01*
X150206449Y-97153321D01*
X150206450Y-97153322D01*
X150183327Y-97162901D01*
X150183322Y-97162904D01*
X149785379Y-97560848D01*
X149750731Y-97575200D01*
X148921609Y-97575200D01*
X148886961Y-97560848D01*
X148873551Y-97535760D01*
X148868975Y-97512759D01*
X148868973Y-97512751D01*
X148868973Y-97512749D01*
X148845052Y-97455000D01*
X148797324Y-97339774D01*
X148797322Y-97339769D01*
X148693302Y-97184092D01*
X148560908Y-97051698D01*
X148405231Y-96947678D01*
X148405227Y-96947676D01*
X148405225Y-96947675D01*
X148232258Y-96876029D01*
X148232248Y-96876026D01*
X148158194Y-96861296D01*
X148048616Y-96839500D01*
X147861384Y-96839500D01*
X147769986Y-96857680D01*
X147677751Y-96876026D01*
X147677741Y-96876029D01*
X147504774Y-96947675D01*
X147504770Y-96947677D01*
X147504769Y-96947678D01*
X147468020Y-96972233D01*
X147349092Y-97051697D01*
X147216697Y-97184092D01*
X147112675Y-97339774D01*
X147041029Y-97512741D01*
X147041026Y-97512751D01*
X147028813Y-97574152D01*
X147004500Y-97696384D01*
X146202900Y-97696384D01*
X146202900Y-95156384D01*
X147004500Y-95156384D01*
X147004500Y-95343616D01*
X147025688Y-95450134D01*
X147041026Y-95527248D01*
X147041029Y-95527258D01*
X147112675Y-95700225D01*
X147112676Y-95700227D01*
X147112678Y-95700231D01*
X147216698Y-95855908D01*
X147349092Y-95988302D01*
X147504769Y-96092322D01*
X147536723Y-96105557D01*
X147677741Y-96163970D01*
X147677743Y-96163970D01*
X147677749Y-96163973D01*
X147861384Y-96200500D01*
X147861387Y-96200500D01*
X148048613Y-96200500D01*
X148048616Y-96200500D01*
X148232251Y-96163973D01*
X148405231Y-96092322D01*
X148560908Y-95988302D01*
X148693302Y-95855908D01*
X148797322Y-95700231D01*
X148868973Y-95527251D01*
X148905500Y-95343616D01*
X148905500Y-95156384D01*
X148868973Y-94972749D01*
X148866089Y-94965787D01*
X148797324Y-94799774D01*
X148797322Y-94799769D01*
X148693302Y-94644092D01*
X148560908Y-94511698D01*
X148405231Y-94407678D01*
X148405227Y-94407676D01*
X148405225Y-94407675D01*
X148232258Y-94336029D01*
X148232248Y-94336026D01*
X148158194Y-94321296D01*
X148048616Y-94299500D01*
X147861384Y-94299500D01*
X147769986Y-94317680D01*
X147677751Y-94336026D01*
X147677741Y-94336029D01*
X147504774Y-94407675D01*
X147504770Y-94407677D01*
X147504769Y-94407678D01*
X147465195Y-94434120D01*
X147349092Y-94511697D01*
X147216697Y-94644092D01*
X147112675Y-94799774D01*
X147041029Y-94972741D01*
X147041026Y-94972751D01*
X147024244Y-95057121D01*
X147004500Y-95156384D01*
X146202900Y-95156384D01*
X146202900Y-92616384D01*
X147004500Y-92616384D01*
X147004500Y-92803616D01*
X147028605Y-92924800D01*
X147041026Y-92987248D01*
X147041029Y-92987258D01*
X147112675Y-93160225D01*
X147112676Y-93160227D01*
X147112678Y-93160231D01*
X147216698Y-93315908D01*
X147349092Y-93448302D01*
X147504769Y-93552322D01*
X147536723Y-93565557D01*
X147677741Y-93623970D01*
X147677743Y-93623970D01*
X147677749Y-93623973D01*
X147861384Y-93660500D01*
X147861387Y-93660500D01*
X148048613Y-93660500D01*
X148048616Y-93660500D01*
X148232251Y-93623973D01*
X148405231Y-93552322D01*
X148560908Y-93448302D01*
X148693302Y-93315908D01*
X148797322Y-93160231D01*
X148868973Y-92987251D01*
X148869744Y-92983370D01*
X148873551Y-92964240D01*
X148881491Y-92952357D01*
X148886961Y-92939152D01*
X148891598Y-92937231D01*
X148894387Y-92933058D01*
X148921609Y-92924800D01*
X148960731Y-92924800D01*
X148995379Y-92939152D01*
X149408322Y-93352096D01*
X149408323Y-93352097D01*
X149408324Y-93352097D01*
X149408325Y-93352098D01*
X149431448Y-93361676D01*
X149487274Y-93384800D01*
X149487276Y-93384800D01*
X156427724Y-93384800D01*
X156427726Y-93384800D01*
X156483551Y-93361676D01*
X156506675Y-93352098D01*
X157063678Y-92795095D01*
X157662096Y-92196678D01*
X157662096Y-92196677D01*
X157662098Y-92196675D01*
X157680313Y-92152700D01*
X157694800Y-92117726D01*
X157694800Y-91544498D01*
X157709152Y-91509851D01*
X157743800Y-91495499D01*
X157799858Y-91495499D01*
X157799864Y-91495499D01*
X157824991Y-91492585D01*
X157927765Y-91447206D01*
X158007206Y-91367765D01*
X158052585Y-91264991D01*
X158055500Y-91239865D01*
X158055499Y-90750136D01*
X158052585Y-90725009D01*
X158007206Y-90622235D01*
X158007205Y-90622234D01*
X158007205Y-90622233D01*
X157927766Y-90542794D01*
X157927767Y-90542794D01*
X157824993Y-90497415D01*
X157812428Y-90495957D01*
X157799865Y-90494500D01*
X157799863Y-90494500D01*
X157160141Y-90494500D01*
X157160131Y-90494501D01*
X157135007Y-90497415D01*
X157032233Y-90542794D01*
X156952794Y-90622233D01*
X156907415Y-90725006D01*
X156904500Y-90750134D01*
X156904500Y-91239858D01*
X156904501Y-91239868D01*
X156907415Y-91264992D01*
X156952794Y-91367766D01*
X157032233Y-91447205D01*
X157135006Y-91492584D01*
X157135009Y-91492585D01*
X157160135Y-91495500D01*
X157216200Y-91495499D01*
X157250848Y-91509850D01*
X157265200Y-91544498D01*
X157265200Y-91965731D01*
X157250848Y-92000379D01*
X156310379Y-92940848D01*
X156275731Y-92955200D01*
X149639269Y-92955200D01*
X149604621Y-92940848D01*
X149191677Y-92527903D01*
X149191675Y-92527902D01*
X149168551Y-92518323D01*
X149168550Y-92518322D01*
X149112730Y-92495201D01*
X149112727Y-92495200D01*
X149112726Y-92495200D01*
X149112724Y-92495200D01*
X148921609Y-92495200D01*
X148886961Y-92480848D01*
X148873551Y-92455760D01*
X148868975Y-92432759D01*
X148868973Y-92432751D01*
X148868973Y-92432749D01*
X148861581Y-92414904D01*
X148801477Y-92269800D01*
X148797322Y-92259769D01*
X148693302Y-92104092D01*
X148560908Y-91971698D01*
X148405231Y-91867678D01*
X148405227Y-91867676D01*
X148405225Y-91867675D01*
X148232258Y-91796029D01*
X148232248Y-91796026D01*
X148158194Y-91781296D01*
X148048616Y-91759500D01*
X147861384Y-91759500D01*
X147769986Y-91777680D01*
X147677751Y-91796026D01*
X147677741Y-91796029D01*
X147504774Y-91867675D01*
X147504770Y-91867677D01*
X147504769Y-91867678D01*
X147468324Y-91892030D01*
X147349092Y-91971697D01*
X147216697Y-92104092D01*
X147112675Y-92259774D01*
X147041029Y-92432741D01*
X147041026Y-92432751D01*
X147027716Y-92499667D01*
X147004500Y-92616384D01*
X146202900Y-92616384D01*
X146202900Y-90076384D01*
X147004500Y-90076384D01*
X147004500Y-90263616D01*
X147022100Y-90352098D01*
X147041026Y-90447248D01*
X147041029Y-90447258D01*
X147112675Y-90620225D01*
X147112676Y-90620226D01*
X147112678Y-90620231D01*
X147182686Y-90725006D01*
X147199105Y-90749579D01*
X147216698Y-90775908D01*
X147349092Y-90908302D01*
X147504769Y-91012322D01*
X147536723Y-91025557D01*
X147677741Y-91083970D01*
X147677743Y-91083970D01*
X147677749Y-91083973D01*
X147861384Y-91120500D01*
X147861387Y-91120500D01*
X148048613Y-91120500D01*
X148048616Y-91120500D01*
X148232251Y-91083973D01*
X148405231Y-91012322D01*
X148424737Y-90999287D01*
X148461517Y-90991970D01*
X148486608Y-91005381D01*
X150030822Y-92549596D01*
X150030823Y-92549597D01*
X150030824Y-92549597D01*
X150030825Y-92549598D01*
X150053948Y-92559176D01*
X150109774Y-92582300D01*
X150109776Y-92582300D01*
X155325224Y-92582300D01*
X155325226Y-92582300D01*
X155381051Y-92559176D01*
X155404175Y-92549598D01*
X155538878Y-92414895D01*
X155757096Y-92196678D01*
X155757096Y-92196676D01*
X155757098Y-92196675D01*
X155785938Y-92127049D01*
X155789800Y-92117726D01*
X155789800Y-91544498D01*
X155804152Y-91509851D01*
X155838800Y-91495499D01*
X155894858Y-91495499D01*
X155894864Y-91495499D01*
X155919991Y-91492585D01*
X156022765Y-91447206D01*
X156102206Y-91367765D01*
X156147585Y-91264991D01*
X156150500Y-91239865D01*
X156150499Y-90750136D01*
X156147585Y-90725009D01*
X156102206Y-90622235D01*
X156102205Y-90622234D01*
X156102205Y-90622233D01*
X156022766Y-90542794D01*
X156022767Y-90542794D01*
X155919993Y-90497415D01*
X155907428Y-90495957D01*
X155894865Y-90494500D01*
X155894863Y-90494500D01*
X155255141Y-90494500D01*
X155255131Y-90494501D01*
X155230007Y-90497415D01*
X155127233Y-90542794D01*
X155047794Y-90622233D01*
X155002415Y-90725006D01*
X154999500Y-90750134D01*
X154999500Y-91239858D01*
X154999501Y-91239868D01*
X155002415Y-91264992D01*
X155047794Y-91367766D01*
X155127233Y-91447205D01*
X155230006Y-91492584D01*
X155230009Y-91492585D01*
X155255135Y-91495500D01*
X155311200Y-91495499D01*
X155345848Y-91509850D01*
X155360200Y-91544498D01*
X155360200Y-91965731D01*
X155345848Y-92000379D01*
X155207879Y-92138348D01*
X155173231Y-92152700D01*
X150261769Y-92152700D01*
X150227121Y-92138348D01*
X148790381Y-90701608D01*
X148776029Y-90666960D01*
X148784286Y-90639738D01*
X148797322Y-90620231D01*
X148868973Y-90447251D01*
X148905500Y-90263616D01*
X148905500Y-90076384D01*
X148868973Y-89892749D01*
X148849401Y-89845499D01*
X148800357Y-89727097D01*
X148797322Y-89719769D01*
X148693302Y-89564092D01*
X148560908Y-89431698D01*
X148405231Y-89327678D01*
X148405227Y-89327676D01*
X148405225Y-89327675D01*
X148232258Y-89256029D01*
X148232248Y-89256026D01*
X148158194Y-89241296D01*
X148048616Y-89219500D01*
X147861384Y-89219500D01*
X147769986Y-89237680D01*
X147677751Y-89256026D01*
X147677741Y-89256029D01*
X147504774Y-89327675D01*
X147504770Y-89327677D01*
X147504769Y-89327678D01*
X147465195Y-89354120D01*
X147349092Y-89431697D01*
X147216697Y-89564092D01*
X147149377Y-89664845D01*
X147114017Y-89717766D01*
X147112675Y-89719774D01*
X147041029Y-89892741D01*
X147041026Y-89892751D01*
X147024006Y-89978322D01*
X147004500Y-90076384D01*
X146202900Y-90076384D01*
X146202900Y-87536384D01*
X147004500Y-87536384D01*
X147004500Y-87723616D01*
X147028740Y-87845479D01*
X147041026Y-87907248D01*
X147041029Y-87907258D01*
X147112675Y-88080225D01*
X147112676Y-88080226D01*
X147112678Y-88080231D01*
X147216698Y-88235908D01*
X147349092Y-88368302D01*
X147504769Y-88472322D01*
X147504774Y-88472324D01*
X147677741Y-88543970D01*
X147677743Y-88543970D01*
X147677749Y-88543973D01*
X147861384Y-88580500D01*
X147861387Y-88580500D01*
X148048613Y-88580500D01*
X148048616Y-88580500D01*
X148232251Y-88543973D01*
X148405231Y-88472322D01*
X148424737Y-88459287D01*
X148461517Y-88451970D01*
X148486608Y-88465381D01*
X150373321Y-90352095D01*
X150373324Y-90352097D01*
X150373325Y-90352098D01*
X150406025Y-90365642D01*
X150406026Y-90365643D01*
X150406027Y-90365643D01*
X150452274Y-90384800D01*
X152735731Y-90384800D01*
X152770379Y-90399152D01*
X153080535Y-90709308D01*
X153094887Y-90743956D01*
X153094563Y-90749579D01*
X153094501Y-90750109D01*
X153094500Y-90750139D01*
X153094500Y-91239858D01*
X153094501Y-91239868D01*
X153097415Y-91264992D01*
X153142794Y-91367766D01*
X153222233Y-91447205D01*
X153325006Y-91492584D01*
X153325009Y-91492585D01*
X153350135Y-91495500D01*
X153989864Y-91495499D01*
X154014991Y-91492585D01*
X154117765Y-91447206D01*
X154197206Y-91367765D01*
X154242585Y-91264991D01*
X154245500Y-91239865D01*
X154245499Y-90750136D01*
X154242585Y-90725009D01*
X154197206Y-90622235D01*
X154197205Y-90622234D01*
X154197205Y-90622233D01*
X154117766Y-90542794D01*
X154117767Y-90542794D01*
X154014993Y-90497415D01*
X153989865Y-90494500D01*
X153493569Y-90494500D01*
X153458921Y-90480148D01*
X152966677Y-89987903D01*
X152966675Y-89987902D01*
X152943551Y-89978323D01*
X152943550Y-89978322D01*
X152887730Y-89955201D01*
X152887727Y-89955200D01*
X152887726Y-89955200D01*
X152887724Y-89955200D01*
X150604269Y-89955200D01*
X150569621Y-89940848D01*
X148790381Y-88161608D01*
X148776029Y-88126960D01*
X148784286Y-88099738D01*
X148797322Y-88080231D01*
X148868973Y-87907251D01*
X148905500Y-87723616D01*
X148905500Y-87536384D01*
X148868973Y-87352749D01*
X148797322Y-87179769D01*
X148693302Y-87024092D01*
X148560908Y-86891698D01*
X148405231Y-86787678D01*
X148405227Y-86787676D01*
X148405225Y-86787675D01*
X148232258Y-86716029D01*
X148232248Y-86716026D01*
X148158194Y-86701296D01*
X148048616Y-86679500D01*
X147861384Y-86679500D01*
X147769986Y-86697680D01*
X147677751Y-86716026D01*
X147677741Y-86716029D01*
X147504774Y-86787675D01*
X147504770Y-86787677D01*
X147504769Y-86787678D01*
X147465195Y-86814120D01*
X147349092Y-86891697D01*
X147216697Y-87024092D01*
X147149527Y-87124621D01*
X147121347Y-87166796D01*
X147112675Y-87179774D01*
X147041029Y-87352741D01*
X147041026Y-87352751D01*
X147033826Y-87388950D01*
X147004500Y-87536384D01*
X146202900Y-87536384D01*
X146202900Y-84230095D01*
X147004500Y-84230095D01*
X147004500Y-85949894D01*
X147004501Y-85949898D01*
X147010331Y-85979213D01*
X147010331Y-85979214D01*
X147010332Y-85979215D01*
X147010332Y-85979216D01*
X147032542Y-86012456D01*
X147032543Y-86012457D01*
X147065787Y-86034669D01*
X147095101Y-86040500D01*
X148814898Y-86040499D01*
X148844213Y-86034669D01*
X148877457Y-86012457D01*
X148899669Y-85979213D01*
X148905500Y-85949899D01*
X148905500Y-85468100D01*
X148919852Y-85433452D01*
X148954500Y-85419100D01*
X149068386Y-85419100D01*
X149103034Y-85433452D01*
X149797928Y-86128346D01*
X149825393Y-86144203D01*
X149872969Y-86171672D01*
X149872971Y-86171672D01*
X149872972Y-86171673D01*
X149900872Y-86179149D01*
X149956671Y-86194101D01*
X149956673Y-86194101D01*
X150046325Y-86194101D01*
X150046341Y-86194100D01*
X153078177Y-86194100D01*
X153112825Y-86208452D01*
X153122586Y-86222392D01*
X153149253Y-86279579D01*
X153149254Y-86279581D01*
X153230418Y-86360745D01*
X153230420Y-86360746D01*
X153230421Y-86360747D01*
X153334455Y-86409259D01*
X153381861Y-86415500D01*
X153406199Y-86415499D01*
X153440847Y-86429849D01*
X153455200Y-86464497D01*
X153455200Y-88795500D01*
X153440848Y-88830148D01*
X153406201Y-88844500D01*
X153350140Y-88844500D01*
X153350133Y-88844501D01*
X153325007Y-88847415D01*
X153222233Y-88892794D01*
X153142794Y-88972233D01*
X153097415Y-89075006D01*
X153094500Y-89100134D01*
X153094500Y-89589858D01*
X153094501Y-89589868D01*
X153097415Y-89614992D01*
X153142794Y-89717766D01*
X153222233Y-89797205D01*
X153325006Y-89842584D01*
X153325009Y-89842585D01*
X153350135Y-89845500D01*
X153989864Y-89845499D01*
X154014991Y-89842585D01*
X154117765Y-89797206D01*
X154197206Y-89717765D01*
X154242585Y-89614991D01*
X154243958Y-89603153D01*
X154262207Y-89570390D01*
X154292632Y-89559800D01*
X154952369Y-89559800D01*
X154987017Y-89574152D01*
X155001042Y-89603154D01*
X155002162Y-89612817D01*
X155002415Y-89614992D01*
X155047794Y-89717766D01*
X155127233Y-89797205D01*
X155230006Y-89842584D01*
X155230009Y-89842585D01*
X155255135Y-89845500D01*
X155894864Y-89845499D01*
X155919991Y-89842585D01*
X156022765Y-89797206D01*
X156102206Y-89717765D01*
X156147585Y-89614991D01*
X156148958Y-89603153D01*
X156167207Y-89570390D01*
X156197632Y-89559800D01*
X156857369Y-89559800D01*
X156892017Y-89574152D01*
X156906042Y-89603154D01*
X156907162Y-89612817D01*
X156907415Y-89614992D01*
X156952794Y-89717766D01*
X157032233Y-89797205D01*
X157135006Y-89842584D01*
X157135009Y-89842585D01*
X157160135Y-89845500D01*
X157799864Y-89845499D01*
X157824991Y-89842585D01*
X157927765Y-89797206D01*
X158007206Y-89717765D01*
X158052585Y-89614991D01*
X158053958Y-89603153D01*
X158061810Y-89589055D01*
X158067984Y-89574152D01*
X158070749Y-89573006D01*
X158072207Y-89570390D01*
X158102632Y-89559800D01*
X158135731Y-89559800D01*
X158170379Y-89574152D01*
X158330848Y-89734621D01*
X158345200Y-89769269D01*
X158345200Y-95100730D01*
X158330848Y-95135378D01*
X158099683Y-95366542D01*
X158065035Y-95380894D01*
X158030387Y-95366542D01*
X158020210Y-95351686D01*
X158007205Y-95322233D01*
X157927766Y-95242794D01*
X157927767Y-95242794D01*
X157824993Y-95197415D01*
X157812428Y-95195957D01*
X157799865Y-95194500D01*
X157799863Y-95194500D01*
X157160141Y-95194500D01*
X157160131Y-95194501D01*
X157135007Y-95197415D01*
X157032233Y-95242794D01*
X156952794Y-95322233D01*
X156907415Y-95425006D01*
X156906042Y-95436846D01*
X156887793Y-95469610D01*
X156857368Y-95480200D01*
X156197631Y-95480200D01*
X156162983Y-95465848D01*
X156148957Y-95436845D01*
X156147585Y-95425009D01*
X156102206Y-95322235D01*
X156102205Y-95322234D01*
X156102205Y-95322233D01*
X156022766Y-95242794D01*
X156022767Y-95242794D01*
X155919993Y-95197415D01*
X155907428Y-95195957D01*
X155894865Y-95194500D01*
X155894863Y-95194500D01*
X155255141Y-95194500D01*
X155255131Y-95194501D01*
X155230007Y-95197415D01*
X155127233Y-95242794D01*
X155047794Y-95322233D01*
X155002415Y-95425006D01*
X155001042Y-95436846D01*
X154982793Y-95469610D01*
X154952368Y-95480200D01*
X154292631Y-95480200D01*
X154257983Y-95465848D01*
X154243957Y-95436845D01*
X154242585Y-95425009D01*
X154197206Y-95322235D01*
X154197205Y-95322234D01*
X154197205Y-95322233D01*
X154117766Y-95242794D01*
X154117767Y-95242794D01*
X154014993Y-95197415D01*
X154002428Y-95195957D01*
X153989865Y-95194500D01*
X153989863Y-95194500D01*
X153350141Y-95194500D01*
X153350131Y-95194501D01*
X153325007Y-95197415D01*
X153222233Y-95242794D01*
X153142794Y-95322233D01*
X153097415Y-95425006D01*
X153094500Y-95450134D01*
X153094500Y-95939858D01*
X153094501Y-95939868D01*
X153097415Y-95964992D01*
X153142794Y-96067766D01*
X153222233Y-96147205D01*
X153325006Y-96192584D01*
X153325009Y-96192585D01*
X153350135Y-96195500D01*
X153989864Y-96195499D01*
X154014991Y-96192585D01*
X154117765Y-96147206D01*
X154197206Y-96067765D01*
X154242585Y-95964991D01*
X154243958Y-95953153D01*
X154262207Y-95920390D01*
X154292632Y-95909800D01*
X154952369Y-95909800D01*
X154987017Y-95924152D01*
X155001042Y-95953154D01*
X155002162Y-95962817D01*
X155002415Y-95964992D01*
X155047794Y-96067766D01*
X155127233Y-96147205D01*
X155230006Y-96192584D01*
X155230009Y-96192585D01*
X155255135Y-96195500D01*
X155894864Y-96195499D01*
X155919991Y-96192585D01*
X156022765Y-96147206D01*
X156102206Y-96067765D01*
X156147585Y-95964991D01*
X156148958Y-95953153D01*
X156167207Y-95920390D01*
X156197632Y-95909800D01*
X156857369Y-95909800D01*
X156892017Y-95924152D01*
X156906042Y-95953154D01*
X156907162Y-95962817D01*
X156907415Y-95964992D01*
X156952794Y-96067766D01*
X157032233Y-96147205D01*
X157135006Y-96192584D01*
X157135009Y-96192585D01*
X157160135Y-96195500D01*
X157799864Y-96195499D01*
X157824991Y-96192585D01*
X157927765Y-96147206D01*
X158007206Y-96067765D01*
X158052585Y-95964991D01*
X158053958Y-95953153D01*
X158072207Y-95920390D01*
X158088574Y-95911860D01*
X158095452Y-95909800D01*
X158117726Y-95909800D01*
X158173551Y-95886676D01*
X158196675Y-95877098D01*
X158455428Y-95618345D01*
X158742097Y-95331677D01*
X158742097Y-95331676D01*
X158742099Y-95331674D01*
X158774800Y-95252726D01*
X158774800Y-95167273D01*
X158774800Y-89617274D01*
X158742098Y-89538326D01*
X158742098Y-89538325D01*
X158558773Y-89355000D01*
X158366677Y-89162903D01*
X158366675Y-89162902D01*
X158343551Y-89153323D01*
X158343550Y-89153322D01*
X158287730Y-89130201D01*
X158287727Y-89130200D01*
X158287726Y-89130200D01*
X158287724Y-89130200D01*
X158102631Y-89130200D01*
X158067983Y-89115848D01*
X158053957Y-89086845D01*
X158052585Y-89075009D01*
X158007206Y-88972235D01*
X158007205Y-88972234D01*
X158007205Y-88972233D01*
X157927766Y-88892794D01*
X157927767Y-88892794D01*
X157915932Y-88887569D01*
X157824993Y-88847415D01*
X157812428Y-88845957D01*
X157805504Y-88845154D01*
X162582500Y-88845154D01*
X162582500Y-89155000D01*
X163282500Y-89155000D01*
X163482500Y-89155000D01*
X164182499Y-89155000D01*
X164182499Y-88845155D01*
X164182498Y-88845154D01*
X164176697Y-88815981D01*
X164176695Y-88815977D01*
X164154595Y-88782902D01*
X164121519Y-88760802D01*
X164092346Y-88755000D01*
X163482500Y-88755000D01*
X163482500Y-89155000D01*
X163282500Y-89155000D01*
X163282500Y-88755000D01*
X162672655Y-88755000D01*
X162672654Y-88755001D01*
X162643481Y-88760802D01*
X162643477Y-88760804D01*
X162610402Y-88782904D01*
X162588302Y-88815980D01*
X162582500Y-88845154D01*
X157805504Y-88845154D01*
X157799865Y-88844500D01*
X157799863Y-88844500D01*
X157160141Y-88844500D01*
X157160131Y-88844501D01*
X157135007Y-88847415D01*
X157032233Y-88892794D01*
X156952794Y-88972233D01*
X156907415Y-89075006D01*
X156906042Y-89086846D01*
X156887793Y-89119610D01*
X156857368Y-89130200D01*
X156197631Y-89130200D01*
X156162983Y-89115848D01*
X156148957Y-89086845D01*
X156147585Y-89075009D01*
X156102206Y-88972235D01*
X156102205Y-88972234D01*
X156102205Y-88972233D01*
X156022766Y-88892794D01*
X156022767Y-88892794D01*
X155919993Y-88847415D01*
X155907428Y-88845957D01*
X155894865Y-88844500D01*
X155894863Y-88844500D01*
X155255141Y-88844500D01*
X155255131Y-88844501D01*
X155230007Y-88847415D01*
X155127233Y-88892794D01*
X155047794Y-88972233D01*
X155002415Y-89075006D01*
X155001042Y-89086846D01*
X154982793Y-89119610D01*
X154952368Y-89130200D01*
X154292631Y-89130200D01*
X154257983Y-89115848D01*
X154243957Y-89086845D01*
X154242585Y-89075009D01*
X154197206Y-88972235D01*
X154197205Y-88972234D01*
X154197205Y-88972233D01*
X154117766Y-88892794D01*
X154117767Y-88892794D01*
X154014993Y-88847415D01*
X153989865Y-88844500D01*
X153933800Y-88844500D01*
X153899152Y-88830148D01*
X153884800Y-88795500D01*
X153884800Y-86464499D01*
X153899152Y-86429851D01*
X153933800Y-86415499D01*
X153958133Y-86415499D01*
X153958138Y-86415499D01*
X154005545Y-86409259D01*
X154109579Y-86360747D01*
X154190747Y-86279579D01*
X154217414Y-86222391D01*
X154245064Y-86197055D01*
X154261823Y-86194100D01*
X154983177Y-86194100D01*
X155017825Y-86208452D01*
X155027586Y-86222392D01*
X155054253Y-86279579D01*
X155054254Y-86279581D01*
X155135418Y-86360745D01*
X155135420Y-86360746D01*
X155135421Y-86360747D01*
X155239455Y-86409259D01*
X155286861Y-86415500D01*
X155863138Y-86415499D01*
X155910545Y-86409259D01*
X156014579Y-86360747D01*
X156095747Y-86279579D01*
X156122414Y-86222391D01*
X156150064Y-86197055D01*
X156166823Y-86194100D01*
X156828386Y-86194100D01*
X156863034Y-86208452D01*
X158846654Y-88192072D01*
X158907928Y-88253346D01*
X158962861Y-88285062D01*
X158982970Y-88296672D01*
X158982972Y-88296673D01*
X159066669Y-88319099D01*
X159066670Y-88319100D01*
X159066673Y-88319100D01*
X164668386Y-88319100D01*
X164703034Y-88333452D01*
X167136548Y-90766966D01*
X167150900Y-90801614D01*
X167150900Y-94573330D01*
X167173326Y-94657027D01*
X167173327Y-94657029D01*
X167216654Y-94732072D01*
X168102928Y-95618346D01*
X168157861Y-95650062D01*
X168177970Y-95661672D01*
X168177972Y-95661673D01*
X168261669Y-95684099D01*
X168261670Y-95684100D01*
X168261673Y-95684100D01*
X168348327Y-95684100D01*
X170735662Y-95684100D01*
X170770310Y-95698452D01*
X170783719Y-95723540D01*
X170786952Y-95739796D01*
X170787831Y-95744214D01*
X170787832Y-95744216D01*
X170810042Y-95777456D01*
X170810043Y-95777457D01*
X170843287Y-95799669D01*
X170872601Y-95805500D01*
X172642398Y-95805499D01*
X172671713Y-95799669D01*
X172704957Y-95777457D01*
X172727169Y-95744213D01*
X172733000Y-95714899D01*
X172732999Y-94995102D01*
X172727169Y-94965787D01*
X172727167Y-94965784D01*
X172727167Y-94965783D01*
X172704957Y-94932543D01*
X172671712Y-94910330D01*
X172642401Y-94904500D01*
X170872605Y-94904500D01*
X170872604Y-94904500D01*
X170872602Y-94904501D01*
X170843287Y-94910331D01*
X170843286Y-94910331D01*
X170843284Y-94910332D01*
X170843283Y-94910332D01*
X170810043Y-94932542D01*
X170787830Y-94965786D01*
X170783718Y-94986460D01*
X170762882Y-95017642D01*
X170735660Y-95025900D01*
X168461614Y-95025900D01*
X168426966Y-95011548D01*
X167823452Y-94408034D01*
X167809100Y-94373386D01*
X167809100Y-93920688D01*
X168459500Y-93920688D01*
X168459500Y-94039311D01*
X168490200Y-94153884D01*
X168490201Y-94153887D01*
X168549511Y-94256613D01*
X168633387Y-94340489D01*
X168736114Y-94399799D01*
X168764758Y-94407474D01*
X168850688Y-94430500D01*
X168850691Y-94430500D01*
X168969311Y-94430500D01*
X169026597Y-94415149D01*
X169083886Y-94399799D01*
X169186613Y-94340489D01*
X169270489Y-94256613D01*
X169292032Y-94219298D01*
X169321786Y-94196469D01*
X169334467Y-94194800D01*
X169925731Y-94194800D01*
X169960379Y-94209152D01*
X170188321Y-94437096D01*
X170188324Y-94437098D01*
X170188325Y-94437099D01*
X170234570Y-94456253D01*
X170234571Y-94456254D01*
X170234572Y-94456254D01*
X170267274Y-94469800D01*
X170733001Y-94469800D01*
X170767649Y-94484152D01*
X170782001Y-94518800D01*
X170782001Y-94614898D01*
X170787831Y-94644213D01*
X170787831Y-94644214D01*
X170787832Y-94644215D01*
X170787832Y-94644216D01*
X170810042Y-94677456D01*
X170810043Y-94677457D01*
X170843287Y-94699669D01*
X170872601Y-94705500D01*
X172642398Y-94705499D01*
X172671713Y-94699669D01*
X172704957Y-94677457D01*
X172727169Y-94644213D01*
X172733000Y-94614899D01*
X172732999Y-93895102D01*
X172727169Y-93865787D01*
X172727167Y-93865784D01*
X172727167Y-93865783D01*
X172704957Y-93832543D01*
X172671712Y-93810330D01*
X172642401Y-93804500D01*
X170872605Y-93804500D01*
X170872604Y-93804500D01*
X170872602Y-93804501D01*
X170843287Y-93810331D01*
X170843286Y-93810331D01*
X170843284Y-93810332D01*
X170843283Y-93810332D01*
X170810043Y-93832542D01*
X170787830Y-93865786D01*
X170787830Y-93865787D01*
X170782000Y-93895095D01*
X170782000Y-93991200D01*
X170767648Y-94025848D01*
X170733000Y-94040200D01*
X170419270Y-94040200D01*
X170384622Y-94025848D01*
X170156677Y-93797903D01*
X170144549Y-93792879D01*
X170133551Y-93788323D01*
X170133550Y-93788322D01*
X170077730Y-93765201D01*
X170077727Y-93765200D01*
X170077726Y-93765200D01*
X170077724Y-93765200D01*
X169334467Y-93765200D01*
X169299819Y-93750848D01*
X169292032Y-93740701D01*
X169270489Y-93703387D01*
X169186613Y-93619511D01*
X169083887Y-93560201D01*
X169083884Y-93560200D01*
X168969312Y-93529500D01*
X168969309Y-93529500D01*
X168850691Y-93529500D01*
X168850688Y-93529500D01*
X168736115Y-93560200D01*
X168736112Y-93560201D01*
X168633386Y-93619511D01*
X168633386Y-93619512D01*
X168549512Y-93703386D01*
X168549511Y-93703386D01*
X168490201Y-93806112D01*
X168490200Y-93806115D01*
X168459500Y-93920688D01*
X167809100Y-93920688D01*
X167809100Y-92650688D01*
X169094500Y-92650688D01*
X169094500Y-92769311D01*
X169125200Y-92883884D01*
X169125201Y-92883887D01*
X169171594Y-92964240D01*
X169184511Y-92986613D01*
X169268387Y-93070489D01*
X169371114Y-93129799D01*
X169399758Y-93137474D01*
X169485688Y-93160500D01*
X169485691Y-93160500D01*
X169604311Y-93160500D01*
X169626929Y-93154438D01*
X169645927Y-93149348D01*
X169683108Y-93154242D01*
X169693257Y-93162030D01*
X169868322Y-93337096D01*
X169868323Y-93337097D01*
X169868324Y-93337097D01*
X169868325Y-93337098D01*
X169891448Y-93346676D01*
X169947274Y-93369800D01*
X170733001Y-93369800D01*
X170767649Y-93384152D01*
X170782001Y-93418800D01*
X170782001Y-93514898D01*
X170787831Y-93544213D01*
X170787831Y-93544214D01*
X170787832Y-93544215D01*
X170787832Y-93544216D01*
X170798513Y-93560201D01*
X170810043Y-93577457D01*
X170843287Y-93599669D01*
X170872601Y-93605500D01*
X172642398Y-93605499D01*
X172671713Y-93599669D01*
X172704957Y-93577457D01*
X172727169Y-93544213D01*
X172733000Y-93514899D01*
X172732999Y-92795102D01*
X172727169Y-92765787D01*
X172727167Y-92765784D01*
X172727167Y-92765783D01*
X172704957Y-92732543D01*
X172671712Y-92710330D01*
X172642401Y-92704500D01*
X170872605Y-92704500D01*
X170872604Y-92704500D01*
X170872602Y-92704501D01*
X170843287Y-92710331D01*
X170843286Y-92710331D01*
X170843284Y-92710332D01*
X170843283Y-92710332D01*
X170810043Y-92732542D01*
X170787830Y-92765786D01*
X170787830Y-92765787D01*
X170782000Y-92795095D01*
X170782000Y-92891200D01*
X170767648Y-92925848D01*
X170733000Y-92940200D01*
X170099269Y-92940200D01*
X170064621Y-92925848D01*
X169997030Y-92858257D01*
X169982678Y-92823609D01*
X169984348Y-92810926D01*
X169988589Y-92795102D01*
X169991338Y-92784840D01*
X169995500Y-92769310D01*
X169995500Y-92650688D01*
X169968412Y-92549597D01*
X169964799Y-92536114D01*
X169905489Y-92433387D01*
X169821613Y-92349511D01*
X169761586Y-92314854D01*
X169718887Y-92290201D01*
X169718884Y-92290200D01*
X169604312Y-92259500D01*
X169604309Y-92259500D01*
X169485691Y-92259500D01*
X169485688Y-92259500D01*
X169371115Y-92290200D01*
X169371112Y-92290201D01*
X169268386Y-92349511D01*
X169268386Y-92349512D01*
X169184512Y-92433386D01*
X169184511Y-92433386D01*
X169125201Y-92536112D01*
X169125200Y-92536115D01*
X169094500Y-92650688D01*
X167809100Y-92650688D01*
X167809100Y-91380688D01*
X169729500Y-91380688D01*
X169729500Y-91499311D01*
X169760200Y-91613884D01*
X169760201Y-91613887D01*
X169807093Y-91695104D01*
X169819511Y-91716613D01*
X169903387Y-91800489D01*
X170006114Y-91859799D01*
X170034758Y-91867474D01*
X170120688Y-91890500D01*
X170120691Y-91890500D01*
X170239311Y-91890500D01*
X170261929Y-91884438D01*
X170280927Y-91879348D01*
X170318108Y-91884242D01*
X170328257Y-91892030D01*
X170673322Y-92237096D01*
X170673324Y-92237097D01*
X170673325Y-92237098D01*
X170694394Y-92245825D01*
X170751753Y-92269584D01*
X170778271Y-92296103D01*
X170782001Y-92314854D01*
X170782001Y-92414898D01*
X170787831Y-92444213D01*
X170787831Y-92444214D01*
X170787832Y-92444215D01*
X170787832Y-92444216D01*
X170810042Y-92477456D01*
X170810043Y-92477457D01*
X170843287Y-92499669D01*
X170872601Y-92505500D01*
X172642398Y-92505499D01*
X172671713Y-92499669D01*
X172704957Y-92477457D01*
X172727169Y-92444213D01*
X172733000Y-92414899D01*
X172732999Y-91695102D01*
X172727169Y-91665787D01*
X172727167Y-91665784D01*
X172727167Y-91665783D01*
X172704957Y-91632543D01*
X172671712Y-91610330D01*
X172642401Y-91604500D01*
X170872605Y-91604500D01*
X170872604Y-91604500D01*
X170872602Y-91604501D01*
X170843287Y-91610331D01*
X170843286Y-91610331D01*
X170843284Y-91610332D01*
X170843283Y-91610332D01*
X170810043Y-91632542D01*
X170810042Y-91632543D01*
X170789649Y-91663063D01*
X170758466Y-91683898D01*
X170721684Y-91676580D01*
X170714260Y-91670487D01*
X170632030Y-91588257D01*
X170617678Y-91553609D01*
X170619348Y-91540926D01*
X170630500Y-91499310D01*
X170630500Y-91380688D01*
X170599799Y-91266115D01*
X170599798Y-91266112D01*
X170540488Y-91163386D01*
X170456613Y-91079511D01*
X170353887Y-91020201D01*
X170353884Y-91020200D01*
X170239312Y-90989500D01*
X170239309Y-90989500D01*
X170120691Y-90989500D01*
X170120688Y-90989500D01*
X170006115Y-91020200D01*
X170006112Y-91020201D01*
X169903386Y-91079511D01*
X169903386Y-91079512D01*
X169819512Y-91163386D01*
X169819511Y-91163386D01*
X169760201Y-91266112D01*
X169760200Y-91266115D01*
X169729500Y-91380688D01*
X167809100Y-91380688D01*
X167809100Y-90601670D01*
X167809099Y-90601669D01*
X167786673Y-90517972D01*
X167786672Y-90517970D01*
X167750315Y-90454999D01*
X167743346Y-90442928D01*
X167682072Y-90381654D01*
X167665263Y-90364845D01*
X170782501Y-90364845D01*
X170788302Y-90394018D01*
X170788304Y-90394022D01*
X170810404Y-90427097D01*
X170843480Y-90449197D01*
X170872654Y-90454999D01*
X171532499Y-90454999D01*
X171732500Y-90454999D01*
X172392345Y-90454999D01*
X172392345Y-90454998D01*
X172421518Y-90449197D01*
X172421522Y-90449195D01*
X172454597Y-90427095D01*
X172476697Y-90394019D01*
X172482500Y-90364845D01*
X172482500Y-89705000D01*
X171732500Y-89705000D01*
X171732500Y-90454999D01*
X171532499Y-90454999D01*
X171532500Y-90454998D01*
X171532500Y-89705000D01*
X170782501Y-89705000D01*
X170782501Y-90364845D01*
X167665263Y-90364845D01*
X166145572Y-88845154D01*
X170782500Y-88845154D01*
X170782500Y-89505000D01*
X171532500Y-89505000D01*
X171732500Y-89505000D01*
X172482499Y-89505000D01*
X172482499Y-88845155D01*
X172482498Y-88845154D01*
X172476697Y-88815981D01*
X172476695Y-88815977D01*
X172454595Y-88782902D01*
X172421519Y-88760802D01*
X172392346Y-88755000D01*
X171732500Y-88755000D01*
X171732500Y-89505000D01*
X171532500Y-89505000D01*
X171532500Y-88755000D01*
X170872655Y-88755000D01*
X170872654Y-88755001D01*
X170843481Y-88760802D01*
X170843477Y-88760804D01*
X170810402Y-88782904D01*
X170788302Y-88815980D01*
X170782500Y-88845154D01*
X166145572Y-88845154D01*
X165027072Y-87726654D01*
X165021803Y-87723612D01*
X164952029Y-87683327D01*
X164952027Y-87683326D01*
X164868330Y-87660900D01*
X164868327Y-87660900D01*
X159266614Y-87660900D01*
X159231966Y-87646548D01*
X157187072Y-85601654D01*
X157112029Y-85558327D01*
X157112027Y-85558326D01*
X157028330Y-85535900D01*
X157028327Y-85535900D01*
X156166823Y-85535900D01*
X156132175Y-85521548D01*
X156122414Y-85507608D01*
X156103991Y-85468100D01*
X156095747Y-85450421D01*
X156095746Y-85450420D01*
X156095745Y-85450418D01*
X156014581Y-85369254D01*
X156014579Y-85369253D01*
X155910547Y-85320742D01*
X155910546Y-85320741D01*
X155901063Y-85319492D01*
X155863139Y-85314500D01*
X155863135Y-85314500D01*
X155286867Y-85314500D01*
X155286861Y-85314501D01*
X155239454Y-85320740D01*
X155135420Y-85369253D01*
X155135418Y-85369254D01*
X155054254Y-85450418D01*
X155054253Y-85450420D01*
X155027586Y-85507608D01*
X154999936Y-85532945D01*
X154983177Y-85535900D01*
X154261823Y-85535900D01*
X154227175Y-85521548D01*
X154217414Y-85507608D01*
X154198991Y-85468100D01*
X154190747Y-85450421D01*
X154190746Y-85450420D01*
X154190745Y-85450418D01*
X154109581Y-85369254D01*
X154109579Y-85369253D01*
X154005547Y-85320742D01*
X154005546Y-85320741D01*
X153996063Y-85319492D01*
X153958139Y-85314500D01*
X153958135Y-85314500D01*
X153381867Y-85314500D01*
X153381861Y-85314501D01*
X153334454Y-85320740D01*
X153230420Y-85369253D01*
X153230418Y-85369254D01*
X153149254Y-85450418D01*
X153149253Y-85450420D01*
X153122586Y-85507608D01*
X153094936Y-85532945D01*
X153078177Y-85535900D01*
X150156614Y-85535900D01*
X150121966Y-85521548D01*
X149427072Y-84826654D01*
X149352029Y-84783327D01*
X149352027Y-84783326D01*
X149268330Y-84760900D01*
X149268327Y-84760900D01*
X148954499Y-84760900D01*
X148919851Y-84746548D01*
X148905499Y-84711900D01*
X148905499Y-84578085D01*
X153095001Y-84578085D01*
X153101230Y-84625414D01*
X153149668Y-84729288D01*
X153149669Y-84729290D01*
X153230709Y-84810330D01*
X153230711Y-84810331D01*
X153334584Y-84858768D01*
X153381918Y-84864999D01*
X153569999Y-84864999D01*
X153770000Y-84864999D01*
X153958080Y-84864999D01*
X153958085Y-84864998D01*
X154005414Y-84858769D01*
X154109288Y-84810331D01*
X154109290Y-84810330D01*
X154190330Y-84729290D01*
X154190331Y-84729288D01*
X154238768Y-84625415D01*
X154244999Y-84578085D01*
X155000001Y-84578085D01*
X155006230Y-84625414D01*
X155054668Y-84729288D01*
X155054669Y-84729290D01*
X155135709Y-84810330D01*
X155135711Y-84810331D01*
X155239584Y-84858768D01*
X155286918Y-84864999D01*
X155474999Y-84864999D01*
X155675000Y-84864999D01*
X155863080Y-84864999D01*
X155863085Y-84864998D01*
X155910414Y-84858769D01*
X156014288Y-84810331D01*
X156014290Y-84810330D01*
X156095330Y-84729290D01*
X156095331Y-84729288D01*
X156143768Y-84625415D01*
X156150000Y-84578081D01*
X156150000Y-84415000D01*
X155675000Y-84415000D01*
X155675000Y-84864999D01*
X155474999Y-84864999D01*
X155475000Y-84864998D01*
X155475000Y-84415000D01*
X155000001Y-84415000D01*
X155000001Y-84578085D01*
X154244999Y-84578085D01*
X154245000Y-84578081D01*
X154245000Y-84415000D01*
X153770000Y-84415000D01*
X153770000Y-84864999D01*
X153569999Y-84864999D01*
X153570000Y-84864998D01*
X153570000Y-84415000D01*
X153095001Y-84415000D01*
X153095001Y-84578085D01*
X148905499Y-84578085D01*
X148905499Y-84230105D01*
X148905499Y-84230102D01*
X148899669Y-84200787D01*
X148899667Y-84200784D01*
X148899667Y-84200783D01*
X148877457Y-84167543D01*
X148844212Y-84145330D01*
X148814901Y-84139500D01*
X147095105Y-84139500D01*
X147095104Y-84139500D01*
X147095102Y-84139501D01*
X147065787Y-84145331D01*
X147065786Y-84145331D01*
X147065784Y-84145332D01*
X147065783Y-84145332D01*
X147032543Y-84167542D01*
X147010330Y-84200786D01*
X147010330Y-84200787D01*
X147004500Y-84230095D01*
X146202900Y-84230095D01*
X146202900Y-84051918D01*
X153095000Y-84051918D01*
X153095000Y-84215000D01*
X153570000Y-84215000D01*
X153770000Y-84215000D01*
X154244999Y-84215000D01*
X154244999Y-84051920D01*
X154244999Y-84051918D01*
X155000000Y-84051918D01*
X155000000Y-84215000D01*
X155475000Y-84215000D01*
X155675000Y-84215000D01*
X156149999Y-84215000D01*
X156149999Y-84051919D01*
X156149998Y-84051914D01*
X156143769Y-84004585D01*
X156095331Y-83900711D01*
X156095330Y-83900709D01*
X156014290Y-83819669D01*
X156014288Y-83819668D01*
X155910415Y-83771231D01*
X155863081Y-83765000D01*
X155675000Y-83765000D01*
X155675000Y-84215000D01*
X155475000Y-84215000D01*
X155475000Y-83765000D01*
X155286919Y-83765000D01*
X155286914Y-83765001D01*
X155239585Y-83771230D01*
X155135711Y-83819668D01*
X155135709Y-83819669D01*
X155054669Y-83900709D01*
X155054668Y-83900711D01*
X155006231Y-84004584D01*
X155000000Y-84051918D01*
X154244999Y-84051918D01*
X154244998Y-84051914D01*
X154238769Y-84004585D01*
X154190331Y-83900711D01*
X154190330Y-83900709D01*
X154109290Y-83819669D01*
X154109288Y-83819668D01*
X154005415Y-83771231D01*
X153958081Y-83765000D01*
X153770000Y-83765000D01*
X153770000Y-84215000D01*
X153570000Y-84215000D01*
X153570000Y-83765000D01*
X153381919Y-83765000D01*
X153381914Y-83765001D01*
X153334585Y-83771230D01*
X153230711Y-83819668D01*
X153230709Y-83819669D01*
X153149669Y-83900709D01*
X153149668Y-83900711D01*
X153101231Y-84004584D01*
X153095000Y-84051918D01*
X146202900Y-84051918D01*
X146202900Y-83823213D01*
X146203319Y-83816817D01*
X146218485Y-83701618D01*
X146221796Y-83689263D01*
X146265021Y-83584908D01*
X146271414Y-83573833D01*
X146340182Y-83484214D01*
X146349214Y-83475182D01*
X146438833Y-83406414D01*
X146449908Y-83400021D01*
X146554263Y-83356796D01*
X146566617Y-83353485D01*
X146681817Y-83338318D01*
X146688213Y-83337900D01*
X146719898Y-83337900D01*
X156126370Y-83337900D01*
X156161018Y-83352252D01*
G37*
%TD.AperFunction*%
%TD*%
M02*
