%TF.GenerationSoftware,KiCad,Pcbnew,9.0.2+dfsg-1*%
%TF.CreationDate,2025-06-12T16:54:33+08:00*%
%TF.ProjectId,sd,73642e6b-6963-4616-945f-706362585858,rev?*%
%TF.SameCoordinates,Original*%
%TF.FileFunction,Copper,L2,Bot*%
%TF.FilePolarity,Positive*%
%FSLAX46Y46*%
G04 Gerber Fmt 4.6, Leading zero omitted, Abs format (unit mm)*
G04 Created by KiCad (PCBNEW 9.0.2+dfsg-1) date 2025-06-12 16:54:33*
%MOMM*%
%LPD*%
G01*
G04 APERTURE LIST*
%TA.AperFunction,ComponentPad*%
%ADD10R,1.700000X1.700000*%
%TD*%
%TA.AperFunction,ComponentPad*%
%ADD11C,1.700000*%
%TD*%
%TA.AperFunction,ViaPad*%
%ADD12C,0.700000*%
%TD*%
%TA.AperFunction,Conductor*%
%ADD13C,0.228600*%
%TD*%
G04 APERTURE END LIST*
D10*
%TO.P,J2,1,Pin_1*%
%TO.N,VCC*%
X147955000Y-85090000D03*
D11*
%TO.P,J2,2,Pin_2*%
%TO.N,/D2*%
X147955000Y-87630000D03*
%TO.P,J2,3,Pin_3*%
%TO.N,/D3*%
X147955000Y-90170000D03*
%TO.P,J2,4,Pin_4*%
%TO.N,/CMD*%
X147955000Y-92710000D03*
%TO.P,J2,5,Pin_5*%
%TO.N,/CLK*%
X147955000Y-95250000D03*
%TO.P,J2,6,Pin_6*%
%TO.N,/D0*%
X147955000Y-97790000D03*
%TO.P,J2,7,Pin_7*%
%TO.N,/D1*%
X147955000Y-100330000D03*
%TO.P,J2,8,Pin_8*%
%TO.N,/DET*%
X147955000Y-102870000D03*
%TO.P,J2,9,Pin_9*%
%TO.N,GND*%
X147955000Y-105410000D03*
%TD*%
D12*
%TO.N,GND*%
X168910000Y-89535000D03*
X156845000Y-105410000D03*
X156845000Y-99060000D03*
X168910000Y-102235000D03*
X170180000Y-102235000D03*
X151765000Y-86995000D03*
X150495000Y-104140000D03*
X150495000Y-88900000D03*
X151765000Y-96520000D03*
X173990000Y-98425000D03*
X155575000Y-105410000D03*
X163830000Y-99060000D03*
X150495000Y-84455000D03*
X150495000Y-96520000D03*
X151765000Y-101600000D03*
X151765000Y-84455000D03*
X150495000Y-86995000D03*
X173990000Y-90805000D03*
X153670000Y-93980000D03*
X167640000Y-102235000D03*
X168275000Y-99060000D03*
X170180000Y-89535000D03*
X154305000Y-105410000D03*
X150495000Y-91440000D03*
X150495000Y-99060000D03*
X151765000Y-104140000D03*
X173990000Y-93345000D03*
X156845000Y-84896400D03*
X151765000Y-91440000D03*
X151765000Y-88900000D03*
X151765000Y-93980000D03*
X165100000Y-90170000D03*
X150495000Y-93980000D03*
X163830000Y-95250000D03*
X163830000Y-92075000D03*
X167640000Y-89535000D03*
X159385000Y-91440000D03*
X173990000Y-100965000D03*
X159385000Y-99060000D03*
X173990000Y-95885000D03*
X168910000Y-91440000D03*
X156845000Y-86995000D03*
X155575000Y-93980000D03*
X159385000Y-93980000D03*
X150495000Y-101600000D03*
X151765000Y-99060000D03*
%TO.N,/CLK*%
X170180000Y-96520000D03*
%TO.N,/D1*%
X170180000Y-99695000D03*
%TO.N,/D3*%
X169545000Y-92710000D03*
%TO.N,/D0*%
X170180000Y-98425000D03*
%TO.N,/CMD*%
X168910000Y-93980000D03*
%TO.N,/D2*%
X170180000Y-91440000D03*
%TD*%
D13*
%TO.N,/CLK*%
X158750000Y-95250000D02*
X160020000Y-96520000D01*
X170180000Y-96520000D02*
X160020000Y-96520000D01*
X147955000Y-95250000D02*
X158750000Y-95250000D01*
%TO.N,/D1*%
X169545000Y-100330000D02*
X147955000Y-100330000D01*
X170180000Y-99695000D02*
X169545000Y-100330000D01*
%TO.N,/D3*%
X164850000Y-91920000D02*
X163100000Y-90170000D01*
X163100000Y-90170000D02*
X147955000Y-90170000D01*
X169545000Y-92710000D02*
X168910000Y-92710000D01*
X168120000Y-91920000D02*
X164850000Y-91920000D01*
X168910000Y-92710000D02*
X168120000Y-91920000D01*
%TO.N,/D0*%
X170180000Y-98425000D02*
X169545000Y-97790000D01*
X169545000Y-97790000D02*
X147955000Y-97790000D01*
%TO.N,/CMD*%
X159625000Y-92710000D02*
X160260000Y-93345000D01*
X167640000Y-93345000D02*
X168275000Y-93980000D01*
X168275000Y-93980000D02*
X168910000Y-93980000D01*
X147955000Y-92710000D02*
X159625000Y-92710000D01*
X160260000Y-93345000D02*
X167640000Y-93345000D01*
%TO.N,/D2*%
X169510000Y-90770000D02*
X167005000Y-90770000D01*
X167005000Y-90770000D02*
X163865000Y-87630000D01*
X170180000Y-91440000D02*
X169510000Y-90770000D01*
X163865000Y-87630000D02*
X147955000Y-87630000D01*
%TD*%
%TA.AperFunction,Conductor*%
%TO.N,GND*%
G36*
X156163856Y-83355493D02*
G01*
X156168692Y-83359926D01*
X159933388Y-87124622D01*
X159933390Y-87124623D01*
X159966308Y-87138258D01*
X159966313Y-87138259D01*
X159989586Y-87147900D01*
X159989587Y-87147900D01*
X160050414Y-87147900D01*
X175860102Y-87147900D01*
X175890069Y-87147900D01*
X175899884Y-87148543D01*
X176009964Y-87163035D01*
X176028920Y-87168114D01*
X176126907Y-87208702D01*
X176143902Y-87218514D01*
X176185973Y-87250796D01*
X176228041Y-87283077D01*
X176241922Y-87296958D01*
X176306483Y-87381094D01*
X176316299Y-87398095D01*
X176356884Y-87496076D01*
X176361965Y-87515038D01*
X176376457Y-87625114D01*
X176377100Y-87634930D01*
X176377100Y-102865069D01*
X176376457Y-102874885D01*
X176361965Y-102984961D01*
X176356884Y-103003923D01*
X176316299Y-103101904D01*
X176306483Y-103118905D01*
X176241922Y-103203041D01*
X176228041Y-103216922D01*
X176143905Y-103281483D01*
X176126904Y-103291299D01*
X176028923Y-103331884D01*
X176009961Y-103336965D01*
X175948558Y-103345049D01*
X175899883Y-103351457D01*
X175890069Y-103352100D01*
X159989586Y-103352100D01*
X159966309Y-103361741D01*
X159966307Y-103361741D01*
X159933391Y-103375376D01*
X159933388Y-103375378D01*
X156168692Y-107140074D01*
X156122072Y-107161814D01*
X156115518Y-107162100D01*
X146689931Y-107162100D01*
X146680116Y-107161457D01*
X146633046Y-107155260D01*
X146570038Y-107146965D01*
X146551076Y-107141884D01*
X146453095Y-107101299D01*
X146436094Y-107091483D01*
X146351958Y-107026922D01*
X146338077Y-107013041D01*
X146273516Y-106928905D01*
X146263702Y-106911907D01*
X146223114Y-106813920D01*
X146218035Y-106794964D01*
X146203543Y-106684884D01*
X146202900Y-106675069D01*
X146202900Y-105311270D01*
X146952600Y-105311270D01*
X146952600Y-105508729D01*
X146991121Y-105702385D01*
X146991122Y-105702388D01*
X147066684Y-105884812D01*
X147145982Y-106003491D01*
X147510086Y-105639386D01*
X147554901Y-105717007D01*
X147647993Y-105810099D01*
X147725611Y-105854912D01*
X147361507Y-106219016D01*
X147480187Y-106298315D01*
X147662611Y-106373877D01*
X147662614Y-106373878D01*
X147856270Y-106412400D01*
X148053730Y-106412400D01*
X148247385Y-106373878D01*
X148247388Y-106373877D01*
X148429816Y-106298313D01*
X148548490Y-106219017D01*
X148548491Y-106219016D01*
X148184387Y-105854912D01*
X148262007Y-105810099D01*
X148355099Y-105717007D01*
X148399912Y-105639387D01*
X148764016Y-106003491D01*
X148764017Y-106003490D01*
X148843313Y-105884816D01*
X148918877Y-105702388D01*
X148918878Y-105702385D01*
X148957400Y-105508729D01*
X148957400Y-105311270D01*
X148918878Y-105117614D01*
X148918877Y-105117611D01*
X148843315Y-104935187D01*
X148764016Y-104816507D01*
X148399912Y-105180611D01*
X148355099Y-105102993D01*
X148262007Y-105009901D01*
X148184387Y-104965087D01*
X148548491Y-104600982D01*
X148429812Y-104521684D01*
X148247388Y-104446122D01*
X148247385Y-104446121D01*
X148053730Y-104407600D01*
X147856270Y-104407600D01*
X147662614Y-104446121D01*
X147662611Y-104446122D01*
X147480184Y-104521685D01*
X147361507Y-104600981D01*
X147361507Y-104600982D01*
X147725612Y-104965087D01*
X147647993Y-105009901D01*
X147554901Y-105102993D01*
X147510087Y-105180612D01*
X147145982Y-104816507D01*
X147145981Y-104816507D01*
X147066685Y-104935184D01*
X146991122Y-105117611D01*
X146991121Y-105117614D01*
X146952600Y-105311270D01*
X146202900Y-105311270D01*
X146202900Y-102771222D01*
X146952100Y-102771222D01*
X146952100Y-102968777D01*
X146990641Y-103162537D01*
X146990642Y-103162538D01*
X147062892Y-103336965D01*
X147066241Y-103345051D01*
X147175996Y-103509312D01*
X147175997Y-103509313D01*
X147176000Y-103509317D01*
X147315682Y-103648999D01*
X147315685Y-103649001D01*
X147315688Y-103649004D01*
X147479949Y-103758759D01*
X147662461Y-103834357D01*
X147662462Y-103834358D01*
X147662463Y-103834358D01*
X147662465Y-103834359D01*
X147792218Y-103860168D01*
X147856222Y-103872900D01*
X147856223Y-103872900D01*
X148053778Y-103872900D01*
X148101889Y-103863329D01*
X148247535Y-103834359D01*
X148430051Y-103758759D01*
X148594312Y-103649004D01*
X148734004Y-103509312D01*
X148843759Y-103345051D01*
X148919359Y-103162535D01*
X148957900Y-102968777D01*
X148957900Y-102771223D01*
X148919359Y-102577465D01*
X148843759Y-102394949D01*
X148734004Y-102230688D01*
X148734001Y-102230685D01*
X148733999Y-102230682D01*
X148594317Y-102091000D01*
X148594313Y-102090997D01*
X148594312Y-102090996D01*
X148430051Y-101981241D01*
X148430049Y-101981240D01*
X148247538Y-101905642D01*
X148247537Y-101905641D01*
X148053778Y-101867100D01*
X148053777Y-101867100D01*
X147856223Y-101867100D01*
X147856222Y-101867100D01*
X147662462Y-101905641D01*
X147662461Y-101905642D01*
X147479950Y-101981240D01*
X147315682Y-102091000D01*
X147176000Y-102230682D01*
X147066240Y-102394950D01*
X146990642Y-102577461D01*
X146990641Y-102577462D01*
X146952100Y-102771222D01*
X146202900Y-102771222D01*
X146202900Y-100231222D01*
X146952100Y-100231222D01*
X146952100Y-100428777D01*
X146990641Y-100622537D01*
X146990642Y-100622538D01*
X147066241Y-100805051D01*
X147175996Y-100969312D01*
X147175997Y-100969313D01*
X147176000Y-100969317D01*
X147315682Y-101108999D01*
X147315685Y-101109001D01*
X147315688Y-101109004D01*
X147479949Y-101218759D01*
X147662461Y-101294357D01*
X147662462Y-101294358D01*
X147662463Y-101294358D01*
X147662465Y-101294359D01*
X147792218Y-101320168D01*
X147856222Y-101332900D01*
X147856223Y-101332900D01*
X148053778Y-101332900D01*
X148101889Y-101323329D01*
X148247535Y-101294359D01*
X148430051Y-101218759D01*
X148594312Y-101109004D01*
X148734004Y-100969312D01*
X148843759Y-100805051D01*
X148910625Y-100643620D01*
X148945376Y-100605697D01*
X148980100Y-100597200D01*
X169598147Y-100597200D01*
X169598149Y-100597200D01*
X169696357Y-100556521D01*
X170036707Y-100216170D01*
X170083326Y-100194431D01*
X170109342Y-100196707D01*
X170113792Y-100197900D01*
X170113793Y-100197900D01*
X170246206Y-100197900D01*
X170246208Y-100197900D01*
X170374112Y-100163629D01*
X170488788Y-100097421D01*
X170582421Y-100003788D01*
X170648629Y-99889112D01*
X170682900Y-99761208D01*
X170682900Y-99628792D01*
X170648629Y-99500888D01*
X170648628Y-99500887D01*
X170648628Y-99500885D01*
X170611613Y-99436775D01*
X170582421Y-99386212D01*
X170582419Y-99386210D01*
X170582417Y-99386207D01*
X170488792Y-99292582D01*
X170488786Y-99292578D01*
X170374114Y-99226371D01*
X170310160Y-99209235D01*
X170246208Y-99192100D01*
X170113792Y-99192100D01*
X170062630Y-99205808D01*
X169985885Y-99226371D01*
X169871213Y-99292578D01*
X169871207Y-99292582D01*
X169777582Y-99386207D01*
X169777578Y-99386213D01*
X169711371Y-99500885D01*
X169697945Y-99550996D01*
X169677100Y-99628792D01*
X169677100Y-99761208D01*
X169678292Y-99765656D01*
X169673807Y-99816900D01*
X169658829Y-99838291D01*
X169456348Y-100040774D01*
X169409727Y-100062514D01*
X169403173Y-100062800D01*
X148980100Y-100062800D01*
X148931762Y-100045207D01*
X148910625Y-100016379D01*
X148843759Y-99854949D01*
X148734004Y-99690688D01*
X148734001Y-99690685D01*
X148733999Y-99690682D01*
X148594317Y-99551000D01*
X148594313Y-99550997D01*
X148594312Y-99550996D01*
X148430051Y-99441241D01*
X148297201Y-99386213D01*
X148247538Y-99365642D01*
X148247537Y-99365641D01*
X148053778Y-99327100D01*
X148053777Y-99327100D01*
X147856223Y-99327100D01*
X147856222Y-99327100D01*
X147662462Y-99365641D01*
X147662461Y-99365642D01*
X147479950Y-99441240D01*
X147315682Y-99551000D01*
X147176000Y-99690682D01*
X147066240Y-99854950D01*
X146990642Y-100037461D01*
X146990641Y-100037462D01*
X146952100Y-100231222D01*
X146202900Y-100231222D01*
X146202900Y-97691222D01*
X146952100Y-97691222D01*
X146952100Y-97888777D01*
X146990641Y-98082537D01*
X146990642Y-98082538D01*
X147066241Y-98265051D01*
X147175996Y-98429312D01*
X147175997Y-98429313D01*
X147176000Y-98429317D01*
X147315682Y-98568999D01*
X147315685Y-98569001D01*
X147315688Y-98569004D01*
X147479949Y-98678759D01*
X147662461Y-98754357D01*
X147662462Y-98754358D01*
X147662463Y-98754358D01*
X147662465Y-98754359D01*
X147792218Y-98780168D01*
X147856222Y-98792900D01*
X147856223Y-98792900D01*
X148053778Y-98792900D01*
X148101889Y-98783329D01*
X148247535Y-98754359D01*
X148430051Y-98678759D01*
X148594312Y-98569004D01*
X148734004Y-98429312D01*
X148843759Y-98265051D01*
X148910625Y-98103620D01*
X148945376Y-98065697D01*
X148980100Y-98057200D01*
X169403174Y-98057200D01*
X169451512Y-98074793D01*
X169456348Y-98079226D01*
X169658827Y-98281705D01*
X169680567Y-98328325D01*
X169678293Y-98354332D01*
X169677100Y-98358785D01*
X169677100Y-98358792D01*
X169677100Y-98491208D01*
X169697662Y-98567950D01*
X169711371Y-98619114D01*
X169777578Y-98733786D01*
X169777582Y-98733792D01*
X169871207Y-98827417D01*
X169871210Y-98827419D01*
X169871212Y-98827421D01*
X169921775Y-98856613D01*
X169985885Y-98893628D01*
X169985887Y-98893628D01*
X169985888Y-98893629D01*
X170113792Y-98927900D01*
X170113794Y-98927900D01*
X170246206Y-98927900D01*
X170246208Y-98927900D01*
X170374112Y-98893629D01*
X170488788Y-98827421D01*
X170582421Y-98733788D01*
X170648629Y-98619112D01*
X170682900Y-98491208D01*
X170682900Y-98358792D01*
X170648629Y-98230888D01*
X170648628Y-98230887D01*
X170648628Y-98230885D01*
X170611613Y-98166775D01*
X170582421Y-98116212D01*
X170582419Y-98116210D01*
X170582417Y-98116207D01*
X170488792Y-98022582D01*
X170488786Y-98022578D01*
X170374114Y-97956371D01*
X170310160Y-97939235D01*
X170246208Y-97922100D01*
X170113792Y-97922100D01*
X170113789Y-97922100D01*
X170109335Y-97923293D01*
X170058092Y-97918804D01*
X170036706Y-97903827D01*
X169696359Y-97563480D01*
X169696357Y-97563479D01*
X169598149Y-97522800D01*
X169598148Y-97522800D01*
X148980100Y-97522800D01*
X148931762Y-97505207D01*
X148910625Y-97476379D01*
X148843759Y-97314949D01*
X148734004Y-97150688D01*
X148734001Y-97150685D01*
X148733999Y-97150682D01*
X148594317Y-97011000D01*
X148594313Y-97010997D01*
X148594312Y-97010996D01*
X148430051Y-96901241D01*
X148430049Y-96901240D01*
X148247538Y-96825642D01*
X148247537Y-96825641D01*
X148053778Y-96787100D01*
X148053777Y-96787100D01*
X147856223Y-96787100D01*
X147856222Y-96787100D01*
X147662462Y-96825641D01*
X147662461Y-96825642D01*
X147479950Y-96901240D01*
X147315682Y-97011000D01*
X147176000Y-97150682D01*
X147066240Y-97314950D01*
X146990642Y-97497461D01*
X146990641Y-97497462D01*
X146952100Y-97691222D01*
X146202900Y-97691222D01*
X146202900Y-95151222D01*
X146952100Y-95151222D01*
X146952100Y-95348777D01*
X146990641Y-95542537D01*
X146990642Y-95542538D01*
X147066241Y-95725051D01*
X147175996Y-95889312D01*
X147175997Y-95889313D01*
X147176000Y-95889317D01*
X147315682Y-96028999D01*
X147315685Y-96029001D01*
X147315688Y-96029004D01*
X147479949Y-96138759D01*
X147662461Y-96214357D01*
X147662462Y-96214358D01*
X147662463Y-96214358D01*
X147662465Y-96214359D01*
X147767275Y-96235207D01*
X147856222Y-96252900D01*
X147856223Y-96252900D01*
X148053778Y-96252900D01*
X148142725Y-96235207D01*
X148247535Y-96214359D01*
X148430051Y-96138759D01*
X148594312Y-96029004D01*
X148734004Y-95889312D01*
X148843759Y-95725051D01*
X148910625Y-95563620D01*
X148945376Y-95525697D01*
X148980100Y-95517200D01*
X158608174Y-95517200D01*
X158656512Y-95534793D01*
X158661348Y-95539226D01*
X159793479Y-96671357D01*
X159868643Y-96746521D01*
X159966851Y-96787200D01*
X169710151Y-96787200D01*
X169758489Y-96804793D01*
X169775277Y-96824801D01*
X169777579Y-96828789D01*
X169871207Y-96922417D01*
X169871210Y-96922419D01*
X169871212Y-96922421D01*
X169921775Y-96951613D01*
X169985885Y-96988628D01*
X169985887Y-96988628D01*
X169985888Y-96988629D01*
X170113792Y-97022900D01*
X170113794Y-97022900D01*
X170246206Y-97022900D01*
X170246208Y-97022900D01*
X170374112Y-96988629D01*
X170488788Y-96922421D01*
X170582421Y-96828788D01*
X170648629Y-96714112D01*
X170682900Y-96586208D01*
X170682900Y-96453792D01*
X170648629Y-96325888D01*
X170648628Y-96325887D01*
X170648628Y-96325885D01*
X170593715Y-96230774D01*
X170582421Y-96211212D01*
X170582419Y-96211210D01*
X170582417Y-96211207D01*
X170488792Y-96117582D01*
X170488786Y-96117578D01*
X170374114Y-96051371D01*
X170290635Y-96029004D01*
X170246208Y-96017100D01*
X170113792Y-96017100D01*
X170069365Y-96029004D01*
X169985885Y-96051371D01*
X169871213Y-96117578D01*
X169871207Y-96117582D01*
X169777579Y-96211210D01*
X169775277Y-96215199D01*
X169735872Y-96248264D01*
X169710151Y-96252800D01*
X160161826Y-96252800D01*
X160113488Y-96235207D01*
X160108652Y-96230774D01*
X158901359Y-95023480D01*
X158901357Y-95023479D01*
X158803149Y-94982800D01*
X158803148Y-94982800D01*
X148980100Y-94982800D01*
X148931762Y-94965207D01*
X148910625Y-94936379D01*
X148843759Y-94774949D01*
X148734004Y-94610688D01*
X148734001Y-94610685D01*
X148733999Y-94610682D01*
X148594317Y-94471000D01*
X148594313Y-94470997D01*
X148594312Y-94470996D01*
X148430051Y-94361241D01*
X148430049Y-94361240D01*
X148247538Y-94285642D01*
X148247537Y-94285641D01*
X148053778Y-94247100D01*
X148053777Y-94247100D01*
X147856223Y-94247100D01*
X147856222Y-94247100D01*
X147662462Y-94285641D01*
X147662461Y-94285642D01*
X147479950Y-94361240D01*
X147315682Y-94471000D01*
X147176000Y-94610682D01*
X147066240Y-94774950D01*
X146990642Y-94957461D01*
X146990641Y-94957462D01*
X146952100Y-95151222D01*
X146202900Y-95151222D01*
X146202900Y-92611222D01*
X146952100Y-92611222D01*
X146952100Y-92808777D01*
X146990641Y-93002537D01*
X146990642Y-93002538D01*
X147063581Y-93178629D01*
X147066241Y-93185051D01*
X147175996Y-93349312D01*
X147175997Y-93349313D01*
X147176000Y-93349317D01*
X147315682Y-93488999D01*
X147315685Y-93489001D01*
X147315688Y-93489004D01*
X147479949Y-93598759D01*
X147662461Y-93674357D01*
X147662462Y-93674358D01*
X147662463Y-93674358D01*
X147662465Y-93674359D01*
X147767275Y-93695207D01*
X147856222Y-93712900D01*
X147856223Y-93712900D01*
X148053778Y-93712900D01*
X148142725Y-93695207D01*
X148247535Y-93674359D01*
X148430051Y-93598759D01*
X148594312Y-93489004D01*
X148734004Y-93349312D01*
X148843759Y-93185051D01*
X148910625Y-93023620D01*
X148945376Y-92985697D01*
X148980100Y-92977200D01*
X159483174Y-92977200D01*
X159531512Y-92994793D01*
X159536348Y-92999226D01*
X160033479Y-93496357D01*
X160108643Y-93571521D01*
X160206851Y-93612200D01*
X167498174Y-93612200D01*
X167546512Y-93629793D01*
X167551348Y-93634226D01*
X168048479Y-94131357D01*
X168123643Y-94206521D01*
X168221851Y-94247200D01*
X168440151Y-94247200D01*
X168488489Y-94264793D01*
X168505277Y-94284801D01*
X168507579Y-94288789D01*
X168601207Y-94382417D01*
X168601210Y-94382419D01*
X168601212Y-94382421D01*
X168651775Y-94411613D01*
X168715885Y-94448628D01*
X168715887Y-94448628D01*
X168715888Y-94448629D01*
X168843792Y-94482900D01*
X168843794Y-94482900D01*
X168976206Y-94482900D01*
X168976208Y-94482900D01*
X169104112Y-94448629D01*
X169218788Y-94382421D01*
X169312421Y-94288788D01*
X169378629Y-94174112D01*
X169412900Y-94046208D01*
X169412900Y-93913792D01*
X169378629Y-93785888D01*
X169378628Y-93785887D01*
X169378628Y-93785885D01*
X169314723Y-93675200D01*
X169312421Y-93671212D01*
X169312419Y-93671210D01*
X169312417Y-93671207D01*
X169218792Y-93577582D01*
X169218786Y-93577578D01*
X169104114Y-93511371D01*
X169020635Y-93489004D01*
X168976208Y-93477100D01*
X168843792Y-93477100D01*
X168799365Y-93489004D01*
X168715885Y-93511371D01*
X168601213Y-93577578D01*
X168601207Y-93577582D01*
X168507579Y-93671210D01*
X168505277Y-93675199D01*
X168505276Y-93675199D01*
X168505276Y-93675200D01*
X168465871Y-93708265D01*
X168440151Y-93712800D01*
X168416826Y-93712800D01*
X168368488Y-93695207D01*
X168363652Y-93690774D01*
X167791359Y-93118480D01*
X167791357Y-93118479D01*
X167693149Y-93077800D01*
X167693148Y-93077800D01*
X160401826Y-93077800D01*
X160353488Y-93060207D01*
X160348652Y-93055774D01*
X159776359Y-92483480D01*
X159776357Y-92483479D01*
X159678149Y-92442800D01*
X159678148Y-92442800D01*
X148980100Y-92442800D01*
X148931762Y-92425207D01*
X148910625Y-92396379D01*
X148843759Y-92234949D01*
X148734004Y-92070688D01*
X148734001Y-92070685D01*
X148733999Y-92070682D01*
X148594317Y-91931000D01*
X148594313Y-91930997D01*
X148594312Y-91930996D01*
X148430051Y-91821241D01*
X148430049Y-91821240D01*
X148247538Y-91745642D01*
X148247537Y-91745641D01*
X148053778Y-91707100D01*
X148053777Y-91707100D01*
X147856223Y-91707100D01*
X147856222Y-91707100D01*
X147662462Y-91745641D01*
X147662461Y-91745642D01*
X147479950Y-91821240D01*
X147315682Y-91931000D01*
X147176000Y-92070682D01*
X147066240Y-92234950D01*
X146990642Y-92417461D01*
X146990641Y-92417462D01*
X146952100Y-92611222D01*
X146202900Y-92611222D01*
X146202900Y-90071222D01*
X146952100Y-90071222D01*
X146952100Y-90268777D01*
X146990641Y-90462537D01*
X146990642Y-90462538D01*
X147066241Y-90645051D01*
X147175996Y-90809312D01*
X147175997Y-90809313D01*
X147176000Y-90809317D01*
X147315682Y-90948999D01*
X147315685Y-90949001D01*
X147315688Y-90949004D01*
X147479949Y-91058759D01*
X147662461Y-91134357D01*
X147662462Y-91134358D01*
X147662463Y-91134358D01*
X147662465Y-91134359D01*
X147792218Y-91160168D01*
X147856222Y-91172900D01*
X147856223Y-91172900D01*
X148053778Y-91172900D01*
X148101889Y-91163329D01*
X148247535Y-91134359D01*
X148430051Y-91058759D01*
X148594312Y-90949004D01*
X148734004Y-90809312D01*
X148843759Y-90645051D01*
X148910625Y-90483620D01*
X148945376Y-90445697D01*
X148980100Y-90437200D01*
X162958174Y-90437200D01*
X163006512Y-90454793D01*
X163011348Y-90459226D01*
X164623479Y-92071357D01*
X164698643Y-92146521D01*
X164796851Y-92187200D01*
X167978174Y-92187200D01*
X168026512Y-92204793D01*
X168031348Y-92209226D01*
X168758640Y-92936519D01*
X168758641Y-92936519D01*
X168758643Y-92936521D01*
X168856851Y-92977200D01*
X168963149Y-92977200D01*
X169075151Y-92977200D01*
X169123489Y-92994793D01*
X169140277Y-93014801D01*
X169142579Y-93018789D01*
X169236207Y-93112417D01*
X169236210Y-93112419D01*
X169236212Y-93112421D01*
X169246707Y-93118480D01*
X169350885Y-93178628D01*
X169350887Y-93178628D01*
X169350888Y-93178629D01*
X169478792Y-93212900D01*
X169478794Y-93212900D01*
X169611206Y-93212900D01*
X169611208Y-93212900D01*
X169739112Y-93178629D01*
X169853788Y-93112421D01*
X169947421Y-93018788D01*
X170013629Y-92904112D01*
X170047900Y-92776208D01*
X170047900Y-92643792D01*
X170013629Y-92515888D01*
X170013628Y-92515887D01*
X170013628Y-92515885D01*
X169958715Y-92420774D01*
X169947421Y-92401212D01*
X169947419Y-92401210D01*
X169947417Y-92401207D01*
X169853792Y-92307582D01*
X169853786Y-92307578D01*
X169739114Y-92241371D01*
X169675160Y-92224235D01*
X169611208Y-92207100D01*
X169478792Y-92207100D01*
X169427630Y-92220808D01*
X169350885Y-92241371D01*
X169236213Y-92307578D01*
X169236207Y-92307582D01*
X169142579Y-92401210D01*
X169140277Y-92405199D01*
X169140276Y-92405199D01*
X169140276Y-92405200D01*
X169100871Y-92438265D01*
X169075151Y-92442800D01*
X169051826Y-92442800D01*
X169003488Y-92425207D01*
X168998652Y-92420774D01*
X168271359Y-91693480D01*
X168271357Y-91693479D01*
X168173149Y-91652800D01*
X168173148Y-91652800D01*
X164991826Y-91652800D01*
X164943488Y-91635207D01*
X164938652Y-91630774D01*
X163251359Y-89943480D01*
X163251357Y-89943479D01*
X163153149Y-89902800D01*
X163153148Y-89902800D01*
X148980100Y-89902800D01*
X148931762Y-89885207D01*
X148910625Y-89856379D01*
X148843759Y-89694949D01*
X148734004Y-89530688D01*
X148734001Y-89530685D01*
X148733999Y-89530682D01*
X148594317Y-89391000D01*
X148594313Y-89390997D01*
X148594312Y-89390996D01*
X148430051Y-89281241D01*
X148430049Y-89281240D01*
X148247538Y-89205642D01*
X148247537Y-89205641D01*
X148053778Y-89167100D01*
X148053777Y-89167100D01*
X147856223Y-89167100D01*
X147856222Y-89167100D01*
X147662462Y-89205641D01*
X147662461Y-89205642D01*
X147479950Y-89281240D01*
X147315682Y-89391000D01*
X147176000Y-89530682D01*
X147066240Y-89694950D01*
X146990642Y-89877461D01*
X146990641Y-89877462D01*
X146952100Y-90071222D01*
X146202900Y-90071222D01*
X146202900Y-87531222D01*
X146952100Y-87531222D01*
X146952100Y-87728777D01*
X146990641Y-87922537D01*
X146990642Y-87922538D01*
X147066241Y-88105051D01*
X147175996Y-88269312D01*
X147175997Y-88269313D01*
X147176000Y-88269317D01*
X147315682Y-88408999D01*
X147315685Y-88409001D01*
X147315688Y-88409004D01*
X147479949Y-88518759D01*
X147662461Y-88594357D01*
X147662462Y-88594358D01*
X147662463Y-88594358D01*
X147662465Y-88594359D01*
X147792218Y-88620168D01*
X147856222Y-88632900D01*
X147856223Y-88632900D01*
X148053778Y-88632900D01*
X148101889Y-88623329D01*
X148247535Y-88594359D01*
X148430051Y-88518759D01*
X148594312Y-88409004D01*
X148734004Y-88269312D01*
X148843759Y-88105051D01*
X148910625Y-87943620D01*
X148945376Y-87905697D01*
X148980100Y-87897200D01*
X163723174Y-87897200D01*
X163771512Y-87914793D01*
X163776348Y-87919226D01*
X166853640Y-90996519D01*
X166853641Y-90996519D01*
X166853643Y-90996521D01*
X166951851Y-91037200D01*
X167058149Y-91037200D01*
X169368174Y-91037200D01*
X169416512Y-91054793D01*
X169421348Y-91059226D01*
X169658827Y-91296705D01*
X169680567Y-91343325D01*
X169678293Y-91369332D01*
X169677100Y-91373785D01*
X169677100Y-91373792D01*
X169677100Y-91506208D01*
X169697662Y-91582950D01*
X169711371Y-91634114D01*
X169777578Y-91748786D01*
X169777582Y-91748792D01*
X169871207Y-91842417D01*
X169871210Y-91842419D01*
X169871212Y-91842421D01*
X169921775Y-91871613D01*
X169985885Y-91908628D01*
X169985887Y-91908628D01*
X169985888Y-91908629D01*
X170113792Y-91942900D01*
X170113794Y-91942900D01*
X170246206Y-91942900D01*
X170246208Y-91942900D01*
X170374112Y-91908629D01*
X170488788Y-91842421D01*
X170582421Y-91748788D01*
X170648629Y-91634112D01*
X170682900Y-91506208D01*
X170682900Y-91373792D01*
X170648629Y-91245888D01*
X170648628Y-91245887D01*
X170648628Y-91245885D01*
X170606489Y-91172900D01*
X170582421Y-91131212D01*
X170582419Y-91131210D01*
X170582417Y-91131207D01*
X170488792Y-91037582D01*
X170488786Y-91037578D01*
X170488131Y-91037200D01*
X170475238Y-91029756D01*
X170374114Y-90971371D01*
X170310160Y-90954235D01*
X170246208Y-90937100D01*
X170113792Y-90937100D01*
X170113789Y-90937100D01*
X170109335Y-90938293D01*
X170058092Y-90933804D01*
X170036706Y-90918827D01*
X169661359Y-90543480D01*
X169661357Y-90543479D01*
X169563149Y-90502800D01*
X169563148Y-90502800D01*
X167146826Y-90502800D01*
X167098488Y-90485207D01*
X167093652Y-90480774D01*
X164016359Y-87403480D01*
X164016357Y-87403479D01*
X163918149Y-87362800D01*
X163918148Y-87362800D01*
X148980100Y-87362800D01*
X148931762Y-87345207D01*
X148910625Y-87316379D01*
X148843759Y-87154949D01*
X148734004Y-86990688D01*
X148734001Y-86990685D01*
X148733999Y-86990682D01*
X148594317Y-86851000D01*
X148594313Y-86850997D01*
X148594312Y-86850996D01*
X148430051Y-86741241D01*
X148430049Y-86741240D01*
X148247538Y-86665642D01*
X148247537Y-86665641D01*
X148053778Y-86627100D01*
X148053777Y-86627100D01*
X147856223Y-86627100D01*
X147856222Y-86627100D01*
X147662462Y-86665641D01*
X147662461Y-86665642D01*
X147479950Y-86741240D01*
X147315682Y-86851000D01*
X147176000Y-86990682D01*
X147066240Y-87154950D01*
X146990642Y-87337461D01*
X146990641Y-87337462D01*
X146952100Y-87531222D01*
X146202900Y-87531222D01*
X146202900Y-84224942D01*
X146952100Y-84224942D01*
X146952100Y-85955055D01*
X146952101Y-85955057D01*
X146960972Y-85999659D01*
X146994764Y-86050232D01*
X146994765Y-86050232D01*
X146994766Y-86050234D01*
X147045342Y-86084028D01*
X147089943Y-86092900D01*
X148820056Y-86092899D01*
X148864658Y-86084028D01*
X148915234Y-86050234D01*
X148949028Y-85999658D01*
X148957900Y-85955057D01*
X148957899Y-84224944D01*
X148949028Y-84180342D01*
X148915234Y-84129766D01*
X148864658Y-84095972D01*
X148864656Y-84095971D01*
X148820057Y-84087100D01*
X147089944Y-84087100D01*
X147089942Y-84087101D01*
X147045340Y-84095972D01*
X146994767Y-84129764D01*
X146960972Y-84180342D01*
X146960971Y-84180343D01*
X146952100Y-84224942D01*
X146202900Y-84224942D01*
X146202900Y-83824930D01*
X146203543Y-83815115D01*
X146213116Y-83742399D01*
X146218035Y-83705033D01*
X146223113Y-83686081D01*
X146263703Y-83588088D01*
X146273512Y-83571100D01*
X146338078Y-83486956D01*
X146351958Y-83473077D01*
X146436100Y-83408512D01*
X146453088Y-83398703D01*
X146551081Y-83358113D01*
X146570033Y-83353035D01*
X146680116Y-83338543D01*
X146689931Y-83337900D01*
X146719898Y-83337900D01*
X156115518Y-83337900D01*
X156163856Y-83355493D01*
G37*
%TD.AperFunction*%
%TD*%
M02*
