M48
; DRILL file {KiCad 9.0.2+dfsg-1} date 2025-06-14T17:26:31+0800
; FORMAT={-:-/ absolute / metric / decimal}
; #@! TF.CreationDate,2025-06-14T17:26:31+08:00
; #@! TF.GenerationSoftware,Kicad,Pcbnew,9.0.2+dfsg-1
; #@! TF.FileFunction,Plated,1,2,PTH
FMAT,2
METRIC
; #@! TA.AperFunction,Plated,PTH,ViaDrill
T1C0.350
; #@! TA.AperFunction,Plated,PTH,ComponentDrill
T2C1.000
%
G90
G05
T1
X150.495Y-84.455
X150.495Y-86.995
X150.495Y-88.9
X150.495Y-91.44
X150.495Y-93.98
X150.495Y-96.52
X150.495Y-99.06
X150.495Y-101.6
X150.495Y-104.14
X151.765Y-84.455
X151.765Y-86.995
X151.765Y-88.9
X151.765Y-91.44
X151.765Y-93.98
X151.765Y-96.52
X151.765Y-99.06
X151.765Y-101.6
X151.765Y-104.14
X153.67Y-93.98
X154.305Y-105.41
X155.575Y-93.98
X155.575Y-105.41
X156.845Y-84.896
X156.845Y-86.995
X156.845Y-99.06
X156.845Y-105.41
X159.385Y-91.44
X159.385Y-93.98
X159.385Y-99.06
X163.83Y-92.075
X163.83Y-95.25
X163.83Y-99.06
X165.1Y-90.17
X167.64Y-89.535
X167.64Y-102.235
X168.275Y-99.06
X168.91Y-89.535
X168.91Y-91.44
X168.91Y-93.98
X168.91Y-102.235
X169.545Y-92.71
X170.18Y-89.535
X170.18Y-91.44
X170.18Y-96.52
X170.18Y-98.425
X170.18Y-99.695
X170.18Y-102.235
X173.99Y-90.805
X173.99Y-93.345
X173.99Y-95.885
X173.99Y-98.425
X173.99Y-100.965
T2
X147.955Y-85.09
X147.955Y-87.63
X147.955Y-90.17
X147.955Y-92.71
X147.955Y-95.25
X147.955Y-97.79
X147.955Y-100.33
X147.955Y-102.87
X147.955Y-105.41
M30
